<?xml version="1.0" encoding="UTF-8" standalone="no"?>
<!-- Created with Inkscape (http://www.inkscape.org/) -->

<svg
   xmlns:dc="http://purl.org/dc/elements/1.1/"
   xmlns:cc="http://creativecommons.org/ns#"
   xmlns:rdf="http://www.w3.org/1999/02/22-rdf-syntax-ns#"
   xmlns:svg="http://www.w3.org/2000/svg"
   xmlns="http://www.w3.org/2000/svg"
   xmlns:sodipodi="http://sodipodi.sourceforge.net/DTD/sodipodi-0.dtd"
   xmlns:inkscape="http://www.inkscape.org/namespaces/inkscape"
   width="512"
   height="512"
   id="svg2"
   version="1.1"
   inkscape:version="0.48.4 r9939"
   sodipodi:docname="bigfoot.svg"
   inkscape:export-filename="C:\Users\Mark\Documents\Found Bigfootage\Assets\bigfoot.png"
   inkscape:export-xdpi="90"
   inkscape:export-ydpi="90">
  <defs
     id="defs4" />
  <sodipodi:namedview
     id="base"
     pagecolor="#ffffff"
     bordercolor="#666666"
     borderopacity="1.0"
     inkscape:pageopacity="0.0"
     inkscape:pageshadow="2"
     inkscape:zoom="0.90509668"
     inkscape:cx="264.16555"
     inkscape:cy="240.33273"
     inkscape:document-units="px"
     inkscape:current-layer="layer1"
     showgrid="false"
     showguides="true"
     inkscape:guide-bbox="true"
     inkscape:window-width="667"
     inkscape:window-height="778"
     inkscape:window-x="96"
     inkscape:window-y="183"
     inkscape:window-maximized="0" />
  <metadata
     id="metadata7">
    <rdf:RDF>
      <cc:Work
         rdf:about="">
        <dc:format>image/svg+xml</dc:format>
        <dc:type
           rdf:resource="http://purl.org/dc/dcmitype/StillImage" />
        <dc:title></dc:title>
      </cc:Work>
    </rdf:RDF>
  </metadata>
  <g
     inkscape:label="Layer 1"
     inkscape:groupmode="layer"
     id="layer1"
     transform="translate(0,-540.36218)">
    <path
       style="fill:#25211d;fill-opacity:1;stroke:none"
       d="m 245.14913,646.74324 c -2.09304,-14.77094 2.83259,-29.78247 6.11052,-44.33641 2.20046,-9.76996 4.54815,-19.70352 9.0536,-28.64753 4.77662,-9.48235 9.34478,-20.75609 18.69267,-25.79073 8.78644,-4.73221 20.21087,-3.68159 29.9096,-1.33019 7.00881,1.69925 13.47352,5.86289 18.7741,10.75316 5.11249,4.71664 10.5053,10.37972 11.79384,17.21523 0.63499,3.36749 -2.90702,5.69801 -2.32373,10.01438 0.70176,5.19285 2.01891,4.97112 4.1534,9.92542 2.13457,4.95427 3.85744,5.69824 4.84113,10.41997 0.85357,4.10384 -0.63488,9.79954 1.38793,17.64948 2.02273,7.84989 3.63438,22.9174 3.24827,27.25049 -0.77219,8.6663 -11.05947,7.48165 -12.60596,12.28086 -2.29346,7.11709 -7.75232,8.31673 -12.73819,10.78562 -9.67637,4.79134 -20.83597,6.92774 -31.63346,6.97292 -5.89183,0.0246 -11.64611,-1.97733 -17.29243,-3.66061 -7.5629,-2.25457 -16.35434,-3.13407 -22.06603,-8.57988 -5.52417,-5.26708 -8.23439,-13.36496 -9.30526,-20.92218 z"
       id="path2987"
       inkscape:connector-curvature="0"
       sodipodi:nodetypes="aaaaaaasscsssaaaaa" />
    <path
       style="fill:#25211d;fill-opacity:1;stroke:none"
       d="m 253.53008,983.69344 c -25.26456,-72.59255 -17.19423,-157.43093 6.67749,-230.49333 5.95211,-18.21716 16.89856,-36.36158 32.58862,-47.36678 18.7915,-13.18065 45.64554,-26.68292 66.6298,-17.38173 35.50417,15.73704 45.1512,65.44551 53.92111,103.27795 9.8224,42.37279 -0.50284,87.04252 -3.33971,130.44638 -1.90265,29.10942 4.81826,61.43248 -9.16696,87.03317 -9.57448,17.5266 -27.21227,33.3209 -46.74658,37.4757 -20.59896,4.3811 -43.31546,-4.7729 -61.11,-16.0364 -17.27371,-10.9338 -32.73415,-27.6476 -39.45377,-46.95496 z"
       id="path3770"
       inkscape:connector-curvature="0"
       sodipodi:nodetypes="aaaaaaaaaa" />
    <path
       style="fill:#25211d;fill-opacity:1;stroke:none"
       d="m 221.8638,607.71821 c -1.87691,54.70163 -13.99462,110.80572 -37.62889,160.04556 -6.13966,12.79152 -29.4479,14.88155 -41.81967,7.93489 -20.45508,-11.4853 -19.07995,-43.11219 -24.79468,-65.86443 -7.57957,-30.17661 -16.44493,-61.69202 -12.29679,-92.52818 2.95865,-21.99378 7.03224,-49.64697 25.89885,-61.33152 16.66718,-10.3224 41.71984,-6.14114 58.70052,3.65706 16.66702,9.61719 32.53297,30.82339 31.94066,48.08662 z"
       id="path3772"
       inkscape:connector-curvature="0"
       sodipodi:nodetypes="ssaaaaas" />
    <path
       style="fill:#25211d;fill-opacity:1;stroke:none"
       d="m 59.729381,557.04392 c 15.224144,2.50765 29.427763,20.59365 31.448344,33.96421 5.246608,34.71787 4.794102,78.39629 3.77381,142.14657 -0.158334,9.89484 -2.243597,29.43172 -12.579348,37.73795 -6.24437,5.01839 -16.874874,6.3645 -23.900761,2.51591 C 42.025079,764.39974 40.178535,740.54131 33.312743,723.09123 22.430994,695.4341 10.432922,667.18507 8.1540834,637.55169 6.6945077,618.57173 4.9060144,596.6234 15.701677,580.94466 25.171924,567.19084 43.252486,554.32991 59.729381,557.04392 z"
       id="path3774"
       inkscape:connector-curvature="0"
       sodipodi:nodetypes="assaaaaaa" />
    <path
       style="fill:#25211d;fill-opacity:1;stroke:none"
       d="m 423.9536,622.77581 c 7.33565,1.5086 12.99753,7.6642 20.10078,10.0373 11.91432,3.9805 25.42529,2.0857 37.06437,6.8107 6.98784,2.8368 18.53629,5.0425 18.80582,12.5795 0.17082,4.7777 -6.54094,8.7451 -11.32141,8.8055 -42.55238,0.5374 -64.55445,4.2445 -107.57192,1.2578 -6.61397,-0.4591 -10.87831,-9.738 -11.32141,-16.3531 -0.51576,-7.6996 4.059,-16.4041 10.52132,-20.6217 12.22489,-7.9789 29.42345,-5.4566 43.72245,-2.516 z"
       id="path3776"
       inkscape:connector-curvature="0"
       sodipodi:nodetypes="aaaassaaa" />
    <path
       sodipodi:nodetypes="aaaaaaa"
       inkscape:connector-curvature="0"
       id="path3822"
       d="m 463.67345,588.80329 c -17.12623,4.8373 -41.06841,5.2962 -58.04675,0.3107 -9.96416,-2.9256 -19.92764,-9.4807 -18.10329,-15.5008 2.49129,-8.2209 21.78334,-12.4685 35.94369,-15.8641 15.95771,-3.8265 36.51533,-8.7899 51.82346,-4.2621 9.66906,2.8599 14.36832,10.3981 13.26424,16.297 -1.44297,7.7095 -12.11318,15.413 -24.88135,19.0193 z"
       style="fill:#25211d;fill-opacity:1;stroke:none" />
    <path
       style="fill:#25211d;fill-opacity:1;stroke:none"
       d="M 29.318571,966.40871 C 22.56873,933.57348 19.220588,860.29933 19.144052,823.69226 c -0.02898,-13.83088 12.739048,-29.675 26.366572,-32.03829 10.741772,-1.86283 25.335305,6.22846 28.072989,16.78122 6.547689,25.23879 3.149479,79.85812 -0.749831,119.50134 -1.39434,14.17588 1.522981,31.42896 -8.06266,41.96532 -5.713625,6.28027 -16.206423,9.1782 -24.449217,7.14276 -4.952401,-1.22291 -9.976156,-5.63928 -11.003334,-10.6359 z"
       id="path3824"
       inkscape:connector-curvature="0"
       sodipodi:nodetypes="ssasaaas" />
    <path
       style="fill:#25211d;fill-opacity:1;stroke:none"
       d="m 117.98941,1008.5647 c -20.948537,-41.72913 -10.48781,-63.85288 -13.6056,-96.0327 -2.44397,-25.22506 -11.012108,-51.5758 -3.9845,-75.92505 5.2702,-18.26019 15.52263,-38.82076 32.86778,-46.58957 13.28402,-5.94975 33.78552,-5.96759 43.38234,4.97624 15.50524,17.68142 -0.89532,47.02569 -1.18212,70.54097 -0.31852,26.11684 0.93893,52.28052 -0.59824,78.35392 -1.22348,20.75273 3.50639,43.96587 -6.85507,61.98839 -4.40871,7.6683 -12.52876,14.8687 -21.32586,15.7915 -10.45888,1.0973 -23.77505,-3.2959 -28.69873,-13.1037 z"
       id="path3828"
       inkscape:connector-curvature="0"
       sodipodi:nodetypes="saaaaaaaas" />
  </g>
</svg>
