<?xml version="1.0" encoding="UTF-8" standalone="no"?>
<!-- Created with Inkscape (http://www.inkscape.org/) -->

<svg
   xmlns:dc="http://purl.org/dc/elements/1.1/"
   xmlns:cc="http://creativecommons.org/ns#"
   xmlns:rdf="http://www.w3.org/1999/02/22-rdf-syntax-ns#"
   xmlns:svg="http://www.w3.org/2000/svg"
   xmlns="http://www.w3.org/2000/svg"
   xmlns:sodipodi="http://sodipodi.sourceforge.net/DTD/sodipodi-0.dtd"
   xmlns:inkscape="http://www.inkscape.org/namespaces/inkscape"
   width="512"
   height="512"
   id="svg2"
   version="1.1"
   inkscape:version="0.48.4 r9939"
   sodipodi:docname="box.svg"
   inkscape:export-filename="C:\Users\Mark\Documents\GitHub\FoundBigfootage\Assets\UI\box.png"
   inkscape:export-xdpi="90"
   inkscape:export-ydpi="90">
  <defs
     id="defs4" />
  <sodipodi:namedview
     id="base"
     pagecolor="#ffffff"
     bordercolor="#666666"
     borderopacity="1.0"
     inkscape:pageopacity="0.0"
     inkscape:pageshadow="2"
     inkscape:zoom="0.7"
     inkscape:cx="224.428"
     inkscape:cy="242.5302"
     inkscape:document-units="px"
     inkscape:current-layer="layer1"
     showgrid="false"
     inkscape:window-width="701"
     inkscape:window-height="709"
     inkscape:window-x="25"
     inkscape:window-y="25"
     inkscape:window-maximized="0" />
  <metadata
     id="metadata7">
    <rdf:RDF>
      <cc:Work
         rdf:about="">
        <dc:format>image/svg+xml</dc:format>
        <dc:type
           rdf:resource="http://purl.org/dc/dcmitype/StillImage" />
        <dc:title></dc:title>
      </cc:Work>
    </rdf:RDF>
  </metadata>
  <g
     inkscape:label="Layer 1"
     inkscape:groupmode="layer"
     id="layer1"
     transform="translate(0,-540.36218)">
    <path
       style="fill:none;stroke:#ffffff;stroke-width:12;stroke-linecap:butt;stroke-linejoin:miter;stroke-miterlimit:4;stroke-opacity:1;stroke-dasharray:none"
       d="m 90,620.93361 c 14.36416,3.30328 29.45702,-1.19044 44.19418,-1.42857 9.07695,-0.14667 18.16129,0.3021 27.23439,0 7.15475,-0.23823 14.2736,-1.65968 21.42858,-1.42857 10.91845,0.35268 21.57822,3.78735 32.49099,4.28571 11.93234,0.54492 23.86343,-1.19043 35.80583,-1.42857 9.13734,-0.18221 18.28231,-0.27048 27.41746,0 8.04479,0.2382 16.06107,1.75784 24.10264,1.42857 10.15343,-0.41574 20.04639,-3.56965 30.18307,-4.28571 6.65009,-0.46977 13.33522,-0.1586 20,0 10.0085,0.23816 19.9915,1.19041 30,1.42857 10.41222,0.24777 20.83033,0 31.2455,0 7.20388,0 14.57876,-1.56024 21.61165,0 7.69526,1.70719 15.10801,5.29022 21.42857,10 4.59795,3.42617 7.2327,8.94888 11.42857,12.85714 5.71497,5.32324 14.50783,7.61601 18.57143,14.28571 4.16765,6.84047 3.76208,15.65203 4.28571,23.64497 0.6425,9.80745 -1.61972,19.62417 -1.42857,29.45078 0.21228,10.91241 3.36447,21.71586 2.85714,32.61854 -0.49354,10.60645 -5.8547,20.72004 -5.71428,31.33704 0.12267,9.27499 4.75679,18.00814 5.71428,27.23439 0.63901,6.15741 0,12.38095 0,18.57143 0,9.04762 0.80098,18.13076 0,27.14285 -0.7171,8.06836 -3.82174,15.83271 -4.28571,23.91957 -0.43552,7.59098 0.97134,15.17591 1.42857,22.76561 0.4968,8.24659 3.44842,16.73259 1.42857,24.7434 -1.77712,7.04814 -7.50717,12.4512 -11.42857,18.57142 -3.70505,5.78256 -6.16526,12.73113 -11.42857,17.14281 -6.3735,5.34224 -15.4435,6.23186 -22.85714,10 -5.8974,2.99748 -10.67815,8.59582 -17.14286,10 -9.29388,2.01869 -18.88973,-2.38032 -28.38836,-2.8571 -9.09719,-0.45663 -18.21729,0 -27.32593,0 -7.14286,0 -14.28689,0.12987 -21.42857,0 -13.09573,-0.23814 -26.19538,-0.61071 -39.26772,-1.4286 -10.7415,-0.67206 -21.43649,-1.95177 -32.16085,-2.8571 -11.90047,-1.00461 -23.781,-2.38062 -35.71429,-2.8572 -11.41947,-0.45606 -22.89608,-0.94265 -34.28571,0 -8.66006,0.71674 -17.05387,3.57347 -25.71429,4.2858 -7.17701,0.59032 -14.41362,-0.42227 -21.60374,-0.022 -8.5537,0.47619 -17.00032,2.18467 -25.53911,2.8787 -9.50436,0.77251 -19.0978,2.51494 -28.57143,1.4286 C 98.238976,971.17698 87.972493,968.23815 78.571429,963.7903 71.765574,960.5703 66.465535,954.7917 60,950.9336 53.119503,946.82789 43.785268,946.12381 38.574457,940.0373 32.588755,933.04568 32.199663,922.72792 30,913.79075 27.259743,902.65717 24.176185,891.3365 24.285714,879.87118 24.384104,869.57194 29.043485,859.76023 30,849.50503 c 0.707567,-7.58612 0.24259,-15.24195 0,-22.85714 -0.238216,-7.47786 -1.190355,-14.9216 -1.428571,-22.39946 -0.26261,-8.24361 -0.514533,-16.51166 0,-24.74339 0.47712,-7.63317 1.774411,-15.19457 2.857142,-22.76561 1.275403,-8.91831 3.278128,-17.73265 4.285715,-26.68517 0.821074,-7.29533 2.441251,-14.70658 1.428571,-21.97779 -1.176242,-8.44561 -7.382581,-15.6588 -8.571428,-24.10265 -1.072807,-7.61967 -0.178105,-15.515 1.428571,-23.04021 1.699033,-7.95779 3.830764,-16.24358 8.571429,-22.85714 3.942972,-5.50073 9.56185,-10.03712 15.714285,-12.85715 10.117048,-4.63724 21.889048,-7.49597 32.884335,-5.77483 1.053118,0.16485 1.791124,1.25022 2.829951,1.48912 z"
       id="path3755"
       inkscape:connector-curvature="0"
       sodipodi:nodetypes="aaaaaaaaaaaaaaaaaaaaaaaaaaaaaaaaaaaaaaaaaaaaaaaaaaaaaaaaaaa" />
  </g>
</svg>
