<?xml version="1.0" encoding="UTF-8" standalone="no"?>
<!-- Created with Inkscape (http://www.inkscape.org/) -->

<svg
   xmlns:dc="http://purl.org/dc/elements/1.1/"
   xmlns:cc="http://creativecommons.org/ns#"
   xmlns:rdf="http://www.w3.org/1999/02/22-rdf-syntax-ns#"
   xmlns:svg="http://www.w3.org/2000/svg"
   xmlns="http://www.w3.org/2000/svg"
   xmlns:sodipodi="http://sodipodi.sourceforge.net/DTD/sodipodi-0.dtd"
   xmlns:inkscape="http://www.inkscape.org/namespaces/inkscape"
   width="1024"
   height="1024"
   id="svg2"
   version="1.1"
   inkscape:version="0.48.4 r9939"
   sodipodi:docname="sign.svg"
   inkscape:export-filename="C:\Users\Mark\Documents\GitHub\FoundBigfootage\Assets\Flora\sign.png"
   inkscape:export-xdpi="90"
   inkscape:export-ydpi="90">
  <defs
     id="defs4" />
  <sodipodi:namedview
     id="base"
     pagecolor="#ffffff"
     bordercolor="#666666"
     borderopacity="1.0"
     inkscape:pageopacity="0.0"
     inkscape:pageshadow="2"
     inkscape:zoom="0.49497475"
     inkscape:cx="524.96429"
     inkscape:cy="373.50417"
     inkscape:document-units="px"
     inkscape:current-layer="layer1"
     showgrid="false"
     inkscape:snap-page="true"
     inkscape:window-width="835"
     inkscape:window-height="822"
     inkscape:window-x="27"
     inkscape:window-y="142"
     inkscape:window-maximized="0" />
  <metadata
     id="metadata7">
    <rdf:RDF>
      <cc:Work
         rdf:about="">
        <dc:format>image/svg+xml</dc:format>
        <dc:type
           rdf:resource="http://purl.org/dc/dcmitype/StillImage" />
        <dc:title></dc:title>
      </cc:Work>
    </rdf:RDF>
  </metadata>
  <g
     inkscape:label="Layer 1"
     inkscape:groupmode="layer"
     id="layer1"
     transform="translate(0,-28.362183)">
    <path
       style="fill:#3e3834;fill-opacity:1;stroke:none"
       d="m 121.21831,234.13863 775.79717,167.68533 c 33.91356,7.33027 70.3067,28.79274 62.62946,62.62945 l -54.54824,240.4163 c -7.67723,33.8367 -27.93274,62.62946 -62.62946,62.62946 l -668.721,0 c -34.69672,0 -58.20009,-28.21663 -62.62946,-62.62946 L 58.588848,296.76808 c -4.429374,-34.41283 28.7159,-69.95972 62.629462,-62.62945 z"
       id="rect3760"
       inkscape:connector-curvature="0"
       sodipodi:nodetypes="sssssssss" />
    <path
       style="fill:none;stroke:#3e3834;stroke-width:50;stroke-linecap:round;stroke-linejoin:miter;stroke-miterlimit:4;stroke-opacity:1;stroke-dasharray:none"
       d="m 220.21325,729.11337 0,121.21831"
       id="path3766"
       inkscape:connector-curvature="0" />
    <path
       inkscape:connector-curvature="0"
       id="path3768"
       d="m 785.89868,729.11336 0,121.21831"
       style="fill:none;stroke:#3e3834;stroke-width:50;stroke-linecap:round;stroke-linejoin:miter;stroke-miterlimit:4;stroke-opacity:1;stroke-dasharray:none" />
    <flowRoot
       xml:space="preserve"
       id="flowRoot3771"
       style="fill:black;stroke:none;stroke-opacity:1;stroke-width:1px;stroke-linejoin:miter;stroke-linecap:butt;fill-opacity:1;font-family:Sans;font-style:normal;font-weight:normal;font-size:6px;line-height:125%;letter-spacing:0px;word-spacing:0px"><flowRegion
         id="flowRegion3773"><rect
           id="rect3775"
           width="699.02557"
           height="379.81735"
           x="139.40105"
           y="329.01505" /></flowRegion><flowPara
         id="flowPara3777" /></flowRoot>    <flowRoot
       xml:space="preserve"
       id="flowRoot3779"
       style="fill:black;stroke:none;stroke-opacity:1;stroke-width:1px;stroke-linejoin:miter;stroke-linecap:butt;fill-opacity:1;font-family:Sans;font-style:normal;font-weight:normal;font-size:50px;line-height:125%;letter-spacing:0px;word-spacing:0px"><flowRegion
         id="flowRegion3781"><rect
           id="rect3783"
           width="672.7616"
           height="325.26913"
           x="141.42136"
           y="324.97443"
           style="font-size:50px" /></flowRegion><flowPara
         id="flowPara3785" /></flowRoot>    <flowRoot
       xml:space="preserve"
       id="flowRoot3787"
       style="font-size:64px;font-style:normal;font-variant:normal;font-weight:normal;font-stretch:normal;line-height:125%;letter-spacing:0px;word-spacing:0px;fill:#eeea86;fill-opacity:1;stroke:none;font-family:Calibri;-inkscape-font-specification:Calibri"
       transform="translate(2.0203051,28.362183)"><flowRegion
         id="flowRegion3789"><rect
           id="rect3791"
           width="781.85803"
           height="349.51279"
           x="115.15739"
           y="322.95413"
           style="font-size:64px;font-style:normal;font-variant:normal;font-weight:normal;font-stretch:normal;fill:#eeea86;fill-opacity:1;font-family:Calibri;-inkscape-font-specification:Calibri" /></flowRegion><flowPara
         id="flowPara3793">ENTERING</flowPara><flowPara
         id="flowPara3795"
         style="font-style:oblique;-inkscape-font-specification:Calibri Oblique">&quot;WASD OR ARROW KEYS&quot;</flowPara></flowRoot>    <path
       sodipodi:type="inkscape:offset"
       inkscape:radius="1.4725378"
       inkscape:original="M 401.5 507.65625 C 401.08977 507.65632 400.73039 507.83405 400.4375 508.15625 C 400.14446 508.47859 399.90911 508.87702 399.71875 509.375 C 399.52825 509.87311 399.36712 510.43073 399.25 511.03125 C 399.13274 511.6319 399.04195 512.19342 398.96875 512.75 C 398.89545 513.3067 398.8417 513.81061 398.8125 514.25 C 398.7831 514.68952 398.78115 515.01178 398.78125 515.1875 C 398.69325 516.24225 398.51556 517.47077 398.28125 518.90625 C 398.04681 520.34186 397.77629 521.83501 397.46875 523.34375 C 397.16106 524.85259 396.8681 526.33111 396.53125 527.78125 C 396.19427 529.2315 395.8554 530.51372 395.5625 531.65625 C 394.39055 536.3145 393.34173 540.3516 392.375 543.75 C 391.40814 547.14847 390.52435 550.08694 389.71875 552.5625 C 388.91302 555.03811 388.15912 557.13186 387.5 558.875 C 386.84076 560.61818 386.24408 562.18361 385.6875 563.53125 C 385.54096 563.94142 385.37983 564.44923 385.21875 565.09375 C 385.05757 565.73829 384.89643 566.38478 384.75 567 C 384.60346 567.61525 384.49213 568.12305 384.375 568.5625 C 384.25776 569.00196 384.1503 569.21876 384.0625 569.21875 C 383.91596 569.21876 383.68256 569.03711 383.375 568.65625 C 383.06733 568.2754 382.74116 567.80665 382.375 567.25 C 382.00874 566.69337 381.63276 566.09865 381.28125 565.46875 C 380.92963 564.83888 380.63862 564.28126 380.375 563.8125 C 378.73432 560.76564 377.25776 557.64553 375.96875 554.4375 C 374.67964 551.22952 373.50875 548.10745 372.46875 545.03125 C 371.42867 541.95511 370.48921 539.00004 369.625 536.1875 C 368.7607 533.37504 367.96578 530.85161 367.21875 528.625 C 366.47164 526.39848 365.73434 524.52349 365.03125 523 C 364.32809 521.47661 363.60543 520.46685 362.84375 519.96875 C 362.19918 519.38287 361.46189 518.7901 360.65625 518.21875 C 359.85056 517.64752 358.93161 517.37506 357.90625 517.375 C 356.82224 517.37506 355.92185 517.61042 355.21875 518.09375 C 354.5156 518.57721 353.97068 519.18854 353.53125 519.90625 C 353.09177 520.62408 352.7324 521.41705 352.46875 522.28125 C 352.20506 523.14556 351.98826 523.95709 351.8125 524.71875 L 338.78125 566.8125 L 337.65625 571.34375 C 337.33398 572.57422 337.08397 573.45605 336.9375 573.96875 C 336.79097 574.48144 336.71874 574.82813 336.71875 575.0625 C 336.71874 575.47266 336.84277 575.95606 337.0625 576.46875 C 337.28222 576.98144 337.56933 577.43555 337.90625 577.875 C 338.24316 578.31445 338.62304 578.69238 339.0625 579 C 339.50195 579.30761 339.93554 579.46875 340.375 579.46875 C 341.07812 579.46875 341.78026 579.19629 342.46875 578.625 C 343.15721 578.05371 343.67968 577.20704 344.03125 576.09375 C 344.11915 575.77149 344.30272 575.08985 344.625 574.09375 C 344.94725 573.09767 345.30662 571.99708 345.6875 570.78125 C 346.06834 569.56544 346.46288 568.35743 346.84375 567.15625 C 347.22459 565.95509 347.54881 564.98048 347.8125 564.21875 C 348.13475 563.25197 348.53318 561.98829 349.03125 560.40625 C 349.52928 558.82423 350.06834 557.07913 350.625 555.21875 C 351.18162 553.35843 351.74314 551.46097 352.34375 549.46875 C 352.94431 547.4766 353.51853 545.56839 354.03125 543.78125 C 354.54392 541.99418 354.99607 540.38968 355.40625 538.96875 C 355.81638 537.54789 356.13865 536.44926 356.34375 535.6875 C 356.40235 535.48247 356.53025 535.01176 356.75 534.25 C 356.9697 533.48832 357.20505 532.71196 357.46875 531.90625 C 357.73239 531.10063 357.98629 530.36333 358.25 529.71875 C 358.51364 529.07427 358.76169 528.75005 358.9375 528.75 C 359.11326 528.75005 359.24313 528.87407 359.375 529.09375 C 359.50681 529.31353 359.64743 529.58598 359.75 529.9375 C 359.85251 530.28911 359.92868 530.66899 360.03125 531.09375 C 360.13376 531.5186 360.25778 531.96489 360.375 532.375 L 360.625 533.375 C 361.56247 536.97856 362.60739 540.74711 363.75 544.6875 C 364.89254 548.62796 366.20798 552.52249 367.6875 556.375 C 369.16696 560.22756 370.84371 563.90724 372.71875 567.4375 C 374.59371 570.96778 376.72261 574.12306 379.125 576.90625 C 379.62299 577.49219 380.25092 577.90332 380.96875 578.09375 C 381.68647 578.28419 382.38862 578.375 383.0625 578.375 C 384.20502 578.375 385.23334 578.07129 386.15625 577.5 C 387.07904 576.92871 387.89252 576.2041 388.625 575.28125 C 389.35736 574.3584 390.0224 573.33008 390.59375 572.1875 C 391.16498 571.04493 391.65423 569.89258 392.09375 568.75 C 393.08978 566.23048 394.00677 563.86818 394.8125 561.65625 C 395.6181 559.44435 396.34271 557.35256 397.03125 555.375 C 397.71966 553.39748 398.36614 551.48929 398.9375 549.6875 C 399.50872 547.88578 400.06634 546.13675 400.59375 544.4375 C 400.88665 543.47074 401.23137 542.26078 401.65625 540.78125 C 402.08098 539.3018 402.53118 537.67875 403 535.90625 C 403.46868 534.13383 403.92082 532.27739 404.375 530.34375 C 404.82903 528.41021 405.25871 526.51861 405.625 524.6875 C 405.99113 522.8565 406.26555 521.15924 406.5 519.5625 C 406.7343 517.96588 406.87492 516.58014 406.875 515.4375 C 406.87492 513.62116 406.64152 512.1944 406.1875 511.125 C 405.73332 510.05573 405.21281 509.13678 404.65625 508.375 C 404.15812 508.14069 403.63176 507.96101 403.03125 507.84375 C 402.43059 507.72667 401.91009 507.65632 401.5 507.65625 z M 680.78125 510.90625 C 679.93162 510.90631 679.22947 511.24714 678.6875 511.90625 C 678.14549 512.5655 677.7285 513.37898 677.40625 514.375 C 677.08397 515.37116 676.83396 516.45318 676.6875 517.625 C 676.54099 518.79693 676.43165 519.87897 676.34375 520.875 L 665 565.875 C 664.8535 566.43165 664.70898 567.09669 664.5625 567.84375 C 664.41601 568.59083 664.28808 569.34669 664.15625 570.09375 C 664.02441 570.84083 663.9004 571.56153 663.8125 572.25 C 663.7246 572.93848 663.68749 573.5 663.6875 573.96875 C 663.68749 574.4961 663.7617 575.05567 663.9375 575.65625 C 664.11327 576.25684 664.40038 576.84765 664.78125 577.375 C 665.1621 577.90234 665.6328 578.31934 666.21875 578.65625 C 666.80467 578.99317 667.49023 579.15624 668.28125 579.15625 C 669.18944 579.15624 669.95995 578.85058 670.53125 578.25 C 671.10253 577.64941 671.52146 576.9248 671.84375 576.03125 C 672.16599 575.13769 672.3828 574.16505 672.5 573.125 C 672.61719 572.08497 672.68748 571.12891 672.6875 570.25 L 672.6875 569.1875 C 672.83396 568.16212 673.05076 566.84669 673.34375 565.25 C 673.6367 563.65334 673.99803 561.97657 674.4375 560.21875 L 685.4375 516.1875 C 685.4961 515.8946 685.56835 515.58893 685.65625 515.28125 C 685.74405 514.9737 685.78122 514.70318 685.78125 514.46875 C 685.78122 513.94147 685.60153 513.47077 685.25 513.03125 C 684.8984 512.59186 684.48141 512.21394 683.96875 511.90625 C 683.45602 511.5987 682.91501 511.36334 682.34375 511.1875 C 681.77244 511.01173 681.24998 510.90631 680.78125 510.90625 z M 516.8125 518.6875 C 516.51951 518.68755 516.0488 518.81158 515.375 519.03125 C 514.70115 519.25103 514.12498 519.48639 513.65625 519.75 C 512.68943 520.45319 512.00583 521.24615 511.625 522.125 C 511.24412 523.00396 510.99021 523.75982 510.84375 524.375 C 510.78515 524.60943 510.7314 524.84478 510.6875 525.09375 C 510.6436 525.34282 510.625 525.61529 510.625 525.9375 C 510.625 526.11333 510.6435 526.34478 510.6875 526.59375 C 510.7314 526.84282 510.92771 527.1856 511.25 527.625 C 511.80662 528.38677 512.25876 528.85943 512.625 529.09375 C 512.99118 529.32818 513.51365 529.4688 514.1875 529.46875 C 514.71482 529.4688 515.3281 529.36138 516.03125 529.15625 C 516.73435 528.95122 517.41794 528.64751 518.0625 528.28125 C 518.707 527.91509 519.25192 527.48149 519.75 526.96875 C 520.24802 526.4561 520.60544 525.89654 520.78125 525.28125 C 520.83985 525.04693 520.9121 524.75591 521 524.375 C 521.0878 523.9942 521.12497 523.56255 521.125 523.09375 C 521.12497 522.44927 521.00095 521.87506 520.78125 521.40625 C 520.5615 520.93756 520.10739 520.6836 519.375 520.625 C 519.1113 520.27349 518.82419 519.94928 518.53125 519.65625 C 518.29685 519.42194 518.02634 519.20514 517.71875 519 C 517.41111 518.79498 517.10545 518.68755 516.8125 518.6875 z M 470.53125 520 C 469.62302 520.00006 468.93747 520.25201 468.46875 520.75 C 467.99997 521.2481 467.67576 521.78716 467.5 522.34375 C 467.2656 523.04693 467.13765 523.58795 467.09375 523.96875 C 467.04985 524.34967 467.03125 524.64068 467.03125 524.875 L 467.03125 525.34375 C 467.03115 525.95903 467.0333 526.42974 467.0625 526.78125 C 467.0917 527.13287 467.125 527.49419 467.125 527.875 C 467.12498 528.19731 467.0381 528.64556 466.90625 529.1875 C 466.77439 529.72954 466.60936 530.41704 466.375 531.28125 C 466.14061 532.14555 465.83689 533.19243 465.5 534.4375 C 465.16306 535.68266 464.81834 537.17583 464.4375 538.875 C 464.32029 539.34379 464.14256 539.79789 463.9375 540.28125 C 463.7324 540.76468 463.36912 541.03129 462.8125 541.03125 L 456.90625 541.03125 C 456.46679 541.03129 456.0703 541.15922 455.71875 541.4375 C 455.36717 541.71586 455.09472 542.04202 454.875 542.4375 C 454.65527 542.83304 454.49218 543.24613 454.375 543.65625 C 454.25782 544.06644 454.18749 544.39261 454.1875 544.65625 C 454.18749 545.33011 454.40233 545.92484 454.8125 546.4375 C 455.22264 546.95023 455.7617 547.39846 456.40625 547.75 C 457.05077 548.10159 457.74022 548.35745 458.53125 548.5625 C 459.32225 548.76761 460.11326 548.9082 460.875 548.9375 C 460.25975 551.36917 459.68162 553.91116 459.125 556.5625 C 458.56834 559.21389 458.28123 561.75783 458.28125 564.21875 C 458.28123 566.03517 458.53514 567.73047 459.0625 569.3125 C 459.58983 570.89453 460.36424 572.28223 461.375 573.46875 C 462.38572 574.65527 463.64549 575.59277 465.125 576.28125 C 466.60447 576.96972 468.28317 577.3125 470.1875 577.3125 C 471.41794 577.3125 472.68161 577.16993 474 576.90625 C 475.31833 576.64258 476.54293 576.17188 477.65625 575.46875 C 478.30075 575.0586 478.98629 574.60645 479.71875 574.09375 C 480.45113 573.58106 481.16989 573.04004 481.84375 572.46875 C 482.51754 571.89746 483.14742 571.30274 483.71875 570.6875 C 484.29 570.07227 484.74214 569.42579 485.09375 568.78125 C 486.1191 566.93556 487.11226 565.11232 488.09375 563.28125 C 489.07515 561.45022 489.81246 559.62893 490.28125 557.8125 C 490.31045 557.69534 490.3125 557.51565 490.3125 557.28125 C 490.31245 556.95901 490.2236 556.6719 490.0625 556.4375 C 489.90132 556.20315 489.70308 556.02151 489.46875 555.875 C 489.23433 555.72854 488.99898 555.6211 488.75 555.5625 C 488.50093 555.5039 488.30074 555.46875 488.125 555.46875 C 487.56832 555.46877 487.10152 555.75393 486.75 556.28125 C 485.72457 557.68752 484.62203 559.16604 483.40625 560.71875 C 482.19039 562.2715 480.89351 563.69631 479.53125 565 C 478.16891 566.30372 476.7441 567.36915 475.25 568.21875 C 473.75583 569.06837 472.24021 569.50001 470.6875 569.5 C 469.77928 569.50001 469.00681 569.33888 468.40625 569.03125 C 467.80564 568.72364 467.32029 568.3086 466.96875 567.78125 C 466.61716 567.25392 466.39646 566.62404 466.25 565.90625 C 466.10347 565.18849 466.03123 564.44728 466.03125 563.65625 C 466.03123 563.04103 466.08685 562.16115 466.21875 561.0625 C 466.35056 559.96388 466.56541 558.73537 466.84375 557.34375 C 467.12205 555.95217 467.46482 554.4551 467.875 552.84375 C 468.28514 551.23245 468.75583 549.5762 469.3125 547.90625 C 469.57615 547.90625 469.91892 547.90225 470.34375 547.84375 C 470.76853 547.78515 471.32615 547.67971 472 547.5625 C 472.6738 547.44534 473.48532 547.26566 474.4375 547.03125 C 475.38962 546.79691 476.52731 546.50784 477.875 546.15625 C 478.78316 545.9219 479.72066 545.70316 480.6875 545.46875 C 481.65425 545.23441 482.60641 544.98636 483.5 544.78125 C 484.39352 544.57621 485.19039 544.39457 485.9375 544.21875 C 486.68453 544.043 487.31246 543.93165 487.78125 543.84375 C 488.33785 543.7266 488.88082 543.53031 489.4375 543.28125 C 489.9941 543.03226 490.498 542.70804 490.9375 542.3125 C 491.37691 541.91703 491.72164 541.44828 492 540.90625 C 492.27828 540.3643 492.43746 539.73441 492.4375 539.03125 C 492.43746 538.50394 492.29683 538.07231 492.0625 537.75 C 491.82808 537.42778 491.55367 537.20707 491.1875 537.03125 C 490.82124 536.85551 490.3896 536.72955 489.90625 536.65625 C 489.4228 536.58305 488.93745 536.53129 488.46875 536.53125 C 488.14644 536.53129 487.73335 536.58505 487.25 536.6875 C 486.76656 536.79008 486.20309 536.93266 485.5 537.09375 C 484.79684 537.25492 483.95015 537.45317 482.96875 537.6875 C 481.98727 537.92192 480.81637 538.17387 479.46875 538.4375 C 478.23824 538.67191 477.01169 538.89066 475.78125 539.125 C 474.55075 539.35941 473.1445 539.61136 471.5625 539.875 L 474.75 527.5625 C 474.89643 526.97661 474.96871 526.32622 474.96875 525.59375 C 474.96871 524.91997 474.89445 524.23638 474.71875 523.5625 C 474.54294 522.88872 474.28903 522.30865 473.9375 521.78125 C 473.58591 521.25396 473.11911 520.82233 472.5625 520.5 C 472.00583 520.1778 471.32224 520.00006 470.53125 520 z M 585.0625 533.9375 C 584.21287 533.93754 583.4033 534.10063 582.65625 534.4375 C 581.90916 534.77446 581.45701 535.1895 581.28125 535.6875 C 580.46091 537.9141 579.6865 539.95023 578.96875 541.78125 C 578.25096 543.61234 577.56541 545.37992 576.90625 547.09375 C 576.24705 548.80765 575.59862 550.50295 574.96875 552.1875 C 574.33886 553.87209 573.74022 555.68947 573.125 557.59375 C 572.50975 559.49806 571.88182 561.5547 571.28125 563.78125 C 570.68065 566.00782 570.05077 568.49806 569.40625 571.28125 C 569.25976 571.8379 569.18555 572.3584 569.15625 572.8125 C 569.12695 573.2666 569.125 573.6836 569.125 574.09375 C 569.125 575.61719 569.45312 576.66015 570.15625 577.1875 C 570.85937 577.71484 571.79296 577.96875 572.90625 577.96875 C 573.08202 577.96875 573.30272 577.95015 573.625 577.90625 C 573.94725 577.86235 574.30468 577.76954 574.65625 577.59375 C 575.0078 577.41797 575.33397 577.14942 575.65625 576.8125 C 575.9785 576.47559 576.2285 576.02539 576.375 575.46875 C 576.60936 574.53125 576.8076 573.66797 576.96875 572.90625 C 577.12987 572.14454 577.2578 571.44044 577.375 570.78125 C 577.49217 570.12208 577.5996 569.52344 577.6875 568.9375 C 577.7754 568.35157 577.88475 567.74024 578.03125 567.125 C 578.29491 565.95314 578.63573 564.67482 579.03125 563.3125 C 579.42674 561.95021 579.84178 560.61622 580.28125 559.3125 C 580.72069 558.00881 581.17087 556.81741 581.625 555.71875 C 582.07908 554.62014 582.49608 553.73635 582.90625 553.0625 C 583.49217 552.82815 584.07029 552.48538 584.65625 552.03125 C 585.24216 551.57718 585.85544 551.05667 586.5 550.5 C 587.75974 549.38675 589.07126 548.32132 590.375 547.28125 C 591.67868 546.24124 592.95895 545.32035 594.21875 544.5 C 595.47848 543.67973 596.67184 543.01468 597.84375 542.53125 C 599.01559 542.04788 600.13082 541.81254 601.15625 541.8125 C 602.24019 541.81254 602.97945 542.15531 603.375 542.84375 C 603.77046 543.53227 603.9687 544.34183 603.96875 545.25 C 603.9687 546.21683 603.82613 547.2637 603.5625 548.40625 C 603.29879 549.54885 602.95602 550.74026 602.53125 552 C 602.10641 553.25979 601.6357 554.55861 601.09375 555.90625 C 600.55172 557.25392 599.9941 558.62112 599.4375 559.96875 C 598.73434 561.63869 598.0693 563.26369 597.46875 564.875 C 596.86813 566.48634 596.36032 568.01661 595.90625 569.4375 C 595.45212 570.8584 595.09273 572.15723 594.84375 573.34375 C 594.59469 574.53028 594.46872 575.52344 594.46875 576.34375 C 594.46872 577.28125 594.68551 577.98145 595.125 578.40625 C 595.56442 578.83106 596.35738 579.03125 597.5 579.03125 C 598.23238 579.03125 598.86227 578.95895 599.375 578.8125 C 599.88766 578.66602 600.33786 578.43066 600.71875 578.09375 C 601.09957 577.75683 601.40914 577.30664 601.6875 576.75 C 601.96578 576.19336 602.23629 575.50782 602.5 574.6875 C 603.43746 571.66993 604.46383 568.6963 605.5625 565.78125 C 606.66109 562.86622 607.70406 560.08888 608.65625 557.4375 C 609.60835 554.78615 610.37007 552.28323 611 549.96875 C 611.62983 547.65432 611.9687 545.59769 611.96875 543.78125 C 611.9687 540.61722 611.17573 538.29008 609.59375 536.78125 C 608.01167 535.27251 605.81246 534.50004 603 534.5 C 601.62301 534.50004 600.23336 534.76664 598.8125 535.25 C 597.39157 535.73344 595.96872 536.34868 594.5625 537.125 C 593.15622 537.90141 591.77048 538.78324 590.4375 539.75 C 589.10447 540.71683 587.82419 541.68949 586.59375 542.65625 L 588.53125 538.0625 C 588.64841 537.79887 588.7539 537.54691 588.8125 537.3125 C 588.8711 537.07816 588.875 536.93165 588.875 536.84375 C 588.87497 535.90629 588.53024 535.18559 587.8125 534.6875 C 587.0947 534.1895 586.17576 533.93754 585.0625 533.9375 z M 550.53125 534.5 C 548.59762 534.50004 547.04879 535.11333 545.90625 536.34375 C 544.93942 536.40235 544.00192 536.59867 543.09375 536.90625 C 542.18552 537.21391 541.50192 537.48637 541.0625 537.75 C 538.30856 539.44926 535.9072 541.28714 533.8125 543.25 C 531.71775 545.21292 529.90037 547.2305 528.40625 549.28125 C 526.91209 551.33206 525.70409 553.36819 524.78125 555.375 C 523.85839 557.38186 523.18944 559.27541 522.75 561.0625 C 522.22265 563.17189 521.96875 565.15431 521.96875 567 C 521.96875 568.90431 522.23925 570.63477 522.78125 572.1875 C 523.32324 573.74024 524.12011 575.07423 525.21875 576.1875 C 526.31737 577.30079 527.71971 578.14942 529.375 578.75 C 531.03026 579.35059 532.96287 579.65625 535.21875 579.65625 C 537.59177 579.65625 539.73728 579.31738 541.65625 578.6875 C 543.57516 578.05762 545.32419 577.17383 546.90625 576.03125 C 549.24997 574.36133 551.39352 572.50098 553.3125 570.40625 C 555.23141 568.31153 556.87105 566.09767 558.21875 563.8125 C 559.56636 561.52736 560.61129 559.18361 561.34375 556.78125 C 562.07613 554.37893 562.43745 552.03322 562.4375 549.71875 C 562.43745 548.72268 562.3671 547.8223 562.25 547.03125 C 562.13276 546.24027 561.97163 545.50101 561.78125 544.8125 C 561.59077 544.12406 561.37202 543.49027 561.09375 542.875 C 560.81538 542.2598 560.50972 541.61332 560.1875 540.96875 C 559.16206 538.9766 557.87983 537.40726 556.3125 536.25 C 554.74507 535.09281 552.81636 534.50004 550.53125 534.5 z M 433.21875 536.96875 C 431.69528 536.96879 430.1777 537.12992 428.625 537.4375 C 427.07224 537.74516 425.52146 538.44731 423.96875 539.53125 C 419.95506 542.31449 416.58494 545.65336 413.875 549.59375 C 411.16503 553.53421 409.23828 557.83986 408.125 562.46875 C 407.86133 563.49415 407.69433 564.39649 407.5625 565.1875 C 407.43065 565.97852 407.34374 566.73634 407.34375 567.46875 C 407.34374 569.10939 407.68652 570.55079 408.375 571.78125 C 409.06347 573.01173 410.19726 574.23828 411.75 575.46875 C 412.30663 575.9082 412.95898 576.26758 413.75 576.53125 C 414.54101 576.79492 415.40233 576.90626 416.28125 576.90625 C 417.36521 576.90626 418.50486 576.63183 419.75 576.03125 C 420.9951 575.43066 422.27147 574.69141 423.53125 573.8125 C 424.791 572.9336 425.98434 571.99806 427.15625 571.03125 C 428.32809 570.06446 429.40818 569.23438 430.375 568.53125 C 430.37497 570.28907 430.26754 571.75099 430.0625 572.9375 C 429.85739 574.12403 429.74997 575.1504 429.75 576 C 429.74997 576.41016 429.8184 576.75489 429.90625 577.0625 C 429.99415 577.37012 430.17575 577.65527 430.46875 577.875 C 430.76169 578.09473 431.17672 578.25781 431.71875 578.375 C 432.2607 578.49218 432.99801 578.53125 433.90625 578.53125 C 434.60934 578.53125 435.15426 578.41992 435.59375 578.15625 C 436.03316 577.89258 436.42574 577.58496 436.71875 577.21875 C 437.01168 576.85254 437.21187 576.45801 437.34375 576.0625 C 437.47554 575.667 437.56835 575.32618 437.65625 575.0625 C 437.91989 574.1543 438.0996 573.17969 438.1875 572.125 C 438.2754 571.07031 438.38277 569.91602 438.5 568.65625 L 444.3125 545.5 C 444.54683 544.7969 444.76558 544.09476 445 543.40625 C 445.23433 542.71781 445.37496 542.01176 445.375 541.25 C 445.37496 540.6934 445.2861 540.13773 445.125 539.625 C 444.96382 539.11234 444.69527 538.6768 444.34375 538.28125 C 443.99215 537.88578 443.5234 537.54691 442.9375 537.3125 C 442.35152 537.07816 441.62886 536.96879 440.75 536.96875 C 440.28121 536.96875 439.83102 537.004 439.40625 537.0625 C 438.98141 537.1211 438.42379 537.22856 437.75 537.375 C 437.07613 537.2871 436.33493 537.18165 435.5 537.09375 C 434.66501 537.00595 433.89254 536.96879 433.21875 536.96875 z M 644.53125 536.96875 C 643.00778 536.96879 641.45896 537.12992 639.90625 537.4375 C 638.35349 537.74516 636.80271 538.44731 635.25 539.53125 C 631.23631 542.31449 627.86619 545.65336 625.15625 549.59375 C 622.44628 553.53421 620.55077 557.83986 619.4375 562.46875 C 619.17382 563.49415 618.97557 564.39649 618.84375 565.1875 C 618.71189 565.97852 618.62499 566.73634 618.625 567.46875 C 618.62499 569.10939 618.96776 570.55079 619.65625 571.78125 C 620.34471 573.01173 621.47851 574.23828 623.03125 575.46875 C 623.58788 575.9082 624.27147 576.26758 625.0625 576.53125 C 625.8535 576.79492 626.68358 576.90626 627.5625 576.90625 C 628.64647 576.90626 629.81737 576.63183 631.0625 576.03125 C 632.3076 575.43066 633.55271 574.69141 634.8125 573.8125 C 636.07224 572.9336 637.29685 571.99806 638.46875 571.03125 C 639.64059 570.06446 640.68942 569.23438 641.65625 568.53125 C 641.65622 570.28907 641.5488 571.75099 641.34375 572.9375 C 641.13864 574.12403 641.06247 575.1504 641.0625 576 C 641.06247 576.41016 641.0996 576.75489 641.1875 577.0625 C 641.2754 577.37012 641.457 577.65527 641.75 577.875 C 642.04293 578.09473 642.45797 578.25781 643 578.375 C 643.54196 578.49218 644.27926 578.53125 645.1875 578.53125 C 645.89059 578.53125 646.46676 578.41992 646.90625 578.15625 C 647.34566 577.89258 647.707 577.58496 648 577.21875 C 648.29293 576.85254 648.49312 576.45801 648.625 576.0625 C 648.7568 575.667 648.88085 575.32618 648.96875 575.0625 C 649.23238 574.1543 649.4121 573.17969 649.5 572.125 C 649.5879 571.07031 649.66402 569.91602 649.78125 568.65625 L 655.59375 545.5 C 655.82808 544.7969 656.07808 544.09476 656.3125 543.40625 C 656.54683 542.71781 656.6562 542.01176 656.65625 541.25 C 656.6562 540.6934 656.56735 540.13773 656.40625 539.625 C 656.24507 539.11234 655.97652 538.6768 655.625 538.28125 C 655.2734 537.88578 654.80465 537.54691 654.21875 537.3125 C 653.63277 537.07816 652.91011 536.96879 652.03125 536.96875 C 651.56246 536.96875 651.11226 537.004 650.6875 537.0625 C 650.26265 537.1211 649.73629 537.22856 649.0625 537.375 C 648.38863 537.2871 647.61618 537.18165 646.78125 537.09375 C 645.94626 537.00595 645.20504 536.96879 644.53125 536.96875 z M 511.03125 538.875 C 510.3574 538.87504 509.74803 538.9512 509.25 539.15625 C 508.75193 539.36137 508.3535 539.62797 508.03125 539.90625 C 507.70897 540.18461 507.45701 540.44047 507.28125 540.71875 C 507.10545 540.99711 506.99805 541.19535 506.96875 541.3125 C 506.3535 543.80277 505.70311 546.36331 505 549 C 504.29687 551.63675 503.59472 554.23049 502.90625 556.75 C 502.21776 559.26955 501.55273 561.65041 500.9375 563.90625 C 500.32226 566.16212 499.81445 568.14454 499.375 569.84375 L 498.09375 575 C 498.03515 575.14649 497.9999 575.25781 498 575.375 L 498 575.78125 C 497.99999 576.27929 498.10741 576.81836 498.3125 577.375 C 498.51757 577.93164 498.83983 578.4375 499.25 578.90625 C 499.66015 579.375 500.1328 579.75489 500.71875 580.0625 C 501.30468 580.37012 501.98827 580.53125 502.75 580.53125 C 503.16015 580.53125 503.51952 580.42578 503.8125 580.25 C 504.10546 580.07421 504.35741 579.85742 504.5625 579.59375 C 504.76756 579.33008 504.91405 579.07617 505.03125 578.8125 C 505.14842 578.54883 505.2539 578.33203 505.3125 578.15625 C 506.66014 572.88282 508.04784 567.61915 509.46875 562.375 C 510.88963 557.13088 512.27928 551.90237 513.65625 546.6875 L 514.875 542.03125 C 514.9042 541.94335 514.9375 541.85258 514.9375 541.75 C 514.93748 541.6475 514.93748 541.55665 514.9375 541.46875 C 514.93748 541.02933 514.81346 540.6182 514.59375 540.28125 C 514.374 539.94437 514.08494 539.67386 513.71875 539.46875 C 513.35251 539.26371 512.93747 539.13383 512.46875 539.03125 C 511.99998 538.92874 511.52928 538.87504 511.03125 538.875 z M 551.5 542.34375 C 551.70504 542.87113 551.92379 543.39554 552.1875 543.9375 C 552.45113 544.47952 552.70504 545.00198 552.96875 545.5 C 553.40817 546.32034 553.78413 547.05961 554.0625 547.71875 C 554.34077 548.37796 554.4687 549.08206 554.46875 549.84375 C 554.4687 550.6055 554.37785 551.43558 554.1875 552.34375 C 553.99703 553.25198 553.76363 554.22463 553.5 555.25 C 553.0898 556.89064 552.3857 558.67677 551.375 560.625 C 550.36422 562.57325 549.1191 564.42579 547.625 566.125 C 546.13082 567.82423 544.41891 569.21583 542.5 570.34375 C 540.58103 571.47169 538.50778 572.03126 536.28125 572.03125 C 535.08005 572.03126 534.05369 571.86817 533.21875 571.53125 C 532.38377 571.19435 531.71288 570.7256 531.15625 570.125 C 530.5996 569.52443 530.18651 568.80372 529.9375 567.96875 C 529.68846 567.1338 529.56249 566.24806 529.5625 565.28125 C 529.56249 564.72462 529.58295 564.13185 529.65625 563.53125 C 529.72945 562.93068 529.85545 562.29884 530.03125 561.625 C 530.23631 560.74611 530.61229 559.77345 531.125 558.71875 C 531.63768 557.66408 532.249 556.59866 532.9375 555.5 C 533.62596 554.4014 534.38572 553.33597 535.25 552.28125 C 536.11424 551.22659 537.01658 550.22073 537.96875 549.3125 C 538.92087 548.40432 539.91013 547.61136 540.90625 546.9375 C 541.90232 546.2637 542.87692 545.79105 543.84375 545.46875 C 545.30856 545.3223 546.49801 545.14261 547.40625 544.9375 C 548.31442 544.73245 549.03512 544.49906 549.5625 544.25 C 550.08981 544.00102 550.4863 543.71391 550.75 543.40625 C 551.01364 543.09867 551.26559 542.75394 551.5 542.34375 z M 435.09375 543.25 C 435.59176 543.25003 435.91794 543.44632 436.09375 543.8125 C 436.26953 544.17875 436.34371 544.55667 436.34375 544.9375 C 436.34371 545.81644 436.28605 546.793 436.125 547.90625 C 435.96383 549.01956 435.76559 550.02542 435.53125 550.875 C 435.12106 552.33987 434.45602 553.80178 433.5625 555.28125 C 432.66891 556.76076 431.65719 558.18752 430.5 559.59375 C 429.34274 561.00002 428.08493 562.3506 426.78125 563.625 C 425.47751 564.89942 424.19724 566.03713 422.9375 567.0625 C 421.99997 567.82423 421.00682 568.48927 419.9375 569.03125 C 418.86815 569.57325 417.73046 569.84376 416.5 569.84375 C 415.70897 569.84376 415.17186 569.53615 414.9375 568.90625 C 414.70311 568.27638 414.59373 567.57227 414.59375 566.78125 C 414.59373 566.01954 414.68065 565.23048 414.8125 564.46875 C 414.94432 563.70705 415.03905 563.12892 415.15625 562.71875 C 415.5371 561.25392 416.09471 559.75686 416.8125 558.21875 C 417.53026 556.68069 418.37889 555.20022 419.375 553.75 C 420.37108 552.29983 421.5029 550.93069 422.71875 549.65625 C 423.93454 548.38186 425.21482 547.28128 426.5625 546.34375 C 427.91013 545.40628 429.29977 544.65042 430.75 544.09375 C 432.20016 543.53714 433.65817 543.25003 435.09375 543.25 z M 646.375 543.25 C 646.87302 543.25003 647.19918 543.44632 647.375 543.8125 C 647.55077 544.17875 647.65621 544.55667 647.65625 544.9375 C 647.65621 545.81644 647.56735 546.793 647.40625 547.90625 C 647.24508 549.01956 647.04684 550.02542 646.8125 550.875 C 646.40231 552.33987 645.73727 553.80178 644.84375 555.28125 C 643.95016 556.76076 642.93844 558.18752 641.78125 559.59375 C 640.62399 561.00002 639.39744 562.3506 638.09375 563.625 C 636.79002 564.89942 635.50974 566.03713 634.25 567.0625 C 633.31248 567.82423 632.28807 568.48927 631.21875 569.03125 C 630.1494 569.57325 629.0117 569.84376 627.78125 569.84375 C 626.99022 569.84376 626.48436 569.53615 626.25 568.90625 C 626.01561 568.27638 625.87498 567.57227 625.875 566.78125 C 625.87498 566.01954 625.9619 565.23048 626.09375 564.46875 C 626.22557 563.70705 626.35154 563.12892 626.46875 562.71875 C 626.84959 561.25392 627.37596 559.75686 628.09375 558.21875 C 628.8115 556.68069 629.69139 555.20022 630.6875 553.75 C 631.68357 552.29983 632.78416 550.93069 634 549.65625 C 635.21579 548.38186 636.49607 547.28128 637.84375 546.34375 C 639.19138 545.40628 640.58103 544.65042 642.03125 544.09375 C 643.48141 543.53714 644.93942 543.25003 646.375 543.25 z M 430.15625 627.71875 C 428.77924 627.71881 427.4101 627.78915 426.0625 627.90625 C 424.71479 628.0235 423.30854 628.18854 421.84375 628.4375 C 420.37886 628.68659 418.82808 629.02545 417.1875 629.40625 C 415.54683 629.78717 413.74409 630.22272 411.78125 630.75 C 411.42964 630.86725 410.85347 631.02838 410.0625 631.21875 C 409.27144 631.40924 408.42281 631.60748 407.5 631.8125 C 406.57711 632.01764 405.67673 632.18267 404.8125 632.34375 C 403.94821 632.50494 403.28122 632.629 402.8125 632.6875 L 402.4375 631.71875 C 402.29099 631.36725 401.95212 631.09478 401.46875 630.875 C 400.98532 630.65533 400.09958 630.53131 398.78125 630.53125 C 398.19529 630.53131 397.65427 630.78326 397.15625 631.28125 C 396.65817 631.77935 396.20799 632.35748 395.8125 633.03125 C 395.41697 633.70513 395.0908 634.39068 394.8125 635.09375 C 394.53416 635.79693 394.33591 636.33795 394.21875 636.71875 C 393.83787 637.86139 393.42674 639.06548 393.03125 640.28125 C 392.63572 641.49712 392.21873 642.85161 391.75 644.375 C 391.28123 645.89848 390.77537 647.61235 390.21875 649.53125 C 389.66209 651.45024 389.01561 653.70121 388.3125 656.25 L 386.53125 662.75 C 386.47265 662.95511 386.3857 663.20706 386.3125 663.5 C 386.2392 663.793 386.16502 664.08205 386.0625 664.375 C 385.95994 664.66799 385.85057 664.9219 385.71875 665.15625 C 385.5869 665.39065 385.46092 665.56835 385.34375 665.65625 C 384.23045 666.3887 383.33007 667.11331 382.65625 667.875 C 381.98241 668.63674 381.65624 669.67971 381.65625 670.96875 C 381.65624 671.78908 381.80467 672.47463 382.15625 673.03125 C 382.5078 673.58791 382.86718 674.12697 383.21875 674.625 C 383.21874 675.21096 383.11131 676.04299 382.90625 677.15625 C 382.70116 678.26955 382.48241 679.4961 382.21875 680.84375 C 381.95507 682.19141 381.70506 683.57911 381.5 685 C 381.29491 686.4209 381.18749 687.73633 381.1875 688.9375 C 381.18749 690.37304 381.41893 691.5293 381.84375 692.4375 C 382.26854 693.3457 383.04296 693.81249 384.15625 693.8125 L 385.1875 693.8125 C 385.59764 693.81249 386.04393 693.61426 386.46875 693.21875 C 386.89354 692.82324 387.1289 692.37305 387.1875 691.875 L 391.625 672.6875 C 393.73435 671.72072 395.8281 670.80178 397.9375 669.9375 C 400.04685 669.07326 402.1572 668.3174 404.28125 667.6875 C 406.40524 667.05764 408.53023 666.55373 410.625 666.1875 C 412.71968 665.82131 414.79488 665.65628 416.875 665.65625 C 417.19722 665.65628 417.53608 665.65628 417.84375 665.65625 C 418.15132 665.65625 418.45894 665.6583 418.78125 665.6875 C 419.30855 665.48244 419.72359 665.15823 420.03125 664.71875 C 420.33882 664.27932 420.57222 663.84573 420.71875 663.40625 C 420.86519 662.96682 420.93935 662.58694 420.96875 662.25 C 420.99795 661.91311 421.03125 661.7168 421.03125 661.6875 C 421.0312 660.92581 420.72749 660.34769 420.15625 659.9375 C 419.58491 659.52737 418.91597 659.22171 418.125 659.03125 C 417.33394 658.84085 416.50777 658.7168 415.6875 658.6875 C 414.86714 658.6583 414.21675 658.65625 413.71875 658.65625 C 410.49605 658.65628 407.27047 659.01761 404.0625 659.75 C 400.85447 660.48245 397.62497 661.418 394.34375 662.53125 C 394.46091 662.06253 394.58884 661.48831 394.75 660.84375 C 394.91111 660.19925 395.03515 659.72854 395.09375 659.40625 C 395.15235 659.14261 395.29685 658.58499 395.53125 657.75 C 395.7656 656.91507 396.03806 655.94241 396.375 654.84375 C 396.71189 653.74515 397.07321 652.5723 397.46875 651.3125 C 397.86423 650.05277 398.26071 648.87797 398.65625 647.75 C 399.05173 646.62211 399.44626 645.61431 399.8125 644.75 C 400.17868 643.88579 400.48434 643.28911 400.71875 642.9375 C 401.33395 642.41021 402.18064 641.87309 403.25 641.375 C 404.3193 640.877 405.52731 640.4063 406.875 639.9375 C 408.22262 639.4688 409.66403 639.002 411.1875 638.5625 C 412.7109 638.1231 414.20992 637.72466 415.71875 637.34375 C 417.22749 636.96294 418.67085 636.62018 420.0625 636.3125 C 421.45405 636.00494 422.73042 635.73248 423.84375 635.46875 C 424.54682 635.35162 425.28608 635.22564 426.0625 635.09375 C 426.83881 634.96197 427.56146 634.83599 428.25 634.71875 C 428.93841 634.60162 429.53509 634.4776 430.0625 634.375 C 430.58978 634.27252 430.95111 634.1837 431.15625 634.125 C 431.83002 633.94928 432.42084 633.69536 432.875 633.34375 C 433.32904 632.99224 433.67377 632.61432 433.9375 632.21875 C 434.20111 631.8233 434.38275 631.42681 434.5 631.03125 C 434.61708 630.6358 434.68744 630.32623 434.6875 630.0625 C 434.68744 629.56451 434.57806 629.15143 434.34375 628.84375 C 434.10931 628.5362 433.77044 628.28619 433.375 628.125 C 432.97943 627.96393 432.52533 627.8712 431.96875 627.8125 C 431.41205 627.754 430.80072 627.71875 430.15625 627.71875 z M 615.21875 632.5 C 614.31052 632.50006 613.62497 632.75201 613.15625 633.25 C 612.68747 633.7481 612.36326 634.28716 612.1875 634.84375 C 611.9531 635.54693 611.7939 636.08795 611.75 636.46875 C 611.7061 636.84967 611.6875 637.14068 611.6875 637.375 L 611.6875 637.84375 C 611.6874 638.45903 611.7207 638.92974 611.75 639.28125 C 611.7792 639.63287 611.78125 639.99419 611.78125 640.375 C 611.78123 640.69731 611.72555 641.14556 611.59375 641.6875 C 611.46189 642.22954 611.2656 642.91704 611.03125 643.78125 C 610.79686 644.64555 610.52439 645.69243 610.1875 646.9375 C 609.85056 648.18266 609.47459 649.67583 609.09375 651.375 C 608.97654 651.84379 608.83006 652.29789 608.625 652.78125 C 608.4199 653.26468 608.02537 653.53129 607.46875 653.53125 L 601.59375 653.53125 C 601.15428 653.53129 600.7578 653.65922 600.40625 653.9375 C 600.05467 654.21586 599.75097 654.54202 599.53125 654.9375 C 599.31152 655.33304 599.14843 655.74613 599.03125 656.15625 C 598.91407 656.56644 598.87499 656.89261 598.875 657.15625 C 598.87499 657.83011 599.05858 658.42484 599.46875 658.9375 C 599.87889 659.45023 600.41795 659.89846 601.0625 660.25 C 601.70701 660.60159 602.42772 660.85745 603.21875 661.0625 C 604.00975 661.26761 604.76951 661.4082 605.53125 661.4375 C 604.916 663.86917 604.33787 666.41116 603.78125 669.0625 C 603.22459 671.71389 602.93748 674.25783 602.9375 676.71875 C 602.93748 678.53517 603.22264 680.23047 603.75 681.8125 C 604.27733 683.39453 605.05174 684.78223 606.0625 685.96875 C 607.07322 687.15527 608.30174 688.09277 609.78125 688.78125 C 611.26072 689.46972 612.97068 689.8125 614.875 689.8125 C 616.10545 689.8125 617.36911 689.66993 618.6875 689.40625 C 620.00582 689.14258 621.23043 688.67188 622.34375 687.96875 C 622.98824 687.5586 623.67379 687.10645 624.40625 686.59375 C 625.13863 686.08106 625.82614 685.54004 626.5 684.96875 C 627.17379 684.39746 627.80367 683.80274 628.375 683.1875 C 628.94625 682.57227 629.39839 681.92579 629.75 681.28125 C 630.77534 679.43556 631.79976 677.61232 632.78125 675.78125 C 633.76265 673.95022 634.46871 672.12893 634.9375 670.3125 C 634.9667 670.19534 635 670.01565 635 669.78125 C 634.99995 669.45901 634.9111 669.1719 634.75 668.9375 C 634.58882 668.70315 634.39058 668.52151 634.15625 668.375 C 633.92183 668.22854 633.68648 668.1211 633.4375 668.0625 C 633.18843 668.0039 632.95699 667.96875 632.78125 667.96875 C 632.22457 667.96877 631.78902 668.25393 631.4375 668.78125 C 630.41206 670.18752 629.27828 671.66604 628.0625 673.21875 C 626.84664 674.7715 625.54977 676.19631 624.1875 677.5 C 622.82516 678.80372 621.40035 679.86915 619.90625 680.71875 C 618.41207 681.56837 616.89646 682.00001 615.34375 682 C 614.43552 682.00001 613.69431 681.83888 613.09375 681.53125 C 612.49314 681.22364 612.00779 680.8086 611.65625 680.28125 C 611.30466 679.75392 611.05271 679.12404 610.90625 678.40625 C 610.75972 677.68849 610.68748 676.94728 610.6875 676.15625 C 610.68748 675.54103 610.7432 674.66115 610.875 673.5625 C 611.00682 672.46388 611.22166 671.23537 611.5 669.84375 C 611.7783 668.45217 612.12107 666.9551 612.53125 665.34375 C 612.94138 663.73245 613.41208 662.0762 613.96875 660.40625 C 614.23239 660.40625 614.57517 660.40225 615 660.34375 C 615.42478 660.28515 615.9824 660.17971 616.65625 660.0625 C 617.33005 659.94534 618.14157 659.76566 619.09375 659.53125 C 620.04586 659.29691 621.21482 659.00784 622.5625 658.65625 C 623.47067 658.4219 624.40817 658.20316 625.375 657.96875 C 626.34176 657.73441 627.26266 657.48636 628.15625 657.28125 C 629.04977 657.07621 629.87789 656.89457 630.625 656.71875 C 631.37203 656.543 631.96871 656.43165 632.4375 656.34375 C 632.9941 656.2266 633.53707 656.03031 634.09375 655.78125 C 634.65035 655.53226 635.15425 655.20804 635.59375 654.8125 C 636.03316 654.41703 636.40913 653.94828 636.6875 653.40625 C 636.96577 652.8643 637.0937 652.23441 637.09375 651.53125 C 637.0937 651.00394 636.98433 650.57231 636.75 650.25 C 636.51558 649.92778 636.20991 649.70707 635.84375 649.53125 C 635.47749 649.35551 635.04585 649.22955 634.5625 649.15625 C 634.07905 649.08305 633.62496 649.03129 633.15625 649.03125 C 632.83394 649.03129 632.42085 649.08505 631.9375 649.1875 C 631.45406 649.29008 630.85934 649.43266 630.15625 649.59375 C 629.45309 649.75492 628.6064 649.95317 627.625 650.1875 C 626.64351 650.42192 625.47261 650.67387 624.125 650.9375 C 622.89449 651.17191 621.66793 651.39066 620.4375 651.625 C 619.207 651.85941 617.80075 652.11136 616.21875 652.375 L 619.4375 640.0625 C 619.58392 639.47661 619.65622 638.82622 619.65625 638.09375 C 619.65622 637.41997 619.55075 636.73638 619.375 636.0625 C 619.19919 635.38872 618.94528 634.80865 618.59375 634.28125 C 618.24215 633.75396 617.77536 633.32233 617.21875 633 C 616.66208 632.6778 616.00974 632.50006 615.21875 632.5 z M 457.1875 647 C 455.25388 647.00004 453.70504 647.61333 452.5625 648.84375 C 451.59567 648.90235 450.65817 649.09867 449.75 649.40625 C 448.84176 649.71391 448.18943 649.98637 447.75 650.25 C 444.99607 651.94926 442.56346 653.78714 440.46875 655.75 C 438.37401 657.71292 436.58788 659.7305 435.09375 661.78125 C 433.5996 663.83206 432.39159 665.86819 431.46875 667.875 C 430.54589 669.88186 429.84569 671.77541 429.40625 673.5625 C 428.87889 675.67189 428.62499 677.65431 428.625 679.5 C 428.62499 681.40431 428.8955 683.13477 429.4375 684.6875 C 429.97948 686.24024 430.8076 687.57423 431.90625 688.6875 C 433.00487 689.80079 434.37596 690.64942 436.03125 691.25 C 437.6865 691.85059 439.61913 692.15625 441.875 692.15625 C 444.24803 692.15625 446.42478 691.81738 448.34375 691.1875 C 450.26267 690.55762 452.01169 689.67383 453.59375 688.53125 C 455.93746 686.86133 458.04977 685.00098 459.96875 682.90625 C 461.88765 680.81153 463.5273 678.59767 464.875 676.3125 C 466.22261 674.02736 467.26753 671.68361 468 669.28125 C 468.73237 666.87893 469.0937 664.53322 469.09375 662.21875 C 469.0937 661.22268 469.02335 660.3223 468.90625 659.53125 C 468.78902 658.74027 468.65913 658.00101 468.46875 657.3125 C 468.27827 656.62406 468.02827 655.99027 467.75 655.375 C 467.47163 654.7598 467.16597 654.11332 466.84375 653.46875 C 465.81832 651.4766 464.53609 649.90726 462.96875 648.75 C 461.40133 647.59281 459.47262 647.00004 457.1875 647 z M 582.15625 647.53125 C 581.18943 647.53129 580.27048 647.63871 579.40625 647.84375 C 578.54196 648.04887 577.70994 648.33598 576.875 648.6875 C 576.04002 649.0391 575.19529 649.47075 574.375 649.96875 C 573.55467 650.46684 572.72264 651.0098 571.84375 651.625 C 570.64256 652.21097 569.47361 652.93363 568.375 653.8125 C 567.27635 654.69144 566.30174 655.62698 565.4375 656.59375 C 564.57323 657.56058 563.88768 658.51859 563.375 659.5 C 562.86229 660.48147 562.59374 661.36331 562.59375 662.125 C 562.59374 662.59377 562.64545 663.02738 562.71875 663.4375 C 562.79195 663.84769 562.8828 664.27737 563 664.6875 C 563.23436 665.65433 563.61034 666.50296 564.09375 667.25 C 564.57713 667.9971 565.1201 668.66213 565.75 669.21875 C 566.37987 669.77541 567.04881 670.26271 567.78125 670.6875 C 568.51365 671.11232 569.26951 671.45705 570.03125 671.75 L 571.53125 672.375 C 572.26365 672.66799 573.05662 672.9922 573.90625 673.34375 C 574.75584 673.69533 575.5488 674.05861 576.28125 674.46875 C 577.01365 674.87892 577.61033 675.32717 578.09375 675.78125 C 578.57712 676.23537 578.81247 676.72071 578.8125 677.21875 C 578.81247 677.48243 578.7754 677.77345 578.6875 678.125 C 578.54099 678.76954 577.94431 679.39943 576.875 680 C 575.80564 680.6006 574.52536 681.12501 573.03125 681.59375 C 571.53709 682.06251 569.93455 682.45704 568.25 682.75 C 566.56541 683.04297 565.03318 683.18751 563.65625 683.1875 C 563.18748 683.1875 562.8242 683.15225 562.53125 683.09375 C 562.23827 683.03515 561.95312 682.97955 561.71875 682.90625 C 561.48437 682.83305 561.28416 682.7461 561.09375 682.6875 C 560.90331 682.6289 560.70311 682.59375 560.46875 682.59375 C 560.20507 682.59376 559.90136 682.71778 559.59375 682.9375 C 559.28613 683.15723 559.01366 683.41114 558.75 683.71875 C 558.48632 684.02637 558.26953 684.38379 558.09375 684.75 C 557.91798 685.11621 557.81249 685.42578 557.8125 685.71875 C 557.81249 686.30469 558.04784 686.91407 558.53125 687.5 C 559.01464 688.08594 559.62597 688.57715 560.34375 689.03125 C 561.06152 689.48535 561.83788 689.87793 562.6875 690.15625 C 563.5371 690.43457 564.32811 690.5625 565.03125 690.5625 C 566.43748 690.5625 567.97166 690.34765 569.65625 689.9375 C 571.3408 689.52734 573.03416 689.00098 574.71875 688.3125 C 576.4033 687.62403 578.00974 686.79785 579.5625 685.875 C 581.1152 684.95215 582.48239 683.96094 583.625 682.90625 C 583.80075 682.75977 584.01754 682.45411 584.28125 682 C 584.54489 681.54591 584.78219 681.04005 585.03125 680.46875 C 585.28024 679.89747 585.53023 679.33595 585.75 678.75 C 585.96969 678.16408 586.13085 677.65821 586.21875 677.21875 C 586.3359 676.72071 586.41015 676.25587 586.46875 675.875 C 586.52735 675.49415 586.5625 675.13087 586.5625 674.75 C 586.56247 673.959 586.45309 673.27346 586.21875 672.6875 C 585.98434 672.10158 585.62692 671.56252 585.1875 671.09375 C 584.74801 670.62502 584.22359 670.20803 583.59375 669.8125 C 582.96383 669.41702 582.25973 669.00392 581.46875 668.59375 C 580.88278 668.3008 580.18063 667.97658 579.375 667.625 C 578.5693 667.27346 577.72459 666.91409 576.875 666.5625 C 576.02537 666.21096 575.20994 665.85159 574.375 665.5 C 573.54002 665.14847 572.80076 664.82034 572.15625 664.46875 C 571.65818 664.2344 571.2285 663.94729 570.90625 663.625 C 570.58397 663.30276 570.43748 662.90432 570.4375 662.40625 C 570.43748 661.93753 570.65428 661.41507 571.09375 660.84375 C 571.53319 660.27249 572.09471 659.67972 572.8125 659.09375 C 573.53025 658.50784 574.35642 657.93167 575.25 657.375 C 576.14353 656.81839 577.06247 656.33109 578 655.90625 C 578.93747 655.48148 579.85642 655.15531 580.75 654.90625 C 581.64352 654.65726 582.41989 654.53128 583.09375 654.53125 C 583.65036 654.53128 584.11911 654.67387 584.5 654.9375 C 584.88083 655.20121 585.24215 655.47367 585.59375 655.78125 C 585.94527 656.0889 586.34176 656.36136 586.78125 656.625 C 587.22067 656.88871 587.76364 657.03128 588.4375 657.03125 C 588.84762 657.03128 589.20699 656.84964 589.5 656.46875 C 589.79293 656.08792 590.04488 655.62112 590.25 655.09375 C 590.45504 654.56644 590.5996 654.05863 590.6875 653.53125 C 590.7753 653.00395 590.81246 652.5723 590.8125 652.25 C 590.81246 651.19535 590.53999 650.34868 589.96875 649.71875 C 589.39742 649.08891 588.69332 648.60356 587.84375 648.28125 C 586.9941 647.95903 586.0566 647.7754 585.03125 647.6875 C 584.00582 647.5997 583.03513 647.53129 582.15625 647.53125 z M 486.75 647.9375 C 485.87107 647.93754 485.23924 648.13579 484.84375 648.53125 C 484.44822 648.9268 484.1035 649.66801 483.78125 650.78125 C 483.57615 651.54301 483.39842 652.40433 483.28125 653.3125 C 483.16407 654.22074 483.12498 655.12308 483.125 656.03125 C 483.12498 656.29495 483.12498 656.53031 483.125 656.75 C 483.1249 656.96976 483.12705 657.23831 483.15625 657.53125 C 482.80468 659.55276 482.37303 661.75588 481.875 664.1875 C 481.37694 666.61916 480.87108 669.10549 480.34375 671.625 C 479.8164 674.14455 479.31053 676.63282 478.8125 679.09375 C 478.31444 681.55469 477.88085 683.82423 477.5 685.875 C 477.35347 686.40235 477.28124 686.90821 477.28125 687.40625 C 477.28124 688.49024 477.57226 689.41309 478.1875 690.21875 C 478.80273 691.02442 479.73827 691.4375 480.96875 691.4375 C 481.75975 691.4375 482.43065 691.27637 483.03125 690.96875 C 483.63182 690.66114 484.11522 690.31445 484.4375 689.875 C 484.73045 689.17187 484.91015 688.3457 484.96875 687.4375 C 485.02735 686.5293 485.03125 685.62891 485.03125 684.75 L 485.03125 683.65625 C 485.73436 680.72657 486.46971 677.93068 487.1875 675.25 C 487.90525 672.56935 488.53904 670.02932 489.125 667.65625 C 489.8574 666.66018 490.70603 665.55764 491.6875 664.3125 C 492.66892 663.06741 493.7656 661.87991 494.9375 660.78125 C 496.10934 659.68265 497.37107 658.76175 498.71875 658 C 500.06638 657.23831 501.47458 656.84378 502.96875 656.84375 C 503.1152 656.84385 503.29293 656.8605 503.46875 656.875 C 503.64449 656.8897 503.79098 656.9082 503.9375 656.9375 C 504.0254 657.0254 504.15133 657.22172 504.3125 657.5 C 504.4736 657.77836 504.65328 658.08402 504.84375 658.40625 C 505.03414 658.72855 505.24899 659.05277 505.46875 659.375 C 505.68844 659.6973 505.88863 659.918 506.09375 660.09375 C 506.56246 660.50394 507.15719 660.84476 507.875 661.09375 C 508.59273 661.3428 509.18941 661.46877 509.6875 661.46875 C 510.18551 661.46877 510.6523 661.34084 511.0625 661.0625 C 511.47261 660.7842 511.81734 660.42483 512.125 660 C 512.43257 659.57522 512.69918 659.10647 512.875 658.59375 C 513.05078 658.08108 513.12495 657.59573 513.125 657.15625 C 513.12495 656.0137 512.78413 654.91117 512.125 653.8125 C 511.46577 652.7139 510.65426 651.79496 509.6875 651.0625 C 509.10152 650.62308 508.50484 650.28032 507.875 650.03125 C 507.24508 649.78227 506.6484 649.58403 506.0625 649.4375 C 505.56442 649.29106 505.07711 649.18165 504.59375 649.09375 C 504.11032 649.00595 503.59176 648.93754 503.09375 648.9375 C 501.83395 648.93754 500.62594 649.18754 499.46875 649.65625 C 498.31149 650.12504 497.22751 650.71977 496.1875 651.4375 C 495.14743 652.15531 494.17283 652.95024 493.25 653.84375 C 492.32713 654.73734 491.44529 655.61918 490.625 656.46875 C 490.6249 656.17582 490.62705 655.77933 490.65625 655.28125 C 490.68545 654.78324 490.71875 654.31644 490.71875 653.90625 C 490.71872 653.14457 490.68165 652.40532 490.59375 651.6875 C 490.50585 650.96977 490.29295 650.33793 490 649.78125 C 489.70701 649.22465 489.32517 648.77446 488.8125 648.4375 C 488.29978 648.10063 487.59959 647.93754 486.75 647.9375 z M 540.25 651.1875 C 538.25778 651.18754 536.36618 651.51372 534.59375 652.1875 C 532.82126 652.86137 531.16306 653.7432 529.625 654.8125 C 528.08689 655.88187 526.68065 657.07132 525.40625 658.375 C 524.13182 659.67874 522.99608 660.96097 522 662.25 C 521.00389 663.53909 520.17381 664.74515 519.5 665.84375 C 518.82616 666.94241 518.32225 667.82424 518 668.46875 C 516.8867 668.76174 515.98632 669.33987 515.3125 670.21875 C 514.63867 671.09768 514.31249 672.17775 514.3125 673.4375 C 514.31249 674.08205 514.47558 674.56935 514.8125 674.90625 C 515.14941 675.24318 515.52538 675.4414 515.90625 675.5 C 515.52538 677.19923 515.31249 678.71681 515.3125 680.09375 C 515.31249 681.79298 515.57909 683.26759 516.0625 684.46875 C 516.54589 685.66993 517.16112 686.67969 517.9375 687.5 C 518.71385 688.32032 519.59764 688.9707 520.59375 689.46875 C 521.58983 689.9668 522.59959 690.33008 523.625 690.59375 C 524.65037 690.85742 525.64159 691.0371 526.59375 691.125 C 527.54588 691.2129 528.35936 691.28125 529.0625 691.28125 C 532.69529 691.28125 536.13571 690.74414 539.34375 689.71875 C 542.55172 688.69336 545.67184 686.9961 548.71875 684.59375 C 549.39253 684.03712 549.96675 683.35548 550.40625 682.59375 C 550.84566 681.83204 551.13472 681.07423 551.28125 680.3125 C 551.31045 680.16603 551.32905 680.00099 551.34375 679.78125 C 551.35875 679.56153 551.3437 679.32813 551.34375 679.09375 C 551.3437 678.6836 551.26755 678.30372 551.0625 677.9375 C 550.85738 677.5713 550.38863 677.37501 549.65625 677.375 C 548.92379 677.37501 548.0771 677.61036 547.125 678.09375 C 546.17281 678.57716 545.1484 679.17189 544.09375 679.875 C 543.2734 680.43165 542.37106 680.99122 541.375 681.5625 C 540.37887 682.13379 539.31539 682.67286 538.1875 683.15625 C 537.05954 683.63965 535.88474 684.03614 534.625 684.34375 C 533.36521 684.65137 532.03317 684.8125 530.65625 684.8125 C 528.28318 684.8125 526.44139 684.34375 525.09375 683.40625 C 523.74608 682.46875 523.06248 681.13673 523.0625 679.4375 C 523.06248 678.67579 523.1533 677.89943 523.34375 677.09375 C 523.53416 676.2881 523.76756 675.62111 524.03125 675.09375 C 525.23241 674.97658 526.6406 674.81349 528.28125 674.59375 C 529.92185 674.37404 531.63376 674.06642 533.40625 673.65625 C 535.17868 673.24611 536.94626 672.709 538.71875 672.09375 C 540.49118 671.47854 542.14742 670.73537 543.65625 669.8125 C 545.165 668.88967 546.48043 667.79299 547.59375 666.5625 C 548.70699 665.33206 549.4648 663.89065 549.875 662.25 C 550.13863 661.34183 550.24995 660.40237 550.25 659.40625 C 550.24995 658.2344 550.06636 657.13578 549.65625 656.125 C 549.24605 655.11429 548.63277 654.26371 547.8125 653.53125 C 546.99214 652.79887 545.94723 652.22269 544.6875 651.8125 C 543.4277 651.40238 541.94919 651.18754 540.25 651.1875 z M 458.15625 654.84375 C 458.36129 655.37113 458.58004 655.89554 458.84375 656.4375 C 459.10738 656.97952 459.39254 657.50198 459.65625 658 C 460.09566 658.82034 460.44039 659.55961 460.71875 660.21875 C 460.99703 660.87796 461.12496 661.58206 461.125 662.34375 C 461.12496 663.1055 461.0341 663.93558 460.84375 664.84375 C 460.65328 665.75198 460.41989 666.72463 460.15625 667.75 C 459.74606 669.39064 459.04195 671.17677 458.03125 673.125 C 457.02047 675.07325 455.77536 676.92579 454.28125 678.625 C 452.78708 680.32423 451.07517 681.71583 449.15625 682.84375 C 447.23728 683.97169 445.16404 684.53126 442.9375 684.53125 C 441.73631 684.53126 440.74119 684.36817 439.90625 684.03125 C 439.07127 683.69435 438.36912 683.2256 437.8125 682.625 C 437.25584 682.02443 436.84276 681.30372 436.59375 680.46875 C 436.34472 679.6338 436.21873 678.74806 436.21875 677.78125 C 436.21873 677.22462 436.27045 676.63185 436.34375 676.03125 C 436.41695 675.43068 436.54295 674.79884 436.71875 674.125 C 436.92381 673.24611 437.26854 672.27345 437.78125 671.21875 C 438.29393 670.16408 438.90525 669.09866 439.59375 668 C 440.2822 666.9014 441.04197 665.83597 441.90625 664.78125 C 442.77048 663.72659 443.67283 662.72073 444.625 661.8125 C 445.57712 660.90432 446.56638 660.11136 447.5625 659.4375 C 448.55857 658.7637 449.53317 658.29105 450.5 657.96875 C 451.96481 657.8223 453.15426 657.64261 454.0625 657.4375 C 454.97067 657.23245 455.69137 656.99906 456.21875 656.75 C 456.74605 656.50102 457.14254 656.21391 457.40625 655.90625 C 457.66988 655.59867 457.92184 655.25394 458.15625 654.84375 z M 538.9375 658.09375 C 539.75778 658.09378 540.44528 658.29202 541.03125 658.6875 C 541.61715 659.08304 541.90621 659.67777 541.90625 660.46875 C 541.90621 660.61527 541.90621 660.72659 541.90625 660.84375 C 541.90625 660.96097 541.8709 661.10354 541.8125 661.25 C 541.57809 662.09964 541.05563 662.90921 540.25 663.65625 C 539.4443 664.40334 538.39743 665.05569 537.09375 665.65625 C 535.79001 666.25686 534.25778 666.76077 532.5 667.15625 C 530.74216 667.55178 528.8281 667.85549 526.71875 668.03125 C 527.18748 667.09377 527.83787 666.03225 528.6875 664.875 C 529.53708 663.7178 530.49509 662.63577 531.59375 661.625 C 532.69236 660.61429 533.87985 659.76761 535.125 659.09375 C 536.37008 658.41995 537.64841 658.09378 538.9375 658.09375 z "
       style="font-size:90px;font-style:normal;font-variant:normal;font-weight:normal;font-stretch:normal;text-align:center;line-height:125%;letter-spacing:0px;word-spacing:0px;text-anchor:middle;fill:#eeea86;fill-opacity:1;stroke:none;font-family:MV Boli;-inkscape-font-specification:MV Boli"
       id="path3853"
       d="m 401.5,506.1875 c -0.8354,1.4e-4 -1.64138,0.40235 -2.15625,0.96875 -0.43534,0.47886 -0.75864,1.0561 -1,1.6875 -0.22252,0.58183 -0.39834,1.22477 -0.53125,1.90625 -0.12294,0.62975 -0.23547,1.2268 -0.3125,1.8125 -0.0761,0.57835 -0.12406,1.10939 -0.15625,1.59375 -0.0284,0.42453 -0.0305,0.70416 -0.0312,0.90625 -1.1e-4,0.0278 -10e-6,0.10228 0,0.125 -0.0853,0.96588 -0.27605,2.09675 -0.5,3.46875 -0.23158,1.41807 -0.47793,2.91823 -0.78125,4.40625 -0.30876,1.51407 -0.60799,2.95644 -0.9375,4.375 -0.33103,1.42464 -0.67382,2.69329 -0.96875,3.84375 a 1.472685,1.472685 0 0 0 0,0.0312 c -1.17035,4.65188 -2.1968,8.65845 -3.15625,12.03125 -0.96336,3.38618 -1.85869,6.29914 -2.65625,8.75 -0.79769,2.45091 -1.53497,4.52428 -2.1875,6.25 -0.65843,1.74103 -1.26776,3.30603 -1.8125,4.625 a 1.472685,1.472685 0 0 0 0,0.0625 c -0.16103,0.45073 -0.35828,1.02664 -0.53125,1.71875 -0.12149,0.48584 -0.22726,0.95823 -0.34375,1.4375 -0.30233,-0.46614 -0.59762,-0.94044 -0.875,-1.4375 -0.33494,-0.59999 -0.62892,-1.13071 -0.90625,-1.625 -0.004,-0.008 0.004,-0.0229 0,-0.0312 -1.61118,-2.99414 -3.0489,-6.07396 -4.3125,-9.21875 -1.28089,-3.18752 -2.43933,-6.2676 -3.46875,-9.3125 -1.03461,-3.05995 -1.98249,-6.00955 -2.84375,-8.8125 -0.86612,-2.81839 -1.6527,-5.34772 -2.40625,-7.59375 -0.76074,-2.26715 -1.51842,-4.19602 -2.25,-5.78125 -0.72027,-1.56046 -1.49306,-2.69847 -2.5625,-3.46875 l 0.0312,-0.0312 c -0.0522,-0.0474 -0.13433,-0.0776 -0.1875,-0.125 -0.65255,-0.58159 -1.36856,-1.16013 -2.15625,-1.71875 -1.05643,-0.74901 -2.30759,-1.12492 -3.59375,-1.125 -1.29711,7e-5 -2.52843,0.27938 -3.53125,0.96875 -0.88802,0.61057 -1.56568,1.38752 -2.09375,2.25 -0.50498,0.82482 -0.91948,1.7378 -1.21875,2.71875 -0.26276,0.86125 -0.47624,1.66716 -0.65625,2.4375 -0.007,0.0301 -0.0243,0.0638 -0.0312,0.0937 l -13,42 a 1.472685,1.472685 0 0 0 -0.0312,0.0937 l -1.125,4.5 0,0.0312 c -0.31346,1.19524 -0.5436,2.05879 -0.6875,2.5625 -0.15959,0.5584 -0.28127,0.96302 -0.28125,1.5 -2e-5,0.70705 0.19604,1.36368 0.46875,2 0.27866,0.65022 0.64207,1.21114 1.03125,1.71875 0.41407,0.54009 0.89171,1.03357 1.46875,1.4375 0.61432,0.43001 1.35683,0.71875 2.15625,0.71875 1.08353,0 2.1412,-0.44896 3.03125,-1.1875 0.95693,-0.79407 1.61808,-1.91041 2.03125,-3.21875 a 1.472685,1.472685 0 0 0 0,-0.0625 c 0.0897,-0.3287 0.28162,-0.94153 0.59375,-1.90625 0.32134,-0.99327 0.67841,-2.11768 1.0625,-3.34375 0.37729,-1.20448 0.7728,-2.41568 1.15625,-3.625 0.37743,-1.19039 0.71002,-2.15884 0.96875,-2.90625 0.32883,-0.98653 0.72058,-2.26139 1.21875,-3.84375 0.49978,-1.58757 1.03474,-3.31928 1.59375,-5.1875 0.55748,-1.8632 1.11951,-3.76233 1.71875,-5.75 0.60069,-1.9926 1.17103,-3.91855 1.6875,-5.71875 0.51381,-1.79104 0.96677,-3.39832 1.375,-4.8125 0.40922,-1.4177 0.75538,-2.52003 0.96875,-3.3125 l -0.0312,0 c 0.0675,-0.23708 0.19347,-0.66866 0.40625,-1.40625 0.21324,-0.7393 0.46534,-1.47435 0.71875,-2.25 0.0279,0.10004 0.0351,0.21636 0.0625,0.3125 0.006,0.0208 0.0254,0.042 0.0312,0.0625 l 0.21875,0.9375 a 1.472685,1.472685 0 0 0 0,0.0312 c 0.94162,3.61949 2.01058,7.3928 3.15625,11.34375 1.15446,3.98156 2.47488,7.92263 3.96875,11.8125 1.50045,3.90722 3.19046,7.63531 5.09375,11.21875 1.92106,3.61708 4.11282,6.87582 6.59375,9.75 0.67344,0.79238 1.57391,1.3857 2.59375,1.65625 0.83567,0.22174 1.66258,0.3125 2.46875,0.3125 1.40348,0 2.73446,-0.38774 3.875,-1.09375 1.0673,-0.66075 2.01457,-1.51781 2.84375,-2.5625 0.79363,-1.00006 1.50729,-2.10845 2.125,-3.34375 0.59793,-1.19598 1.11063,-2.38781 1.5625,-3.5625 0.99812,-2.52481 1.90544,-4.89227 2.71875,-7.125 0.81059,-2.22561 1.562,-4.33649 2.25,-6.3125 0.691,-1.98496 1.3287,-3.89743 1.90625,-5.71875 0.57076,-1.80025 1.12653,-3.54332 1.65625,-5.25 0.2988,-0.98622 0.63808,-2.20959 1.0625,-3.6875 0.4274,-1.48873 0.90341,-3.12329 1.375,-4.90625 0.47381,-1.79182 0.91905,-3.65257 1.375,-5.59375 0.45563,-1.94033 0.87852,-3.86171 1.25,-5.71875 0.3727,-1.86384 0.6696,-3.57575 0.90625,-5.1875 0.23978,-1.63398 0.37491,-3.08038 0.375,-4.34375 -9e-5,-1.94245 -0.24531,-3.53903 -0.8125,-4.875 -0.49376,-1.16246 -1.05616,-2.19836 -1.6875,-3.0625 a 1.472685,1.472685 0 0 0 -0.5625,-0.46875 c -0.59729,-0.28095 -1.24939,-0.48453 -1.96875,-0.625 -0.64873,-0.12645 -1.23422,-0.21865 -1.8125,-0.21875 z m 279.28125,3.25 c -1.24338,9e-5 -2.43867,0.58257 -3.21875,1.53125 -0.68411,0.83208 -1.19801,1.81092 -1.5625,2.9375 -0.34975,1.08108 -0.62305,2.26549 -0.78125,3.53125 -0.13788,1.10291 -0.22698,2.1166 -0.3125,3.0625 -8.6e-4,0.01 8.6e-4,0.0217 0,0.0312 L 663.5625,565.5 c -0.15931,0.60531 -0.28758,1.2979 -0.4375,2.0625 -0.15143,0.77226 -0.27563,1.54103 -0.40625,2.28125 -0.13254,0.75106 -0.28141,1.48575 -0.375,2.21875 -0.094,0.73661 -0.12501,1.35976 -0.125,1.90625 -10e-6,0.66552 0.0988,1.36372 0.3125,2.09375 0.22407,0.76561 0.58164,1.5217 1.0625,2.1875 0.50229,0.69549 1.16055,1.25873 1.90625,1.6875 0.83822,0.482 1.78786,0.68749 2.78125,0.6875 1.23858,-10e-6 2.45746,-0.47614 3.3125,-1.375 0.73115,-0.76867 1.25073,-1.6811 1.625,-2.71875 0.36642,-1.01606 0.62161,-2.11066 0.75,-3.25 0.1211,-1.07471 0.18748,-2.07385 0.1875,-3.03125 l 0,-0.84375 c 0.14262,-0.99853 0.33465,-2.29269 0.625,-3.875 0.28719,-1.56525 0.66166,-3.24044 1.09375,-4.96875 l 11,-44.03125 a 1.472685,1.472685 0 0 0 0,-0.0625 c 0.0516,-0.25784 0.11182,-0.51633 0.1875,-0.78125 0.12026,-0.42124 0.18745,-0.82881 0.1875,-1.21875 -5e-5,-0.86178 -0.3248,-1.6949 -0.84375,-2.34375 -0.44911,-0.56124 -1.02076,-1.06858 -1.6875,-1.46875 -0.62038,-0.37212 -1.26297,-0.66737 -1.9375,-0.875 -0.65431,-0.20131 -1.31062,-0.34366 -2,-0.34375 z m -163.96875,7.78125 c -0.7083,1.2e-4 -1.1956,0.17457 -1.90625,0.40625 -0.73324,0.23915 -1.37704,0.51098 -1.96875,0.84375 a 1.472685,1.472685 0 0 0 -0.15625,0.0937 c -1.12566,0.81872 -1.99204,1.79652 -2.5,2.96875 -0.40841,0.94248 -0.70267,1.77617 -0.875,2.5 -0.0635,0.25385 -0.10421,0.51739 -0.15625,0.8125 -0.0634,0.35984 -0.0937,0.71487 -0.0937,1.09375 0,0.27912 0.0348,0.57292 0.0937,0.90625 0.13407,0.76066 0.44286,1.1523 0.8125,1.65625 0.60954,0.8342 1.12122,1.42146 1.78125,1.84375 0.67665,0.43319 1.46498,0.59382 2.34375,0.59375 0.72741,7e-5 1.45855,-0.14411 2.25,-0.375 0.83203,-0.24263 1.61438,-0.58555 2.34375,-1 0.76866,-0.4367 1.44825,-0.96234 2.03125,-1.5625 0.62582,-0.64421 1.11914,-1.41705 1.375,-2.3125 a 1.472685,1.472685 0 0 0 0.0312,-0.0625 c 0.0591,-0.23635 0.12805,-0.5132 0.21875,-0.90625 0.12209,-0.52953 0.15622,-1.07842 0.15625,-1.625 -4e-5,-0.83335 -0.14335,-1.61815 -0.46875,-2.3125 -0.34866,-0.74364 -1.10096,-1.17051 -1.875,-1.40625 -0.21839,-0.26287 -0.45989,-0.52232 -0.6875,-0.75 -0.31382,-0.3137 -0.65678,-0.59401 -1.03125,-0.84375 -0.48466,-0.32299 -1.06597,-0.56239 -1.71875,-0.5625 z m -46.28125,1.3125 c -1.18051,8e-5 -2.33503,0.37945 -3.125,1.21875 -0.58974,0.62663 -1.02869,1.34847 -1.28125,2.125 -0.004,0.0134 -0.027,0.0178 -0.0312,0.0312 -0.24829,0.74931 -0.4067,1.36803 -0.46875,1.90625 -0.0482,0.41866 -0.0625,0.75025 -0.0625,1.0625 l 0,0.46875 c -10e-5,0.61883 -0.006,1.10885 0.0312,1.5625 0.03,0.36072 0.0625,0.67378 0.0625,0.96875 0,0.0578 -0.0646,0.46366 -0.1875,0.96875 -0.13276,0.54572 -0.27157,1.22015 -0.5,2.0625 -0.2289,0.84407 -0.53418,1.89667 -0.875,3.15625 -0.34604,1.27879 -0.71465,2.77792 -1.09375,4.46875 -0.002,0.0112 0.003,0.0201 0,0.0312 -0.0752,0.29303 -0.19075,0.62947 -0.34375,1 l -5.75,0 c -0.72516,7e-5 -1.49193,0.24236 -2.09375,0.71875 -0.50021,0.39603 -0.91498,0.89073 -1.21875,1.4375 -0.28088,0.50561 -0.48042,1.02525 -0.625,1.53125 -0.13107,0.4588 -0.25002,0.88068 -0.25,1.40625 -10e-6,0.98686 0.33696,1.93691 0.9375,2.6875 0.54179,0.67731 1.22776,1.24927 2.03125,1.6875 0.76842,0.41918 1.59088,0.74119 2.46875,0.96875 0.30544,0.0792 0.62608,0.0954 0.9375,0.15625 -0.48062,1.98249 -0.96216,3.97841 -1.40625,6.09375 -0.57466,2.73711 -0.87502,5.39329 -0.875,7.96875 -2e-5,1.95366 0.26143,3.81559 0.84375,5.5625 0.5824,1.74726 1.45622,3.32092 2.59375,4.65625 1.1541,1.35484 2.59679,2.41819 4.25,3.1875 1.69626,0.78935 3.60647,1.15625 5.6875,1.15625 1.34419,0 2.69802,-0.15835 4.09375,-0.4375 1.47685,-0.29537 2.8816,-0.81998 4.15625,-1.625 0.65903,-0.41939 1.37212,-0.87926 2.125,-1.40625 0.76028,-0.53222 1.50071,-1.11 2.21875,-1.71875 0.71301,-0.60454 1.41467,-1.24229 2.03125,-1.90625 0.65762,-0.70824 1.15497,-1.44046 1.5625,-2.1875 1.02924,-1.8527 2.04664,-3.69436 3.03125,-5.53125 1.0284,-1.91872 1.80987,-3.83369 2.3125,-5.78125 a 1.472685,1.472685 0 0 0 0,-0.0312 c 0.11073,-0.44429 0.0625,-0.63201 0.0625,-0.875 -9e-5,-0.59278 -0.16413,-1.19881 -0.5,-1.6875 -0.27933,-0.40613 -0.64958,-0.73012 -1.03125,-0.96875 -0.33558,-0.20966 -0.718,-0.39685 -1.15625,-0.5 -0.29251,-0.0688 -0.59666,-0.125 -0.96875,-0.125 -1.02882,4e-5 -1.97326,0.61656 -2.53125,1.40625 l -0.0312,0 c -0.0127,0.0174 -0.0185,0.0451 -0.0312,0.0625 -1.00797,1.3815 -2.09379,2.82721 -3.28125,4.34375 -1.17208,1.49684 -2.43766,2.86908 -3.75,4.125 -1.28134,1.2262 -2.58481,2.21304 -3.96875,3 -1.30851,0.74405 -2.56395,1.09376 -3.84375,1.09375 -0.73405,10e-6 -1.29476,-0.14334 -1.625,-0.3125 -0.40877,-0.20935 -0.67264,-0.44644 -0.875,-0.75 -0.20913,-0.31367 -0.37774,-0.74455 -0.5,-1.34375 -0.12576,-0.61603 -0.18752,-1.2674 -0.1875,-1.96875 -2e-5,-0.52642 0.0609,-1.35134 0.1875,-2.40625 0.12473,-1.03962 0.31952,-2.25391 0.59375,-3.625 0.27253,-1.36273 0.62648,-2.81615 1.03125,-4.40625 0.32497,-1.27668 0.71221,-2.59646 1.125,-3.90625 0.0389,-0.005 0.0537,0.006 0.0937,0 0.48884,-0.0674 1.05667,-0.19734 1.71875,-0.3125 0.72754,-0.1265 1.5601,-0.29217 2.53125,-0.53125 0.96067,-0.23644 2.11596,-0.52208 3.46875,-0.875 0.88541,-0.22848 1.80644,-0.45116 2.78125,-0.6875 0.98283,-0.23824 1.94891,-0.48928 2.8125,-0.6875 0.89228,-0.20475 1.68325,-0.385 2.4375,-0.5625 0.70293,-0.16538 1.29976,-0.28472 1.78125,-0.375 a 1.472685,1.472685 0 0 0 0.0312,0 c 0.69214,-0.14568 1.31827,-0.3792 1.9375,-0.65625 0.68915,-0.30828 1.34816,-0.71648 1.90625,-1.21875 0.58482,-0.52634 1.02855,-1.13788 1.375,-1.8125 0.38583,-0.7514 0.5937,-1.63716 0.59375,-2.5625 -6e-5,-0.78906 -0.219,-1.55484 -0.65625,-2.15625 -0.36784,-0.50562 -0.89663,-0.89655 -1.4375,-1.15625 -0.52566,-0.25223 -1.08539,-0.43994 -1.6875,-0.53125 -0.5261,-0.0797 -1.07923,-0.12495 -1.65625,-0.125 -0.4859,6e-5 -0.98364,0.0714 -1.53125,0.1875 -0.52719,0.11186 -1.09559,0.24915 -1.78125,0.40625 -0.70857,0.16241 -1.54625,0.35856 -2.53125,0.59375 -0.95598,0.22833 -2.10564,0.48945 -3.4375,0.75 -1.21924,0.23226 -2.44583,0.45102 -3.6875,0.6875 -0.56359,0.10736 -1.2983,0.22932 -1.9375,0.34375 l 2.625,-10.09375 a 1.472685,1.472685 0 0 0 0,-0.0312 c 0.18095,-0.724 0.24995,-1.4832 0.25,-2.3125 -5e-5,-0.78192 -0.0698,-1.59514 -0.28125,-2.40625 -0.21113,-0.80914 -0.5536,-1.54901 -1,-2.21875 -0.47957,-0.71922 -1.10277,-1.3209 -1.84375,-1.75 -0.80581,-0.4664 -1.76973,-0.68742 -2.78125,-0.6875 z m 114.53125,13.9375 c -1.03803,5e-5 -2.05189,0.19746 -3,0.625 -0.95721,0.43173 -1.80216,1.09048 -2.15625,2.09375 -0.81709,2.21777 -1.59878,4.24175 -2.3125,6.0625 -0.71904,1.83427 -1.40232,3.59601 -2.0625,5.3125 -0.65985,1.71558 -1.30503,3.40224 -1.9375,5.09375 -0.64438,1.72333 -1.25813,3.59061 -1.875,5.5 -0.62049,1.92054 -1.23535,3.99441 -1.84375,6.25 -0.60272,2.23443 -1.26035,4.71266 -1.90625,7.5 -0.003,0.0109 0.003,0.0203 0,0.0312 -0.16712,0.64425 -0.24691,1.24898 -0.28125,1.78125 -0.0328,0.50772 -0.0312,0.96018 -0.0312,1.375 0,1.73488 0.35224,3.32667 1.625,4.28125 1.02215,0.76661 2.28781,1.0625 3.625,1.0625 0.27965,0 0.55,-0.014 0.90625,-0.0625 0.45299,-0.0617 0.97678,-0.20713 1.5,-0.46875 0.56227,-0.28114 1.0111,-0.6494 1.40625,-1.0625 0.51222,-0.53552 0.89204,-1.23359 1.09375,-2 a 1.472685,1.472685 0 0 0 0,-0.0312 c 0.23856,-0.9543 0.42862,-1.8132 0.59375,-2.59375 0.16648,-0.78706 0.28836,-1.52441 0.40625,-2.1875 0.11691,-0.65772 0.25157,-1.2605 0.34375,-1.875 0.0836,-0.55735 0.17867,-1.12546 0.3125,-1.6875 a 1.472685,1.472685 0 0 0 0,-0.0312 c 0.25435,-1.13047 0.57885,-2.37578 0.96875,-3.71875 0.39035,-1.34457 0.81801,-2.65597 1.25,-3.9375 0.42895,-1.27256 0.8707,-2.43116 1.3125,-3.5 0.39353,-0.95212 0.71382,-1.63335 1.03125,-2.1875 0.51607,-0.26114 1.04549,-0.52977 1.53125,-0.90625 0.62333,-0.48307 1.25565,-1.00062 1.90625,-1.5625 a 1.472685,1.472685 0 0 0 0,-0.0312 c 1.22906,-1.08614 2.51565,-2.12168 3.8125,-3.15625 1.26755,-1.01119 2.53019,-1.92444 3.75,-2.71875 1.20837,-0.78682 2.31743,-1.37624 3.375,-1.8125 1.02314,-0.42203 1.94983,-0.62497 2.75,-0.625 0.77353,3e-5 0.83159,0.0969 0.9375,0.28125 0.25303,0.44054 0.40621,0.99357 0.40625,1.6875 -4e-5,0.82212 -0.12952,1.74863 -0.375,2.8125 -0.25127,1.08871 -0.58841,2.2481 -1,3.46875 -0.41753,1.2381 -0.87637,2.49488 -1.40625,3.8125 -0.54022,1.34317 -1.10133,2.71893 -1.65625,4.0625 l 0.0312,0 c -0.70688,1.67877 -1.38836,3.32767 -2,4.96875 -0.61231,1.64271 -1.1361,3.19289 -1.59375,4.625 -0.46476,1.45417 -0.83064,2.77738 -1.09375,4.03125 -0.26249,1.25051 -0.40629,2.34139 -0.40625,3.3125 -4e-5,1.16453 0.24685,2.30641 1.09375,3.125 0.90967,0.87943 2.09164,1.03125 3.40625,1.03125 0.82929,0 1.58535,-0.0825 2.28125,-0.28125 0.69433,-0.19839 1.34897,-0.53832 1.90625,-1.03125 0.57176,-0.50585 0.98086,-1.11806 1.3125,-1.78125 0.32384,-0.64777 0.6259,-1.40917 0.90625,-2.28125 0.92843,-2.98851 1.9424,-5.92349 3.03125,-8.8125 1.09898,-2.91606 2.13651,-5.70956 3.09375,-8.375 0.96729,-2.69366 1.73672,-5.2486 2.375,-7.59375 0.65273,-2.39857 1.03119,-4.56295 1.03125,-6.5625 -5e-5,-3.41005 -0.86114,-6.20137 -2.8125,-8.0625 -1.89364,-1.80585 -4.54292,-2.68746 -7.625,-2.6875 -1.56703,5e-5 -3.11454,0.28803 -4.65625,0.8125 -1.49781,0.5096 -3.01403,1.17965 -4.5,2 -1.30354,0.71969 -2.57001,1.56086 -3.8125,2.4375 0.0795,-0.19384 0.15724,-0.37895 0.21875,-0.625 0.0899,-0.35955 0.0937,-0.68104 0.0937,-0.8125 -4e-5,-1.29843 -0.6046,-2.6235 -1.6875,-3.375 -1.01029,-0.70093 -2.25834,-0.99995 -3.59375,-1 z m -34.53125,0.5625 c -2.00044,4e-5 -3.77082,0.71511 -5.15625,1.9375 -0.94569,0.0948 -1.87093,0.23352 -2.75,0.53125 -0.94578,0.32038 -1.67915,0.62002 -2.3125,1 a 1.472685,1.472685 0 0 0 -0.0312,0 c -2.8322,1.74755 -5.29897,3.65428 -7.46875,5.6875 -2.15203,2.01659 -4.03565,4.08019 -5.59375,6.21875 -1.54488,2.12043 -2.81258,4.23727 -3.78125,6.34375 -0.9569,2.08089 -1.66041,4.07938 -2.125,5.96875 -0.55303,2.2121 -0.8125,4.30051 -0.8125,6.28125 0,2.04376 0.3023,3.9573 0.90625,5.6875 0.60351,1.72899 1.48832,3.25276 2.75,4.53125 1.27588,1.29292 2.89604,2.24493 4.71875,2.90625 1.85013,0.6713 3.95486,1 6.34375,1 2.51321,0 4.82696,-0.34875 6.90625,-1.03125 2.04577,-0.67152 3.92341,-1.64969 5.625,-2.875 0.008,-0.005 0.0237,0.005 0.0312,0 0.006,-0.004 -0.006,-0.0272 0,-0.0312 2.40507,-1.71705 4.64036,-3.61485 6.625,-5.78125 1.98576,-2.1677 3.69197,-4.46688 5.09375,-6.84375 1.40221,-2.37773 2.48152,-4.82325 3.25,-7.34375 0.77096,-2.52885 1.1562,-5.0323 1.15625,-7.5 -5e-5,-1.06536 -0.0592,-2.0396 -0.1875,-2.90625 -0.12642,-0.85291 -0.32559,-1.66248 -0.53125,-2.40625 -0.20581,-0.74383 -0.43467,-1.42779 -0.75,-2.125 -0.28554,-0.63105 -0.60574,-1.30509 -0.9375,-1.96875 a 1.472685,1.472685 0 0 0 0,-0.0312 c -1.11003,-2.15648 -2.54215,-3.91158 -4.3125,-5.21875 -1.83848,-1.3573 -4.1165,-2.03121 -6.65625,-2.03125 z M 433.21875,535.5 c -1.62727,4e-5 -3.23905,0.17593 -4.875,0.5 -1.7884,0.35435 -3.53344,1.13599 -5.21875,2.3125 -4.14967,2.87754 -7.65589,6.34745 -10.46875,10.4375 -2.80344,4.07638 -4.8126,8.55213 -5.96875,13.34375 -0.002,0.01 0.002,0.0216 0,0.0312 -0.27313,1.06776 -0.4288,2.01027 -0.5625,2.8125 -0.13967,0.83796 -0.25001,1.68234 -0.25,2.53125 -10e-6,1.84575 0.39269,3.5549 1.21875,5.03125 0.82124,1.46777 2.0974,2.8154 3.75,4.125 0.68935,0.54423 1.49608,0.9987 2.4375,1.3125 0.97726,0.32575 1.99671,0.43751 3,0.4375 1.33251,10e-6 2.69003,-0.35418 4.09375,-1.03125 1.31629,-0.63493 2.67521,-1.38823 4,-2.3125 1.30401,-0.90978 2.52802,-1.89266 3.71875,-2.875 0.21783,-0.17971 0.38268,-0.29873 0.59375,-0.46875 -0.035,0.29408 -0.018,0.74227 -0.0625,1 -0.21469,1.24195 -0.34378,2.33874 -0.34375,3.3125 -4e-5,0.574 0.10657,1.07596 0.21875,1.46875 0.16906,0.59164 0.54519,1.18237 1.09375,1.59375 0.54724,0.41048 1.14642,0.60599 1.8125,0.75 0.74551,0.16119 1.54953,0.1875 2.5,0.1875 0.85853,0 1.69435,-0.1479 2.4375,-0.59375 0.5409,-0.32457 1.0887,-0.72815 1.53125,-1.28125 0.41076,-0.51352 0.69462,-1.0528 0.875,-1.59375 0.14645,-0.4395 0.24665,-0.80245 0.3125,-1 a 1.472685,1.472685 0 0 0 0,-0.0625 c 0.29232,-1.00701 0.49829,-2.07334 0.59375,-3.21875 0.0815,-0.97823 0.1727,-2.08304 0.28125,-3.25 l 0.0312,-0.0625 5.75,-22.96875 0.0312,-0.125 c 0.22401,-0.67679 0.44338,-1.34352 0.65625,-1.96875 0.27538,-0.80905 0.43745,-1.68206 0.4375,-2.625 -5e-5,-0.71325 -0.10662,-1.40724 -0.3125,-2.0625 -0.22997,-0.73146 -0.63307,-1.35661 -1.09375,-1.875 -0.50588,-0.56899 -1.14867,-1.0594 -1.9375,-1.375 a 1.472685,1.472685 0 0 0 -0.0312,0 c -0.82687,-0.33068 -1.71776,-0.43745 -2.71875,-0.4375 -0.54261,0 -1.04637,0.027 -1.53125,0.0937 -0.41512,0.0573 -0.94654,0.16466 -1.5,0.28125 -0.61476,-0.0814 -1.27916,-0.16753 -2.0625,-0.25 -0.88595,-0.0932 -1.70964,-0.12496 -2.4375,-0.125 z m 211.3125,0 c -1.62727,4e-5 -3.2666,0.1752 -4.90625,0.5 -1.7884,0.35435 -3.53344,1.13599 -5.21875,2.3125 -4.14967,2.87754 -7.65589,6.34745 -10.46875,10.4375 -2.80642,4.0807 -4.78295,8.5582 -5.9375,13.34375 -0.002,0.01 0.002,0.0216 0,0.0312 -0.26705,1.0413 -0.45391,1.97339 -0.59375,2.8125 -0.13969,0.83798 -0.25001,1.68235 -0.25,2.53125 -10e-6,1.84574 0.39267,3.55489 1.21875,5.03125 0.82123,1.46779 2.09741,2.8154 3.75,4.125 0.71038,0.56083 1.53836,1.00238 2.46875,1.3125 0.96622,0.32208 1.96546,0.43751 2.96875,0.4375 1.33252,10e-6 2.7126,-0.34999 4.125,-1.03125 1.32498,-0.63912 2.65333,-1.39478 3.96875,-2.3125 1.29462,-0.90324 2.54936,-1.88448 3.75,-2.875 0.20827,-0.17183 0.36249,-0.27488 0.5625,-0.4375 -0.0342,0.28384 -0.0194,0.71905 -0.0625,0.96875 -0.21897,1.26668 -0.31253,2.37485 -0.3125,3.3125 -4e-5,0.49909 0.0498,0.98702 0.1875,1.46875 0.16906,0.59164 0.54519,1.18237 1.09375,1.59375 0.54726,0.4105 1.14643,0.60599 1.8125,0.75 0.74551,0.16119 1.54953,0.1875 2.5,0.1875 0.85853,0 1.6992,-0.13206 2.46875,-0.59375 0.5673,-0.34041 1.08935,-0.768 1.5,-1.28125 0.41076,-0.51352 0.69462,-1.0528 0.875,-1.59375 0.1244,-0.3733 0.24479,-0.70315 0.34375,-1 a 1.472685,1.472685 0 0 0 0,-0.0625 c 0.29231,-1.00699 0.49829,-2.07333 0.59375,-3.21875 0.0838,-1.00517 0.14678,-2.10323 0.25,-3.25 l 0.0312,-0.0937 5.75,-22.9375 0.0312,-0.125 c 0.21694,-0.64596 0.46243,-1.3077 0.6875,-1.96875 0.28825,-0.84686 0.40619,-1.72235 0.40625,-2.625 -6e-5,-0.71322 -0.10661,-1.40723 -0.3125,-2.0625 -0.22997,-0.73146 -0.63307,-1.35661 -1.09375,-1.875 -0.50588,-0.56899 -1.14867,-1.0594 -1.9375,-1.375 a 1.472685,1.472685 0 0 0 -0.0312,0 c -0.82687,-0.33068 -1.71776,-0.43745 -2.71875,-0.4375 -0.54261,0 -1.04638,0.027 -1.53125,0.0937 -0.42189,0.0582 -0.93002,0.16621 -1.46875,0.28125 -0.62422,-0.082 -1.31274,-0.16778 -2.09375,-0.25 -0.88215,-0.0928 -1.67838,-0.12496 -2.40625,-0.125 z m -133.5,1.90625 c -0.78475,5e-5 -1.5734,0.0578 -2.34375,0.375 -0.65781,0.27091 -1.20044,0.63337 -1.625,1 -0.37276,0.32196 -0.73381,0.68531 -1.03125,1.15625 -0.19976,0.3163 -0.36006,0.47174 -0.5,1.03125 -0.61367,2.48386 -1.26854,5.03045 -1.96875,7.65625 -0.70219,2.63323 -1.37466,5.2328 -2.0625,7.75 -0.68711,2.5145 -1.35185,4.89427 -1.96875,7.15625 -0.61874,2.26871 -1.15496,4.24085 -1.59375,5.9375 a 1.472685,1.472685 0 0 0 0,0.0312 l -1.21875,4.9375 -0.0625,0.21875 c -0.0682,0.19143 -0.12527,0.4035 -0.125,0.71875 l 0,0.40625 c -10e-6,0.7098 0.1522,1.40423 0.40625,2.09375 0.27802,0.75466 0.71455,1.42379 1.21875,2 0.5197,0.59395 1.13583,1.11195 1.875,1.5 0.81591,0.42836 1.74936,0.625 2.71875,0.625 0.66259,0 1.28682,-0.18461 1.8125,-0.5 0.43157,-0.25896 0.83249,-0.58376 1.15625,-1 0.27767,-0.35703 0.49658,-0.73454 0.65625,-1.09375 0.10563,-0.23771 0.23237,-0.44714 0.34375,-0.78125 a 1.472685,1.472685 0 0 0 0.0312,-0.0937 c 1.3458,-5.26623 2.70585,-10.54358 4.125,-15.78125 1.42211,-5.24866 2.84137,-10.47109 4.21875,-15.6875 l 1.1875,-4.5625 c 0.002,-0.007 0.026,-0.0796 0.0312,-0.0937 0.0358,-0.0963 0.0937,-0.28907 0.0937,-0.65625 -2e-5,-0.10233 -2e-5,-0.19358 0,-0.28125 -3e-5,-0.71645 -0.21319,-1.41636 -0.59375,-2 -0.34551,-0.52968 -0.81546,-0.96784 -1.375,-1.28125 -0.54873,-0.30721 -1.11129,-0.47448 -1.65625,-0.59375 -0.56489,-0.12353 -1.14619,-0.18745 -1.75,-0.1875 z m 135.125,7.34375 c 0.0107,0.0545 0.0312,0.14738 0.0312,0.1875 -4e-5,0.77974 -0.0954,1.68159 -0.25,2.75 -0.15466,1.06833 -0.31953,2.01366 -0.53125,2.78125 -0.36735,1.31187 -0.97374,2.67371 -1.8125,4.0625 -0.85589,1.41709 -1.82325,2.77095 -2.9375,4.125 -1.12681,1.36927 -2.3318,2.67265 -3.59375,3.90625 -1.2724,1.24379 -2.52502,2.34667 -3.75,3.34375 -0.85563,0.69519 -1.77568,1.31867 -2.75,1.8125 -0.86991,0.44091 -1.76663,0.65626 -2.78125,0.65625 -0.14734,0 -0.14715,-0.0283 -0.15625,-0.0312 -0.16474,-0.45984 -0.28127,-0.96905 -0.28125,-1.5625 -2e-5,-0.64966 0.0662,-1.362 0.1875,-2.0625 0.12629,-0.72974 0.25039,-1.26706 0.34375,-1.59375 a 1.472685,1.472685 0 0 0 0.0312,-0.0312 c 0.35918,-1.3815 0.85164,-2.7937 1.53125,-4.25 0.67586,-1.44829 1.50831,-2.85172 2.46875,-4.25 0.95436,-1.38944 1.99764,-2.6918 3.15625,-3.90625 1.15168,-1.20719 2.36192,-2.24632 3.625,-3.125 1.26266,-0.87836 2.5473,-1.58411 3.875,-2.09375 1.22622,-0.47065 2.42089,-0.69226 3.59375,-0.71875 z m -211.3125,0.0312 c 0.006,0.052 0.0312,0.0968 0.0312,0.15625 -4e-5,0.81459 -0.068,1.70823 -0.21875,2.75 -0.15466,1.06833 -0.31953,2.01366 -0.53125,2.78125 -0.36735,1.31187 -0.97374,2.67371 -1.8125,4.0625 -0.85589,1.41709 -1.82325,2.77095 -2.9375,4.125 -1.11855,1.35923 -2.35464,2.66442 -3.625,3.90625 -1.27241,1.2438 -2.52502,2.34668 -3.75,3.34375 -0.86808,0.7053 -1.75476,1.3239 -2.71875,1.8125 -0.86991,0.44091 -1.76662,0.65626 -2.78125,0.65625 -0.40927,10e-6 -0.15491,0.11885 -0.1875,0.0312 -0.16151,-0.43403 -0.25002,-0.96975 -0.25,-1.625 -2e-5,-0.64966 0.0663,-1.362 0.1875,-2.0625 0.13296,-0.76826 0.23814,-1.33349 0.3125,-1.59375 a 1.472685,1.472685 0 0 0 0.0312,-0.0312 c 0.35425,-1.36253 0.87597,-2.77887 1.5625,-4.25 0.6828,-1.46314 1.4852,-2.86357 2.4375,-4.25 0.94624,-1.37761 2.02019,-2.68269 3.1875,-3.90625 1.15168,-1.20719 2.36192,-2.24632 3.625,-3.125 1.26267,-0.87837 2.5473,-1.58411 3.875,-2.09375 1.21394,-0.46594 2.40073,-0.65691 3.5625,-0.6875 z m 116.21875,0.1875 c 0.20114,0.41188 0.37982,0.81473 0.59375,1.21875 0.43062,0.80392 0.81548,1.50884 1.0625,2.09375 0.19506,0.46208 0.28121,0.96563 0.28125,1.5625 -4e-5,0.64474 -0.0773,1.36358 -0.25,2.1875 -0.18422,0.87842 -0.4276,1.83288 -0.6875,2.84375 a 1.472685,1.472685 0 0 0 0,0.0312 c -0.37502,1.49995 -1.02998,3.16144 -2,5.03125 -0.95886,1.84817 -2.11972,3.61345 -3.53125,5.21875 -1.38914,1.57977 -2.98865,2.85258 -4.78125,3.90625 -1.70294,1.00096 -3.48894,1.50001 -5.46875,1.5 -1.06791,10e-6 -1.90048,-0.16433 -2.5,-0.40625 -0.64927,-0.26197 -1.11595,-0.58314 -1.53125,-1.03125 -0.40429,-0.43619 -0.71838,-0.93255 -0.90625,-1.5625 -0.20638,-0.69194 -0.31251,-1.44236 -0.3125,-2.28125 -10e-6,-0.52053 0.0306,-1.04485 0.0937,-1.5625 0.0637,-0.52224 0.18132,-1.09618 0.34375,-1.71875 a 1.472685,1.472685 0 0 0 0,-0.0312 c 0.16919,-0.72514 0.48792,-1.60463 0.96875,-2.59375 0.48193,-0.99142 1.0807,-2.02572 1.75,-3.09375 0.65709,-1.04853 1.36321,-2.05658 2.1875,-3.0625 0.83668,-1.02102 1.72953,-1.98961 2.625,-2.84375 0.89327,-0.85205 1.79193,-1.59177 2.71875,-2.21875 0.87865,-0.59437 1.73563,-0.97075 2.5625,-1.25 0.0121,-0.004 0.0191,-0.0272 0.0312,-0.0312 1.33637,-0.14303 2.49323,-0.29381 3.40625,-0.5 0.97907,-0.22106 1.79416,-0.46267 2.46875,-0.78125 0.34343,-0.16216 0.58696,-0.41631 0.875,-0.625 z M 430.15625,626.25 c -1.42711,6e-5 -2.83612,0.0674 -4.21875,0.1875 -1.37846,0.11993 -2.83146,0.30547 -4.34375,0.5625 -1.51315,0.2573 -3.09775,0.58524 -4.75,0.96875 -1.65007,0.3831 -3.45271,0.81057 -5.4375,1.34375 a 1.472685,1.472685 0 0 0 -0.0937,0.0312 c -0.27771,0.0926 -0.8284,0.2533 -1.59375,0.4375 -0.78409,0.18881 -1.61804,0.39086 -2.53125,0.59375 -0.88815,0.19742 -1.78901,0.36961 -2.65625,0.53125 -0.38143,0.0711 -0.54721,0.0723 -0.84375,0.125 -0.37003,-0.75057 -0.97029,-1.21652 -1.59375,-1.5 a 1.472685,1.472685 0 0 0 -0.0312,0 c -0.91013,-0.41356 -1.8706,-0.46869 -3.28125,-0.46875 -1.00797,10e-5 -1.95678,0.48807 -2.65625,1.1875 -0.58722,0.58725 -1.13746,1.25391 -1.59375,2.03125 -0.43733,0.74509 -0.7911,1.51667 -1.09375,2.28125 -0.28082,0.70945 -0.4859,1.23896 -0.625,1.6875 -0.002,0.007 0.002,0.024 0,0.0312 -0.37603,1.12764 -0.79078,2.31169 -1.1875,3.53125 -0.40087,1.23228 -0.81248,2.60148 -1.28125,4.125 -0.47249,1.53557 -0.97348,3.26465 -1.53125,5.1875 -0.55751,1.92193 -1.20071,4.16115 -1.90625,6.71875 a 1.472685,1.472685 0 0 0 0,0.0312 l -1.78125,6.46875 0,0.0312 c -0.0429,0.14643 -0.16167,0.42776 -0.25,0.78125 -0.0719,0.28729 -0.11158,0.50181 -0.1875,0.71875 -0.0824,0.23527 -0.17037,0.42093 -0.25,0.5625 -0.0913,0.16224 -0.20835,0.21099 0.0312,0.0312 -1.15425,0.76409 -2.12224,1.55125 -2.90625,2.4375 -0.95956,1.08473 -1.37501,2.52505 -1.375,4.0625 -10e-6,0.99797 0.17557,1.9838 0.71875,2.84375 0.2618,0.41455 0.54705,0.79894 0.8125,1.1875 -0.0254,0.44118 -0.0849,0.9784 -0.25,1.875 -0.2062,1.11934 -0.4267,2.35446 -0.6875,3.6875 -0.26658,1.36247 -0.54013,2.76454 -0.75,4.21875 -0.21306,1.47613 -0.31251,2.86728 -0.3125,4.15625 -10e-6,1.59382 0.24016,2.96824 0.78125,4.125 0.63374,1.35494 2.13135,2.21874 3.65625,2.21875 l 1.03125,0 c 0.88459,-2e-5 1.65958,-0.42122 2.28125,-1 0.59198,-0.55117 0.98961,-1.27466 1.125,-2.0625 l 0.0312,0 0.0312,-0.15625 4.25,-18.3125 c 1.87224,-0.85032 3.72548,-1.67202 5.59375,-2.4375 2.06923,-0.8478 4.11641,-1.60455 6.1875,-2.21875 2.07257,-0.61461 4.15204,-1.11289 6.1875,-1.46875 2.00609,-0.3507 3.99775,-0.49997 6,-0.5 0.32232,3e-5 0.66097,3e-5 0.96875,0 0.30103,0 0.56787,0.009 0.8125,0.0312 a 1.472685,1.472685 0 0 0 0.65625,-0.0937 c 0.77268,-0.30049 1.46815,-0.82955 1.9375,-1.5 0.36783,-0.52552 0.67199,-1.07861 0.875,-1.6875 0.17977,-0.53945 0.27279,-1.04492 0.3125,-1.5 0.0126,-0.14498 0.0208,-0.26107 0.0312,-0.34375 0.005,-0.0413 0.0268,-0.0589 0.0312,-0.0937 0.004,-0.0349 0,0.0362 0,-0.25 -8e-5,-1.15307 -0.59716,-2.2892 -1.5,-2.9375 -0.73211,-0.52554 -1.57538,-0.92608 -2.53125,-1.15625 -0.87637,-0.21093 -1.78555,-0.34167 -2.71875,-0.375 -0.84556,-0.0301 -1.52921,-0.0312 -2.03125,-0.0312 -3.33276,3e-5 -6.65442,0.36833 -9.96875,1.125 -2.43726,0.55647 -4.90986,1.32052 -7.375,2.09375 0.0546,-0.22276 0.11917,-0.49153 0.15625,-0.6875 0.003,-0.0169 -0.003,-0.0456 0,-0.0625 0.0485,-0.2118 0.18404,-0.70845 0.40625,-1.5 0.23451,-0.83551 0.513,-1.79651 0.84375,-2.875 0.33649,-1.0973 0.69968,-2.27613 1.09375,-3.53125 0.3896,-1.24101 0.76468,-2.38335 1.15625,-3.5 0.38492,-1.09779 0.77097,-2.10202 1.125,-2.9375 0.29646,-0.69966 0.50306,-1.08571 0.65625,-1.34375 0.48325,-0.39629 1.14964,-0.82481 2.0625,-1.25 1.00645,-0.46873 2.15205,-0.91698 3.46875,-1.375 1.32643,-0.46133 2.75566,-0.9439 4.25,-1.375 1.50401,-0.43381 3.00303,-0.80959 4.5,-1.1875 1.49596,-0.37758 2.90513,-0.727 4.28125,-1.03125 1.38522,-0.30616 2.67489,-0.57427 3.8125,-0.84375 0.68047,-0.11358 1.38094,-0.24861 2.125,-0.375 0.78032,-0.13246 1.50296,-0.25844 2.1875,-0.375 0.71915,-0.12236 1.33033,-0.24387 1.84375,-0.34375 0.54639,-0.10619 0.92099,-0.20582 1.1875,-0.28125 l 0,0.0312 c 0.0135,-0.004 0.0178,-0.0277 0.0312,-0.0312 0.79095,-0.20995 1.55836,-0.51997 2.21875,-1.03125 0.57273,-0.4434 1.02286,-0.94057 1.375,-1.46875 0.34241,-0.51367 0.59118,-1.05795 0.75,-1.59375 0.13088,-0.44205 0.24988,-0.84963 0.25,-1.375 -9e-5,-0.71351 -0.17088,-1.48765 -0.65625,-2.125 -0.41593,-0.54564 -0.94651,-0.93641 -1.5625,-1.1875 -0.5773,-0.23507 -1.17814,-0.33935 -1.8125,-0.40625 -0.60699,-0.0638 -1.27059,-0.0937 -1.96875,-0.0937 z m 185.0625,4.78125 c -1.18051,8e-5 -2.33503,0.37945 -3.125,1.21875 -0.58974,0.62663 -1.02869,1.34847 -1.28125,2.125 -0.004,0.0134 -0.027,0.0178 -0.0312,0.0312 -0.2375,0.71265 -0.42898,1.29018 -0.5,1.90625 -0.0483,0.41866 -0.0625,0.75025 -0.0625,1.0625 l 0,0.46875 c -1.1e-4,0.66853 0.0318,1.19458 0.0625,1.5625 0.0228,0.27437 0.0312,0.59322 0.0312,0.96875 -10e-6,0.1528 -0.046,0.51544 -0.15625,0.96875 -0.12012,0.49378 -0.29417,1.18822 -0.53125,2.0625 -0.23756,0.87598 -0.50893,1.91883 -0.84375,3.15625 -0.34009,1.2568 -0.74178,2.76136 -1.125,4.46875 -0.003,0.0112 0.003,0.02 0,0.0312 -0.0861,0.34009 -0.17774,0.66239 -0.3125,1 l -5.75,0 c -0.72516,7e-5 -1.49194,0.24237 -2.09375,0.71875 -0.46691,0.36967 -0.91744,0.83892 -1.25,1.4375 -0.28088,0.50561 -0.48042,1.02525 -0.625,1.53125 -0.15006,0.52529 -0.21877,0.99705 -0.21875,1.40625 -10e-6,0.94133 0.28292,1.90842 0.90625,2.6875 0.54179,0.67731 1.22776,1.24927 2.03125,1.6875 0.78599,0.42877 1.63125,0.74355 2.5,0.96875 0.29426,0.0763 0.60814,0.0652 0.90625,0.125 -0.48318,1.99149 -0.95999,3.99936 -1.40625,6.125 -0.57466,2.73711 -0.87502,5.39329 -0.875,7.96875 -2e-5,1.97055 0.2982,3.83215 0.875,5.5625 0.5824,1.74726 1.45622,3.32092 2.59375,4.65625 1.14439,1.34344 2.55834,2.41484 4.21875,3.1875 1.70346,0.7927 3.63772,1.15625 5.71875,1.15625 1.3442,0 2.69802,-0.15835 4.09375,-0.4375 1.47684,-0.29537 2.8816,-0.81998 4.15625,-1.625 0.659,-0.41939 1.37212,-0.87925 2.125,-1.40625 0.77641,-0.54351 1.48659,-1.12453 2.1875,-1.71875 0.71301,-0.60454 1.41467,-1.24229 2.03125,-1.90625 0.65762,-0.70824 1.15497,-1.44046 1.5625,-2.1875 1.02306,-1.84159 2.07174,-3.68288 3.0625,-5.53125 1.03455,-1.93019 1.78258,-3.84902 2.28125,-5.78125 a 1.472685,1.472685 0 0 0 0,-0.0312 c 0.0511,-0.20507 0.0937,-0.50114 0.0937,-0.875 -9e-5,-0.59278 -0.16413,-1.19881 -0.5,-1.6875 -0.27933,-0.40613 -0.64958,-0.73012 -1.03125,-0.96875 -0.33558,-0.20966 -0.718,-0.39685 -1.15625,-0.5 -0.31924,-0.0751 -0.62791,-0.125 -1,-0.125 -1.02839,4e-5 -1.96282,0.64583 -2.5,1.40625 l -0.0312,0 c -0.0126,0.0172 -0.0187,0.0453 -0.0312,0.0625 -1.00073,1.37054 -2.11752,2.81761 -3.3125,4.34375 -1.17208,1.49684 -2.43765,2.86909 -3.75,4.125 -1.28134,1.2262 -2.58481,2.21304 -3.96875,3 -1.30853,0.74405 -2.56395,1.09376 -3.84375,1.09375 -0.73406,10e-6 -1.24506,-0.13389 -1.59375,-0.3125 -0.40877,-0.20935 -0.67264,-0.44644 -0.875,-0.75 -0.23147,-0.34718 -0.41719,-0.78475 -0.53125,-1.34375 -0.12576,-0.61603 -0.18752,-1.2674 -0.1875,-1.96875 -2e-5,-0.52626 0.0609,-1.35119 0.1875,-2.40625 0.12474,-1.03964 0.31952,-2.25392 0.59375,-3.625 0.27253,-1.36273 0.62648,-2.81615 1.03125,-4.40625 0.32496,-1.27667 0.71221,-2.59646 1.125,-3.90625 0.0389,-0.005 0.0537,0.006 0.0937,0 0.48884,-0.0674 1.05667,-0.19734 1.71875,-0.3125 0.72754,-0.1265 1.5601,-0.29217 2.53125,-0.53125 0.95339,-0.23466 2.14183,-0.52067 3.5,-0.875 0.88542,-0.22848 1.80644,-0.45116 2.78125,-0.6875 0.9899,-0.23995 1.92496,-0.49095 2.78125,-0.6875 0.88498,-0.20308 1.70559,-0.3829 2.46875,-0.5625 0.71184,-0.16747 1.28016,-0.2869 1.75,-0.375 a 1.472685,1.472685 0 0 0 0.0312,0 c 0.69214,-0.14568 1.31827,-0.3792 1.9375,-0.65625 0.68915,-0.30828 1.34816,-0.71648 1.90625,-1.21875 0.55902,-0.50312 1.03934,-1.09807 1.40625,-1.8125 0.40627,-0.79124 0.56244,-1.6808 0.5625,-2.5625 -7e-5,-0.73085 -0.15112,-1.50446 -0.625,-2.15625 -0.40448,-0.55597 -0.95738,-0.9107 -1.46875,-1.15625 -0.52566,-0.25223 -1.08539,-0.43994 -1.6875,-0.53125 -0.51681,-0.0783 -1.04796,-0.12495 -1.625,-0.125 -0.4859,6e-5 -0.98364,0.0714 -1.53125,0.1875 -0.51459,0.10919 -1.11758,0.24703 -1.8125,0.40625 -0.70857,0.16241 -1.54625,0.35856 -2.53125,0.59375 -0.95599,0.22833 -2.10565,0.48945 -3.4375,0.75 -1.21924,0.23226 -2.44584,0.45102 -3.6875,0.6875 -0.55478,0.10569 -1.2782,0.23121 -1.90625,0.34375 l 2.625,-10.09375 a 1.472685,1.472685 0 0 0 0,-0.0312 c 0.18092,-0.72396 0.24997,-1.48317 0.25,-2.3125 -4e-5,-0.8274 -0.11169,-1.63627 -0.3125,-2.40625 -0.21113,-0.80914 -0.5536,-1.54901 -1,-2.21875 -0.47956,-0.7192 -1.10276,-1.3209 -1.84375,-1.75 -0.78514,-0.45444 -1.73848,-0.68742 -2.75,-0.6875 z m -158.03125,14.5 c -2.00044,4e-5 -3.77082,0.71511 -5.15625,1.9375 -0.94569,0.0948 -1.87093,0.23352 -2.75,0.53125 -0.95552,0.32368 -1.67433,0.63589 -2.28125,1 a 1.472685,1.472685 0 0 0 -0.0312,0 c -2.82795,1.74493 -5.32488,3.64929 -7.5,5.6875 -2.15735,2.02159 -4.01015,4.08809 -5.5625,6.21875 -1.54487,2.12043 -2.81258,4.23727 -3.78125,6.34375 -0.95163,2.06943 -1.68779,4.06366 -2.15625,5.96875 -0.55304,2.2121 -0.81251,4.30051 -0.8125,6.28125 -10e-6,2.04377 0.3023,3.9573 0.90625,5.6875 0.6093,1.74562 1.52936,3.2627 2.78125,4.53125 1.26607,1.28298 2.85921,2.2429 4.6875,2.90625 1.85013,0.6713 3.95487,1 6.34375,1 2.51322,0 4.85371,-0.34727 6.9375,-1.03125 2.04578,-0.67152 3.92342,-1.6497 5.625,-2.875 0.0121,-0.009 0.0191,-0.0226 0.0312,-0.0312 2.40967,-1.72059 4.61449,-3.62072 6.59375,-5.78125 1.98575,-2.1677 3.69197,-4.46688 5.09375,-6.84375 1.40222,-2.37774 2.48151,-4.82326 3.25,-7.34375 0.77094,-2.52885 1.1562,-5.03229 1.15625,-7.5 -5e-5,-1.06536 -0.0592,-2.0396 -0.1875,-2.90625 -0.12085,-0.8154 -0.28331,-1.6226 -0.5,-2.40625 -0.21684,-0.78373 -0.48298,-1.4655 -0.78125,-2.125 -0.28554,-0.63105 -0.60574,-1.30509 -0.9375,-1.96875 a 1.472685,1.472685 0 0 0 0,-0.0312 c -1.11002,-2.15648 -2.54213,-3.91158 -4.3125,-5.21875 -1.83847,-1.3573 -4.11649,-2.03121 -6.65625,-2.03125 z m 124.96875,0.53125 c -1.07585,4e-5 -2.11379,0.11125 -3.09375,0.34375 -0.95808,0.22738 -1.8569,0.5615 -2.75,0.9375 -0.90488,0.38103 -1.80652,0.84016 -2.6875,1.375 -0.84856,0.51523 -1.72189,1.05535 -2.625,1.6875 l 0,0.0312 c -1.22248,0.61241 -2.40317,1.3163 -3.53125,2.21875 -1.16495,0.93198 -2.20874,1.94379 -3.125,2.96875 -0.92853,1.03871 -1.70122,2.07717 -2.28125,3.1875 -0.58261,1.11527 -0.93751,2.20468 -0.9375,3.3125 -10e-6,0.57708 0.0724,1.0935 0.15625,1.5625 0.0753,0.42172 0.15436,0.88848 0.28125,1.34375 0.006,0.0239 0.0253,0.0388 0.0312,0.0625 0.27418,1.09681 0.69154,2.10573 1.25,2.96875 0.54008,0.83474 1.18613,1.58604 1.9375,2.25 0.69799,0.61686 1.43137,1.18148 2.25,1.65625 0.80129,0.46478 1.63132,0.81321 2.4375,1.125 0.0125,0.005 0.0188,0.0264 0.0312,0.0312 l 1.46875,0.59375 a 1.472685,1.472685 0 0 0 0,0.0312 c 0.7249,0.28999 1.52892,0.61867 2.375,0.96875 0.81756,0.33833 1.55818,0.66136 2.21875,1.03125 0.63083,0.35329 1.13607,0.72256 1.53125,1.09375 0.27562,0.25895 0.25,0.3408 0.25,0.375 -10e-6,0.12579 -0.0286,0.30196 -0.0937,0.5625 a 1.472685,1.472685 0 0 0 0,0.0312 c -9.3e-4,0.004 -0.20381,0.40642 -1.09375,0.90625 -0.95092,0.53408 -2.13845,1.02199 -3.5625,1.46875 -1.43239,0.44938 -2.97375,0.84327 -4.59375,1.125 -1.61664,0.28115 -3.06988,0.40626 -4.34375,0.40625 -0.39495,0 -0.66866,-0.0275 -0.84375,-0.0625 -0.29751,-0.0595 -0.54417,-0.1212 -0.65625,-0.15625 -0.14542,-0.0454 -0.32056,-0.12505 -0.625,-0.21875 -0.3095,-0.0952 -0.6809,-0.15625 -1.0625,-0.15625 -0.72537,3e-5 -1.25137,0.29116 -1.71875,0.625 -0.40957,0.29255 -0.79568,0.61579 -1.125,1 -0.37092,0.43273 -0.62533,0.91995 -0.84375,1.375 -0.2164,0.45086 -0.43752,0.94727 -0.4375,1.59375 -2e-5,0.98027 0.40944,1.92719 1.0625,2.71875 0.61414,0.74442 1.35225,1.3351 2.15625,1.84375 0.79915,0.50558 1.66953,0.95802 2.65625,1.28125 0.9797,0.32094 1.93075,0.46875 2.8125,0.46875 1.55622,0 3.19934,-0.22545 4.96875,-0.65625 1.74552,-0.425 3.52007,-0.96772 5.28125,-1.6875 1.76296,-0.72052 3.42685,-1.57771 5.03125,-2.53125 1.6035,-0.95304 3.02555,-2.00216 4.25,-3.125 0.016,-0.0147 0.0466,-0.0166 0.0625,-0.0312 l -0.0312,-0.0312 c 0.44844,-0.39066 0.6856,-0.73117 0.96875,-1.21875 0.30942,-0.53295 0.55376,-1.094 0.8125,-1.6875 0.24596,-0.56432 0.50992,-1.14114 0.75,-1.78125 0.22572,-0.60199 0.38584,-1.17365 0.5,-1.71875 l 0.0312,0 c 0.004,-0.0182 -0.004,-0.0443 0,-0.0625 0.12269,-0.53439 0.22405,-1.0345 0.28125,-1.40625 0.0665,-0.43248 0.0937,-0.87228 0.0937,-1.34375 -4e-5,-0.92672 -0.11478,-1.7868 -0.4375,-2.59375 a 1.472685,1.472685 0 0 0 0,-0.0312 c -0.31046,-0.77601 -0.79159,-1.44221 -1.34375,-2.03125 -0.54122,-0.57723 -1.16218,-1.08361 -1.875,-1.53125 -0.65733,-0.41269 -1.38611,-0.84948 -2.21875,-1.28125 a 1.472685,1.472685 0 0 0 -0.0312,0 c -0.61811,-0.30902 -1.33392,-0.64113 -2.15625,-1 -0.81432,-0.3553 -1.67273,-0.73846 -2.53125,-1.09375 -0.82959,-0.34325 -1.65034,-0.67346 -2.5,-1.03125 -0.81943,-0.34498 -1.49543,-0.6594 -2.0625,-0.96875 a 1.472685,1.472685 0 0 0 -0.0937,-0.0625 c -0.37404,-0.17599 -0.67508,-0.36256 -0.84375,-0.53125 -0.0509,-0.0509 -0.0313,0.0218 -0.0312,-0.1875 0,-0.0146 0.0261,-0.2433 0.34375,-0.65625 0.36997,-0.48095 0.86764,-0.98377 1.5,-1.5 0.65528,-0.53492 1.42898,-1.09406 2.28125,-1.625 0.83633,-0.52098 1.68106,-0.97558 2.5625,-1.375 0.86608,-0.39242 1.7377,-0.70761 2.5625,-0.9375 0.80477,-0.22426 1.44712,-0.31248 1.9375,-0.3125 0.30517,2e-5 0.44217,0.073 0.5625,0.15625 0.34894,0.24163 0.66908,0.4566 0.96875,0.71875 0.44023,0.38529 0.918,0.70711 1.40625,1 0.69755,0.41862 1.52466,0.62504 2.40625,0.625 0.84497,6e-5 1.7089,-0.46224 2.21875,-1.125 0.39869,-0.51833 0.72237,-1.11656 0.96875,-1.75 0.23604,-0.60704 0.39426,-1.20932 0.5,-1.84375 0.0981,-0.58933 0.1562,-1.09593 0.15625,-1.53125 -5e-5,-1.30824 -0.36297,-2.58754 -1.21875,-3.53125 -0.7229,-0.79693 -1.63182,-1.412 -2.6875,-1.8125 -1.01201,-0.38379 -2.09562,-0.59122 -3.21875,-0.6875 -1.03935,-0.089 -2.04476,-0.15621 -3,-0.15625 z M 486.75,646.46875 c -1.10033,5e-5 -2.1615,0.25531 -2.9375,1.03125 -0.74341,0.74345 -1.0858,1.66003 -1.4375,2.875 a 1.472685,1.472685 0 0 0 -0.0312,0.0312 c -0.22202,0.82462 -0.40502,1.74034 -0.53125,2.71875 -0.1277,0.98978 -0.15627,1.9558 -0.15625,2.90625 -2e-5,0.26377 -2e-5,0.49896 0,0.71875 -8e-5,0.17632 0.0141,0.45157 0.0312,0.71875 -0.3423,1.95318 -0.76747,4.08158 -1.25,6.4375 -0.49832,2.43295 -1.00503,4.89205 -1.53125,7.40625 -0.52849,2.52501 -1.03304,5.0382 -1.53125,7.5 -0.4907,2.42458 -0.90454,4.63019 -1.28125,6.65625 -0.007,0.0385 -0.0241,0.0867 -0.0312,0.125 -0.15618,0.59946 -0.25001,1.214 -0.25,1.8125 -10e-6,1.34755 0.41026,2.66002 1.21875,3.71875 0.90489,1.18499 2.37746,1.78125 3.9375,1.78125 0.99097,0 1.90783,-0.20966 2.71875,-0.625 0.71478,-0.36611 1.41837,-0.82338 1.9375,-1.53125 a 1.472685,1.472685 0 0 0 0.15625,-0.3125 c 0.36822,-0.88379 0.58889,-1.86228 0.65625,-2.90625 0.0624,-0.96642 0.0625,-1.89798 0.0625,-2.78125 l 0,-0.875 c 0.68892,-2.86278 1.41906,-5.61358 2.125,-8.25 0.69264,-2.58687 1.30824,-5.01953 1.875,-7.3125 0.68412,-0.92394 1.43573,-1.94179 2.34375,-3.09375 0.93306,-1.18373 1.97368,-2.32493 3.09375,-3.375 1.08663,-1.01871 2.25216,-1.85718 3.5,-2.5625 1.15471,-0.65265 2.29627,-0.96873 3.53125,-0.96875 0.009,10e-6 0.0713,-0.001 0.0937,0 0.15591,0.2688 0.3211,0.5411 0.5,0.84375 0.21718,0.36765 0.4604,0.7295 0.6875,1.0625 0.27305,0.40058 0.57265,0.70688 0.875,0.96875 l 0.0312,0 c 0.62538,0.54239 1.38603,1.01281 2.25,1.3125 0.81124,0.2815 1.53484,0.43753 2.28125,0.4375 0.75023,3e-5 1.52127,-0.20418 2.1875,-0.65625 0.58023,-0.39374 1.05473,-0.87771 1.4375,-1.40625 0.3723,-0.51418 0.7341,-1.12821 0.96875,-1.8125 0.22704,-0.66218 0.31243,-1.30122 0.3125,-1.90625 -6e-5,-1.43534 -0.45124,-2.81443 -1.21875,-4.09375 -0.74715,-1.24512 -1.68937,-2.33656 -2.8125,-3.1875 -0.67579,-0.50677 -1.39254,-0.91674 -2.15625,-1.21875 -0.65482,-0.25882 -1.29845,-0.46168 -1.9375,-0.625 -0.0217,-0.006 -0.0408,-0.0258 -0.0625,-0.0312 -0.53301,-0.15377 -1.06025,-0.25241 -1.5625,-0.34375 -0.53327,-0.0969 -1.11722,-0.18745 -1.75,-0.1875 -1.45458,5e-5 -2.86867,0.27832 -4.1875,0.8125 -1.26237,0.51137 -2.44179,1.16408 -3.5625,1.9375 -1.10443,0.76223 -2.14351,1.6122 -3.125,2.5625 -0.033,0.0319 -0.0609,0.0619 -0.0937,0.0937 -0.0211,-0.45733 -0.007,-0.92412 -0.0625,-1.375 -0.1101,-0.899 -0.38013,-1.7034 -0.75,-2.40625 -0.38618,-0.73363 -0.95221,-1.39172 -1.6875,-1.875 -0.84462,-0.55494 -1.837,-0.74995 -2.875,-0.75 z m 53.5,3.25 c -2.15293,4e-5 -4.23734,0.35241 -6.1875,1.09375 -1.88621,0.7171 -3.64745,1.64539 -5.28125,2.78125 -1.61292,1.12138 -3.09756,2.37927 -4.4375,3.75 -1.3061,1.33614 -2.46167,2.65629 -3.5,4 -1.02581,1.32753 -1.88926,2.57013 -2.59375,3.71875 -0.56778,0.92574 -0.93976,1.63614 -1.28125,2.28125 -1.09877,0.41839 -2.09162,1.02849 -2.8125,1.96875 -0.88862,1.1591 -1.31251,2.61106 -1.3125,4.125 -10e-6,0.89296 0.26655,1.82909 0.9375,2.5 0.15439,0.1544 0.38516,0.18668 0.5625,0.3125 -0.25267,1.33716 -0.50001,2.64568 -0.5,3.84375 -10e-6,1.85326 0.27451,3.52306 0.84375,4.9375 0.53824,1.33747 1.26339,2.49235 2.1875,3.46875 0.89276,0.94332 1.91937,1.70969 3.0625,2.28125 1.09594,0.54798 2.19696,0.96315 3.3125,1.25 1.09078,0.28049 2.17683,0.46631 3.21875,0.5625 0.959,0.0885 1.79518,0.15625 2.59375,0.15625 3.77793,0 7.36193,-0.55206 10.71875,-1.625 3.39308,-1.08456 6.67783,-2.87881 9.84375,-5.375 a 1.472685,1.472685 0 0 0 0.0312,-0.0312 c 0.81215,-0.67094 1.50432,-1.46174 2.03125,-2.375 0.51097,-0.88576 0.85108,-1.81341 1.03125,-2.75 0.0472,-0.23688 0.0768,-0.46546 0.0937,-0.71875 0.0244,-0.35719 -4e-5,-0.61011 0,-0.78125 -7e-5,-0.5923 -0.12756,-1.26563 -0.46875,-1.875 -0.56291,-1.00497 -1.69202,-1.31249 -2.6875,-1.3125 -1.04788,10e-6 -2.09321,0.31942 -3.1875,0.875 -1.00676,0.51111 -2.08555,1.14036 -3.1875,1.875 -0.78461,0.5324 -1.65599,1.06923 -2.625,1.625 -0.95055,0.54515 -1.9909,1.07198 -3.0625,1.53125 -1.05566,0.45241 -2.13108,0.80526 -3.3125,1.09375 -1.14253,0.27899 -2.36296,0.4375 -3.625,0.4375 -2.17916,0 -3.69853,-0.44652 -4.71875,-1.15625 -1.00253,-0.69741 -1.40627,-1.44571 -1.40625,-2.75 -2e-5,-0.64463 0.0842,-1.29842 0.25,-2 0.0974,-0.41232 0.20055,-0.66104 0.3125,-0.96875 1.03234,-0.1097 2.06938,-0.23138 3.375,-0.40625 1.68625,-0.22582 3.46342,-0.54809 5.28125,-0.96875 1.83804,-0.42532 3.62932,-0.96611 5.4375,-1.59375 1.85102,-0.64249 3.63217,-1.44796 5.25,-2.4375 1.62674,-0.995 3.04156,-2.16438 4.25,-3.5 1.25844,-1.39093 2.12492,-3.0756 2.59375,-4.90625 0.006,-0.0227 0.0256,-0.0398 0.0312,-0.0625 l -0.0312,0 c 0.29587,-1.04347 0.43745,-2.10261 0.4375,-3.1875 -6e-5,-1.32561 -0.19519,-2.63038 -0.6875,-3.84375 -0.49427,-1.21785 -1.27926,-2.25818 -2.25,-3.125 -0.99754,-0.89056 -2.2072,-1.56959 -3.625,-2.03125 -1.43833,-0.46824 -3.08296,-0.68746 -4.90625,-0.6875 z m -82.53125,7.75 c 0.21893,0.42995 0.42779,0.84631 0.625,1.21875 0.41691,0.77833 0.76889,1.47249 1.03125,2.09375 0.19506,0.46207 0.28122,0.96564 0.28125,1.5625 -3e-5,0.64471 -0.0773,1.36357 -0.25,2.1875 -0.18422,0.87843 -0.42759,1.8329 -0.6875,2.84375 a 1.472685,1.472685 0 0 0 0,0.0312 c -0.37501,1.49993 -1.02998,3.16143 -2,5.03125 -0.95886,1.84817 -2.11972,3.61346 -3.53125,5.21875 -1.38913,1.57977 -2.98865,2.85258 -4.78125,3.90625 -1.70295,1.00096 -3.48893,1.50001 -5.46875,1.5 -1.0679,10e-6 -1.85741,-0.15956 -2.46875,-0.40625 -0.6611,-0.26674 -1.1659,-0.60331 -1.5625,-1.03125 -0.40429,-0.43618 -0.71838,-0.93254 -0.90625,-1.5625 -0.20639,-0.69197 -0.31252,-1.44239 -0.3125,-2.28125 -2e-5,-0.46538 0.0557,-0.99487 0.125,-1.5625 0.0636,-0.52224 0.18132,-1.09618 0.34375,-1.71875 a 1.472685,1.472685 0 0 0 0,-0.0312 c 0.17671,-0.75738 0.46695,-1.62579 0.9375,-2.59375 0.48193,-0.99142 1.0807,-2.02572 1.75,-3.09375 0.65707,-1.04852 1.3632,-2.05657 2.1875,-3.0625 0.83666,-1.02102 1.72953,-1.9896 2.625,-2.84375 0.89327,-0.85205 1.79193,-1.59177 2.71875,-2.21875 0.87865,-0.59437 1.73563,-0.97075 2.5625,-1.25 0.0121,-0.004 0.0191,-0.0272 0.0312,-0.0312 1.33637,-0.14303 2.49323,-0.29381 3.40625,-0.5 0.97907,-0.22106 1.79416,-0.46267 2.46875,-0.78125 0.34342,-0.16216 0.58697,-0.41631 0.875,-0.625 z m 81.21875,2.09375 c 0.58306,2e-5 0.94884,0.1194 1.28125,0.34375 0.20472,0.13821 0.21873,0.13024 0.21875,0.5625 -3e-5,0.0978 -10e-6,0.17123 0,0.25 a 1.472685,1.472685 0 0 0 -0.0312,0.125 c -0.149,0.54006 -0.50681,1.11654 -1.15625,1.71875 -0.65276,0.60527 -1.57354,1.19365 -2.78125,1.75 -1.1898,0.54812 -2.60602,1.02934 -4.28125,1.40625 -0.76535,0.17221 -1.69905,0.24188 -2.53125,0.375 0.0894,-0.12627 0.12388,-0.21453 0.21875,-0.34375 0.79621,-1.0845 1.69155,-2.08623 2.71875,-3.03125 1.01107,-0.93017 2.08302,-1.72911 3.21875,-2.34375 1.04898,-0.56768 2.08428,-0.81248 3.125,-0.8125 z"
       transform="translate(0,28.362183)" />
  </g>
</svg>
