<?xml version="1.0" encoding="UTF-8" standalone="no"?>
<!-- Created with Inkscape (http://www.inkscape.org/) -->

<svg
   xmlns:dc="http://purl.org/dc/elements/1.1/"
   xmlns:cc="http://creativecommons.org/ns#"
   xmlns:rdf="http://www.w3.org/1999/02/22-rdf-syntax-ns#"
   xmlns:svg="http://www.w3.org/2000/svg"
   xmlns="http://www.w3.org/2000/svg"
   xmlns:sodipodi="http://sodipodi.sourceforge.net/DTD/sodipodi-0.dtd"
   xmlns:inkscape="http://www.inkscape.org/namespaces/inkscape"
   width="512"
   height="512"
   id="svg4076"
   version="1.1"
   inkscape:version="0.48.4 r9939"
   sodipodi:docname="trees.svg"
   inkscape:export-filename="C:\Users\Mark\Documents\GitHub\FoundBigfootage\Assets\trees1.png"
   inkscape:export-xdpi="90"
   inkscape:export-ydpi="90">
  <defs
     id="defs4078" />
  <sodipodi:namedview
     id="base"
     pagecolor="#ffffff"
     bordercolor="#666666"
     borderopacity="1.0"
     inkscape:pageopacity="0.0"
     inkscape:pageshadow="2"
     inkscape:zoom="0.7071068"
     inkscape:cx="211.46806"
     inkscape:cy="321.66209"
     inkscape:document-units="px"
     inkscape:current-layer="layer1"
     showgrid="true"
     inkscape:snap-grids="false"
     inkscape:snap-global="false"
     inkscape:window-width="604"
     inkscape:window-height="723"
     inkscape:window-x="139"
     inkscape:window-y="122"
     inkscape:window-maximized="0">
    <inkscape:grid
       type="xygrid"
       id="grid4084"
       empspacing="5"
       visible="true"
       enabled="true"
       snapvisiblegridlinesonly="true"
       spacingx="64px"
       spacingy="64px"
       dotted="false" />
  </sodipodi:namedview>
  <metadata
     id="metadata4081">
    <rdf:RDF>
      <cc:Work
         rdf:about="">
        <dc:format>image/svg+xml</dc:format>
        <dc:type
           rdf:resource="http://purl.org/dc/dcmitype/StillImage" />
        <dc:title />
      </cc:Work>
    </rdf:RDF>
  </metadata>
  <g
     inkscape:label="Layer 1"
     inkscape:groupmode="layer"
     id="layer1"
     transform="translate(0,-540.36218)">
    <g
       id="g4804"
       style="stroke:#20360c;stroke-opacity:1"
       transform="matrix(1.6385013,0,0,1.6385013,177.01146,533.43274)">
      <path
         inkscape:connector-curvature="0"
         id="path4689"
         d="m 135.75,191.61218 c 1.79098,0.0249 0.78926,-2.55627 2.26626,-3.73829 0.4603,-1.51364 1.33933,-2.31142 1.89782,-3.33204 0.89666,-1.24255 2.05206,-1.33902 1.33592,0.57033 -1.54805,1.99719 -0.10259,2.8764 1,4 0.73322,0.59482 0.21035,4.6114 1.26626,3.26171 0.74129,-2.31688 1.06059,-4.84255 0.98374,-7.51171 0.19324,-2.11325 0.62491,-2.13664 1.25,0 0.8075,1.45195 2.0788,2.72393 2.25,4.75 0.0976,1.831 1.68558,2.9661 2.5,4.75 0.2151,2.02538 2.14465,5.76939 1.5,1.375 -0.77075,-1.5337 -1.52066,-3.39797 -2,-5.125 -0.56792,-1.59875 -0.0972,-4.23618 -0.25,-6.25 2.09013,-0.99703 2.28247,0.71036 3.25,2 0.72095,1.18305 1.1443,2.91826 1.75,4 0.65382,1.63036 0.68179,3.25594 3,3 1.84879,2.18355 2.17099,-1.72375 0.75,-2.5 -0.53732,-1.59818 -0.69308,-2.82074 -2.5,-3.25 -0.43119,-1.24365 -1.34384,-1.80438 -1.75,-3"
         style="fill:none;stroke:#20360c;stroke-width:3;stroke-linecap:round;stroke-linejoin:round;stroke-miterlimit:4;stroke-opacity:1;stroke-dasharray:none" />
      <path
         inkscape:connector-curvature="0"
         id="path4691"
         d="m 130.75,168.11218 c -0.56131,-3.16986 -0.83207,-7.76874 -1.85566,-9.95824 0.40202,3.89933 0.59024,1.98151 2.10566,0.95824 0.73264,-0.10629 1.13008,1.15534 2,1.75 0.76881,1.23421 0.64985,3.79126 2.75,3.75 1.232,0.23597 1.89329,-3.11167 2,-4.75 0.71423,-0.0655 1.89739,2.11016 2.75,2.5 0.74955,1.0476 2.02281,2.05391 2.75,3 1.43329,0.42641 3.77843,2.95185 2.25,0 -1.09847,-2.8346 0.15114,-5.78012 1.5,-2.75 0.79423,1.11027 1.52153,2.57733 2,3.75 1.05521,0.83904 0.98577,3.08207 2.75,3.5 0.56394,0.95299 2.04185,1.44122 3,2 0.40476,-1.33768 -0.98085,-4.4429 -0.52443,-2.9849 0.48644,1.35715 1.48868,2.54713 2.02443,3.9849 0.38288,0.42467 2.52054,1.96405 1.92556,1.75 l -0.32444,0 -0.10112,0"
         style="fill:none;stroke:#20360c;stroke-width:3;stroke-linecap:round;stroke-linejoin:round;stroke-miterlimit:4;stroke-opacity:1;stroke-dasharray:none" />
      <path
         inkscape:connector-curvature="0"
         id="path4693"
         d="m 131.5,148.61218 c 2.57181,-2.53419 4.78507,-2.97841 5.75,-0.5 0.54835,0.96628 1.34408,1.43337 2.25,2.25 1.37101,1.55734 -0.28846,-4.36233 2.01171,-2.76626 0.69428,0.56217 2.03891,1.46535 2.98829,1.76626 1.16668,0.86299 2.33295,1.54746 3,2.75 0.50077,0.9842 -0.91999,-2.26957 -1.5,-2.75 -0.33989,-1.53243 -1.61894,-2.28599 -2,-3.75 -2.30378,-1.59652 0.47378,-2.99325 2.5,-1.75 1.39903,-0.045 2.3982,1.4468 3.5,1.75 0.87563,0.91531 2.86845,1.36687 4,2.5 1.06587,-0.12015 3.10922,2.60379 2.52515,1.34474 -1.16441,-0.0426 -2.99326,-2.54497 -3.77515,-3.34474 -1.45237,-1.93511 -2.08722,-3.15165 -4.75,-2 -2.64332,0.40782 -2.27354,3.32801 0.375,3.5 2.41534,0.74676 4.81524,1.41544 7.5,2 1.50761,0.80798 3.80523,0.81436 5.21094,1.92969 l -0.0859,0.0703 0.25,0"
         style="fill:none;stroke:#20360c;stroke-width:3;stroke-linecap:round;stroke-linejoin:round;stroke-miterlimit:4;stroke-opacity:1;stroke-dasharray:none" />
      <g
         style="stroke:#20360c;stroke-opacity:1"
         id="g4776">
        <path
           style="fill:none;stroke:#20360c;stroke-width:4;stroke-linecap:butt;stroke-linejoin:miter;stroke-miterlimit:4;stroke-opacity:1;stroke-dasharray:none"
           d="M 127,278.86218 127,65.362179"
           id="path4687"
           inkscape:connector-curvature="0" />
        <path
           style="fill:none;stroke:#20360c;stroke-width:3;stroke-linecap:round;stroke-linejoin:round;stroke-miterlimit:4;stroke-opacity:1;stroke-dasharray:none"
           d="m 129.75,139.61218 c 2.1274,-1.9307 5.19968,-5.67859 4.75,-0.75 1.30005,0.31298 0.96123,-4.81683 1.98374,-6.26171 0.40886,-2.45161 0.56204,-4.10592 1.51626,-1.61329 0.39399,1.53235 1.16262,2.88691 1.5,4.625 0.73071,1.17601 0.92173,2.61973 1.75,3.5 0.44427,0.10817 0.54182,2.04788 0.5,0.5"
           id="path4695"
           inkscape:connector-curvature="0" />
        <path
           style="fill:none;stroke:#20360c;stroke-width:3;stroke-linecap:round;stroke-linejoin:round;stroke-miterlimit:4;stroke-opacity:1;stroke-dasharray:none"
           d="m 123.25,128.61218 c -0.0704,2.44007 -1.11586,2.60923 -2.5,5.75 -0.37914,1.43624 -1.0635,2.37559 -1.25001,4.00001 -1.76328,2.75202 -0.23342,-1.69181 1e-5,-3.00001 0.62922,-2.12277 1.18318,-3.32248 1.5,-5.25 -0.096,1.70977 -1.21594,2.64426 -1.75,4.5 -0.71646,1.77838 -1.13977,2.40112 -2,3.5 -0.89566,1.17993 -1.33785,3.11266 -3.25,3 -1.70452,0.75095 -0.652,-2.80982 0.5,-3.25 0.59217,-1.11967 1.75333,-2.71573 0,-0.75 -1.26181,1.00512 -1.61758,1.15845 -2.25001,2.25001 -0.39313,0.45182 -2.8159,3.03525 -0.74999,1.74999 1.30972,-1.40714 3.92206,-2.06883 4.25,-3.25 1.00401,-0.4107 1.25423,-1.34928 2,-2.5 0.81245,-0.93259 2.01063,-1.73349 2.75,-2.5 1.47699,-1.47242 2.24579,1.00688 2,2.79776 -0.0897,1.59591 -1.24741,2.86374 -1.09858,4.2502 1.5204,-0.65684 1.84182,-2.26888 2.84858,-3.54796 0.4144,-0.84804 1.00379,-1.87256 1.25,-3"
           id="path4697"
           inkscape:connector-curvature="0" />
        <path
           style="fill:none;stroke:#20360c;stroke-width:3;stroke-linecap:round;stroke-linejoin:round;stroke-miterlimit:4;stroke-opacity:1;stroke-dasharray:none"
           d="m 124.75,119.11218 c -0.69837,2.54469 -5.64443,0.0859 -6,2.75 -0.64413,0.87597 -2.18064,2.76796 -1,0 0.79405,-1.22412 1.88268,-2.95985 0.67967,-1.08594 -0.95327,1.73254 -1.61195,2.70504 -2.67967,3.33594 -0.56917,-0.2116 -0.0343,0.49625 -0.5,0.25"
           id="path4699"
           inkscape:connector-curvature="0" />
        <path
           style="fill:none;stroke:#20360c;stroke-width:3;stroke-linecap:round;stroke-linejoin:round;stroke-miterlimit:4;stroke-opacity:1;stroke-dasharray:none"
           d="m 125.5,110.86218 c -1.64031,-0.32395 -2.17236,1.75958 -3.25,2.25 -0.22331,-2.3457 -1.85239,-2.99881 -3.5,-1.25 -0.67672,0.32875 -2.59688,2.93873 -2.99999,1.25 1.02172,-1.69953 -1.03093,0.46698 -1.25001,1 -0.74702,1.36104 -2.16241,2.70701 -3.75,1.75 0.2126,-1.02989 -3.07117,2.65526 -3,0 -0.86579,0.13344 -1.37779,0.69667 -2.5,0.75"
           id="path4701"
           inkscape:connector-curvature="0" />
        <path
           style="fill:none;stroke:#20360c;stroke-width:3;stroke-linecap:round;stroke-linejoin:round;stroke-miterlimit:4;stroke-opacity:1;stroke-dasharray:none"
           d="m 119.5,98.862179 c 2.11915,1.064504 -1.52962,-0.356938 1.75,0 2.52048,-2.567147 1.86517,2.280251 1,0.851122 0.24585,-0.924248 2.52259,-3.881275 3,-4.101122 -0.75203,1.180169 -2.21628,4.261456 0.75,2.25 1.63141,-1.461694 3.48732,-2.962008 2.25,-0.25 -1.36949,2.188361 1.43486,-1.61305 3,-1.5 2.68024,-1.737562 0.11837,0.323293 2.25,0.5 0.18886,-0.309978 -1.97844,-1.410815 -1.25,-1.75 1.00965,0.798443 3.08483,1.49841 4,2.25 -1.26338,-3.143343 2.30706,-0.07805 3.25,0 1.00242,0.554135 2.22995,1.662774 2.75,1.5 -0.22066,-0.669394 -2.21261,-3.142799 -1,-2.75 1.65396,1.747146 2.70445,0.589449 1.25,-1 1.11649,-1.419371 3.27868,2.499661 2.75001,-0.250001 0.82538,-0.981503 3.10314,-0.09181 3.24999,0.250001"
           id="path4703"
           inkscape:connector-curvature="0" />
        <path
           style="fill:none;stroke:#20360c;stroke-width:3;stroke-linecap:round;stroke-linejoin:round;stroke-miterlimit:4;stroke-opacity:1;stroke-dasharray:none"
           d="m 115.98744,88.965732 c 3.69769,-2.888631 -2.22178,1.760815 1.5,-1.25 1.53185,-2.205731 2.35443,-0.934883 1,1 0.13774,0.185807 2.24618,-2.113127 3.25,-2.5 1.23891,-1.632392 1.4709,-0.26596 0.5,1 -0.66375,2.017536 0.004,-3.431562 0.5,-2 l 0,0.25"
           id="path4705"
           inkscape:connector-curvature="0" />
        <path
           style="fill:none;stroke:#20360c;stroke-width:3;stroke-linecap:round;stroke-linejoin:round;stroke-miterlimit:4;stroke-opacity:1;stroke-dasharray:none"
           d="m 116.75,80.112179 c 3.20869,0.183121 4.67588,-3.064043 5.75,-4 -0.2848,0.968744 -2.16324,3.836324 -1.5,1.75 0.87,-1.002221 2.09403,-3.725266 2.04419,-0.01831 0.43343,-0.207553 -0.22161,0.366606 -0.29419,0.268306"
           id="path4707"
           inkscape:connector-curvature="0" />
        <path
           style="fill:none;stroke:#20360c;stroke-width:3;stroke-linecap:round;stroke-linejoin:round;stroke-miterlimit:4;stroke-opacity:1;stroke-dasharray:none"
           d="m 117.5,71.362179 c 3.3927,-0.682321 6.94361,-0.686718 5,1.5 0.36696,-0.657268 1.87916,-1.919607 2.5,-3 0.3812,-0.469372 1.3269,-3.326766 1.20118,-1.672672 -1.00748,1.503329 -1.481,2.583093 -2.20118,3.922672 0.78131,-1.448265 1.71342,-1.339738 2.5,-2.5 1.09272,-0.372273 -1.00824,1.414918 -2,1.25 -2.64139,1.490023 -0.16011,-2.588748 -0.25,-4 -0.76388,1.350562 -2.76032,2.682377 -3.75,3.5 -0.27895,-0.610893 -2.09856,-0.15616 -2.00638,2.024875 -2.91627,-2.628044 1.69274,-2.636601 -2.24362,-0.524875"
           id="path4709"
           inkscape:connector-curvature="0" />
        <path
           style="fill:none;stroke:#20360c;stroke-width:3;stroke-linecap:round;stroke-linejoin:round;stroke-miterlimit:4;stroke-opacity:1;stroke-dasharray:none"
           d="m 116.5,64.862179 c 1.32006,-0.718769 0.0147,1.006106 0.24731,1.400323 -0.46879,-3.650363 2.45389,-1.033594 2.00269,0.09968 2.55858,-2.014993 1.83061,1.12744 3.75,-0.5 2.77803,-2.304559 1.99928,1.939704 3.25,1 -0.10554,-0.731975 0.44011,0.09799 0.25,-0.25"
           id="path4711"
           inkscape:connector-curvature="0" />
        <path
           style="fill:none;stroke:#20360c;stroke-width:3;stroke-linecap:round;stroke-linejoin:round;stroke-miterlimit:4;stroke-opacity:1;stroke-dasharray:none"
           d="m 124.5,71.612179 c 1.18784,-0.267195 4.21241,-3.139932 4,-1.75 -0.64074,1.480429 -1.12715,2.994966 -1.75,4.25 -0.83955,2.831635 -0.22984,-0.04596 1.03735,-1.083823 0.61336,-1.749344 1.59837,-3.650291 2.46265,-4.416177 1.2628,2.268124 -0.11348,4.132897 -0.98169,5.794194 0.27908,-0.83015 1.29241,-3.208827 2.23169,-3.794194 0.23928,-1.084518 2.18306,-3.322771 2.25,-0.5 1.1527,1.336911 0.16113,5.001718 -0.75,2.5 -0.55015,-1.299537 -0.32031,-3.784542 1,-4 1.4216,-0.517168 0.73496,3.412583 2.75,3 l 0.25,0 0,-0.25"
           id="path4713"
           inkscape:connector-curvature="0" />
        <path
           style="fill:none;stroke:#20360c;stroke-width:3;stroke-linecap:round;stroke-linejoin:round;stroke-miterlimit:4;stroke-opacity:1;stroke-dasharray:none"
           d="m 126.25,83.612179 c 2.86295,2.781368 4.45047,3.296839 2.5,1 -0.16542,-2.835098 -3.79788,-0.041 -1.5,-2.25 -0.55352,0.497516 -2.76664,4.173435 -1.45556,4.617929 0.54315,-1.581934 1.00363,-6.116245 2.20556,-5.367929 0.95513,1.683079 1.59989,3.059809 2.5,4 1.6353,1.085929 -0.90411,-4.231729 0,-3.75 1.64164,0.747832 2.58132,2.979138 3.5,4 0.44297,0.572469 2.46204,3.41571 1.25,1 -0.29171,-1.92049 -2.64487,-3.446734 -0.25,-1.75 1.57879,0.812021 1.7271,1.996554 2.75,3 -1.02301,-0.396759 0.83173,-0.914493 1.5,-0.25"
           id="path4715"
           inkscape:connector-curvature="0" />
        <path
           style="fill:none;stroke:#20360c;stroke-width:3;stroke-linecap:round;stroke-linejoin:round;stroke-miterlimit:4;stroke-opacity:1;stroke-dasharray:none"
           d="m 125.75,76.362179 c 4.0001,1.822371 -1.91473,-1.077973 1,1.25 -1.99509,-3.221975 0.0232,1.954403 0.5,2.75 2.1154,2.023776 1.5007,-1.857062 1.25,-3.75 0.54144,0.04002 1.62871,2.721593 2,3.75 1.19231,0.411888 -0.85417,-7.17524 1.25,-3.5 0.63517,2.129132 1.80071,3.053389 2.75,4.75 1.01611,0.64486 1.18525,-4.168805 0.48752,-5.692885 -0.0203,0.569511 1.0855,2.36177 1.51248,3.442885 2.06913,3.681488 -1.36571,-4.492792 0.22319,-3.389031 0.71561,0.582833 2.19516,2.833196 3.02681,4.389031 1.32013,1.641752 -0.76649,-3.840464 0.75,-3 0.7873,1.142922 2.12025,3.83709 1.75,0.75 0.0781,-0.847424 2.07048,3.268178 2,2.75"
           id="path4717"
           inkscape:connector-curvature="0" />
        <path
           style="fill:none;stroke:#20360c;stroke-width:3;stroke-linecap:round;stroke-linejoin:round;stroke-miterlimit:4;stroke-opacity:1;stroke-dasharray:none"
           d="m 123.75,63.612179 c 2.07427,-0.563125 3.1443,-0.07459 1.25,-0.75 0.84546,-1.079855 1.82474,-3.285466 0.75,-0.5 -1.74208,2.577609 -1.99497,1.103634 0.25,-1 0.24022,-1.742616 4.26387,-2.299992 1,-1.25 -0.5729,-0.03633 1.51302,-1.612597 1.75,-2.5 -1.28792,0.591685 -1.89977,1.420321 -2.5,2.5 0.0317,0.144085 1.67701,-2.767601 2.4989,-3.178807 1.51112,-1.649847 -0.38024,-0.687509 -1.4989,0.428807 -2.47347,2.308992 -1.00971,-0.300365 -0.25,-1.75 0.75268,-0.736407 2.73831,-2.222553 0,-1.25 -1.09593,-0.505664 0.83357,-2.248975 1.75,-2.25 1.47419,-1.350137 -3.07761,2.836355 -2.75,0.75 0.74749,-0.433409 1.23859,-1.764447 2.5,-2 0.2045,-0.867082 4.66859,-1.132411 4,-0.75 -0.48036,1.666827 -1.63295,1.269976 -2,3 1.54805,-1.102558 1.59266,-1.995944 3.55603,-2.747548 -0.13754,-0.786323 -2.9399,2.191562 -1.80603,-0.0025 0.36425,-0.581463 3.69601,-3.073557 1,-2.75 -1.36166,0.634159 -2.1899,0.09237 -3.25,0.5 -0.94878,0.421404 -2.81587,2.326722 -2.5,1.25 0.31124,-0.856333 3.28728,-2.086792 3.83594,-1.398438 -0.44138,-0.236057 1.00432,-0.783999 -0.0859,0.148438"
           id="path4719"
           inkscape:connector-curvature="0" />
        <path
           style="fill:none;stroke:#20360c;stroke-width:3;stroke-linecap:round;stroke-linejoin:round;stroke-miterlimit:4;stroke-opacity:1;stroke-dasharray:none"
           d="m 125.5,66.862179 c -0.90331,-3.918119 -1.79389,-3.832946 -3,-1.25 0.79555,-0.197018 3.23589,-2.46255 2.25,-1.25 -2.70627,1.736888 -3.39604,-0.581495 -1.75,-2 1.04089,-1.684485 1.52555,-0.918988 0.5,0 -1.14941,1.131379 -2.56894,2.480489 -1.25,-0.5 1.09253,-3.016397 0.7759,0.515018 0.0684,1.342482 -2.18579,-0.546064 1.78558,-5.845109 1.93163,-1.842482 0.71263,2.886963 -3.79205,2.572863 -2.5,-0.5 -0.10843,-0.352377 1.18478,-2.161887 1,-0.75"
           id="path4721"
           inkscape:connector-curvature="0" />
        <path
           style="fill:none;stroke:#20360c;stroke-width:3;stroke-linecap:round;stroke-linejoin:round;stroke-miterlimit:4;stroke-opacity:1;stroke-dasharray:none"
           d="m 125.25,65.362179 c 4.25244,-1.945989 3.92409,-0.236658 6.25,-3.25 1.56255,-2.199057 1.05997,-0.0052 -0.25,1.75 -0.0975,-1.210252 3.73889,-5.75927 2.75,-3 -1.62699,3.578497 1.67031,0.746668 3,-0.75 1.39687,-2.122042 0.16867,2.215242 1.25,0.75 1.33938,-0.477306 1.92352,-1.516441 3.5,-1.75 -0.20833,-0.458333 0.33333,-0.166667 0.5,-0.25"
           id="path4723"
           inkscape:connector-curvature="0" />
        <path
           style="fill:none;stroke:#20360c;stroke-width:3;stroke-linecap:round;stroke-linejoin:round;stroke-miterlimit:4;stroke-opacity:1;stroke-dasharray:none"
           d="m 117.25,106.61218 c 2.71577,-2.3162 2.87791,-2.93697 1.25,-0.75 -3.09949,2.58807 3.21588,-1.83999 2.75,-3 0.18671,-0.072 -1.7775,3.02003 -2.5,3.5 -3.6258,1.00496 2.93193,-1.26556 3.25,-2.75 1.10353,-1.26603 2.08821,-2.21114 0.25,0 -0.97175,1.28842 -1.74612,3.34446 0,0.5 1.4631,-4.918457 0.85887,-0.37478 0,2 0.35885,1.56431 0.96837,-3.57823 1.75,-4.25 0.39679,-3.05139 0.52425,4.00407 0.25,5.14888 0.13615,0.88991 1.31097,-3.59435 2,-4.89888 0.66397,-3.447569 0.81898,3.45193 0.75,5.14888 0.60731,2.03026 1.15196,-4.92967 1.25,-6.39888 0.64281,-0.6565 0.11337,4.02068 1,5 0.46671,-2.0562 1.431,-4.00472 2,-5.5 0.70633,1.8858 -0.54522,8.55717 0.25,3.25 0.31847,-2.81518 1.29371,-1.02637 0.51541,1.09522 -0.38444,1.67648 -0.26009,2.42094 -1.01541,0.15478 -1.08885,-2.5893 -1.14739,-1.82637 -2,1.25 -1.37994,2.00441 0.92181,0.95824 -0.25,0.75"
           id="path4725"
           inkscape:connector-curvature="0" />
        <path
           style="fill:none;stroke:#20360c;stroke-width:3;stroke-linecap:round;stroke-linejoin:round;stroke-miterlimit:4;stroke-opacity:1;stroke-dasharray:none"
           d="m 128.5,120.11218 c 1.04469,-1.36441 2.23837,-4.05716 2,-1 -0.0769,1.46514 1.85618,2.45493 0.25,-0.75 -1.90521,-4.00476 0.94503,-1.46378 1.75,0.5 0.95879,0.84794 1.11694,2.94767 2,3.75 -0.34825,1.39801 -4.44756,-4.27608 -3,-3.5 2.46691,2.88628 2.91712,-0.22619 1.5,-2.75 -0.94604,-2.94337 -0.78369,-1.60889 1,0 0.43543,0.96651 1.62767,2.59198 1.65526,2.22485 -1.55699,-1.53773 -2.43565,-2.20989 -3.15526,-3.72485 -2.14759,-1.52107 0.80516,0.0199 2,0.75 1.97733,0.71101 3.85731,1.62595 6.54776,1.5 2.78344,0.7092 3.52205,-0.17209 0.70224,-1 -2.51164,-0.7347 -5.87478,-1.0721 -7.75,-2 -1.53627,-0.54336 3.82289,1.40754 5.14888,1 1.70035,-0.18715 6.80397,0.6614 5.60112,0.75 -2.1616,-0.8894 -5.1553,-0.62919 -7,-1.5 -1.08759,-0.46603 -3.78439,-1.13781 -1.5,-2 2.50481,-0.21757 4.28263,0.56104 6,1.25 3.87368,0.40633 -1.35551,-0.22846 -2.81883,0 -1.58241,-0.1725 -6.09145,0.38715 -2.38341,0.25 2.91679,-0.42898 6.11819,-0.0167 8.95224,-0.5 0.39012,-1.82503 -4.14653,-0.5464 -5.82444,-1.25 -2.47962,0.29703 -3.66565,-0.69952 -6.04775,-0.5 -1.33995,-1.48368 3.18592,-2.17403 3.62219,-1.25 -0.20833,0.45833 0.33333,0.16667 0.5,0.25"
           id="path4727"
           inkscape:connector-curvature="0" />
        <path
           style="fill:none;stroke:#20360c;stroke-width:3;stroke-linecap:round;stroke-linejoin:round;stroke-miterlimit:4;stroke-opacity:1;stroke-dasharray:none"
           d="m 130,122.36218 c 1.23392,-1.33165 2.93648,-0.15138 0,0 0.0274,2.60517 3.45755,1.32992 5.5,0.5 3.80064,-1.20151 0.81384,0.6186 0.25,1.5 1.1168,-0.50466 2.49025,-5.16517 2.03175,-4.48975 -1.39795,2.19145 -0.66216,5.95044 -2.03175,7.48975 -0.50829,-1.73627 -1.91127,-4.84994 -2.25,-6.82444 0.20913,0.44491 1.28515,2.57403 2.25,4.32444 1.2118,1.46563 1.73273,2.447 1.25,-0.57444 -0.3599,-2.8122 -0.25406,-6.33823 1.75,-1.92556 0.70459,1.63598 2.3536,5.78346 1.99242,5.66161 -0.3456,-1.47027 -2.08404,-5.08963 -1.25419,-5.17187 0.99125,1.03683 2.45861,5.07251 2.76177,4.51026 -0.75131,-1.45496 -1.39373,-2.42294 -1.98374,-4.26171 -0.37177,-3.4971 3.52932,1.02771 3.48374,2.26171 0.83988,4.34126 0.10152,1.49588 -0.75,-1 0.76271,-0.88583 2.14218,4.00564 3,4.75 0.18621,1.65359 1.99422,3.71851 0.5,1.25 -1.73123,-3.41593 -0.86042,-1.58338 1.75,-0.75 0.35669,0.2927 0.35023,0.46743 0.75,0.75"
           id="path4729"
           inkscape:connector-curvature="0" />
        <path
           style="fill:none;stroke:#20360c;stroke-width:3;stroke-linecap:round;stroke-linejoin:round;stroke-miterlimit:4;stroke-opacity:1;stroke-dasharray:none"
           d="m 131,166.86218 c 1,-1.83333 2,-3.66667 3,-5.5 0.60476,2.02524 0.65166,6.80368 1,2.42556 -0.19259,-3.40573 1.19064,-3.17635 1.75,-0.17556 0.41642,2.54747 0.94691,-2.7149 1.99687,-3.64688 0.84745,0.30836 2.22367,2.946 2.50313,4.14688 1.0512,1.70299 1.18645,3.14351 2.25,0.5 1.11098,-1.99177 1.55817,0.95552 2.5,1.25 0.31766,1.87261 1.40199,-2.22209 3.25,-0.5 1.34253,0.93509 1.53133,1.47629 2.75,3 0.62551,1.1713 1.06047,3.04446 2,1.75 0.40632,-0.18243 -0.43087,-0.35857 0.25,-0.25"
           id="path4731"
           inkscape:connector-curvature="0" />
        <path
           style="fill:none;stroke:#20360c;stroke-width:3;stroke-linecap:round;stroke-linejoin:round;stroke-miterlimit:4;stroke-opacity:1;stroke-dasharray:none"
           d="m 133,138.61218 c 0.49711,-2.88955 1.05944,-11.11842 1.5,-4.75 -0.14197,2.24461 -1.35949,3.24086 0.25,0.25 0.78104,-3.12938 1.63928,-2.51648 1.5,1 -1.1944,3.27001 2.74862,-4.52318 2,1 -0.0139,2.84027 -2.20628,-2.27921 -3.75,-2 -2.03235,-1.94708 -2.61884,0.76116 -2.98374,2.76171 -1.45999,4.50065 -0.85758,-0.91256 -0.26626,-3.26171 -0.64874,1.75442 -2.07206,4.06034 -2.75,5.75"
           id="path4733"
           inkscape:connector-curvature="0" />
        <path
           style="fill:none;stroke:#20360c;stroke-width:3;stroke-linecap:round;stroke-linejoin:round;stroke-miterlimit:4;stroke-opacity:1;stroke-dasharray:none"
           d="m 130.75,148.36218 c 1.55879,-1.75747 3.15986,-2.09588 3.5,0 1.45321,1.91058 -0.007,-0.5805 -0.75,-1.75 0.6294,-0.59764 2.36855,2.13286 2.5,3 0.61074,1.00903 0.0651,-2.67546 0.25,-3.75 -1.09391,-4.32948 2.07941,0.80625 2.5,2 2.43682,3.1302 -0.45562,-4.10907 -0.25,-5.75 2.48492,-0.48183 2.32134,3.34784 2.75,4.25 -0.10858,-1.90882 -2.03457,-7.17779 0,-3 1.35861,1.64909 1.31512,4.11657 2.5,5 l -0.25,0"
           id="path4735"
           inkscape:connector-curvature="0" />
        <path
           style="fill:none;stroke:#20360c;stroke-width:3;stroke-linecap:round;stroke-linejoin:round;stroke-miterlimit:4;stroke-opacity:1;stroke-dasharray:none"
           d="m 127,146.61218 c -2.83317,1.68807 -3.53954,1.57943 -2.25,-0.75 -0.0742,1.27108 -1.69237,3.59737 -1.5,3.67556 0.0907,-0.85417 2.46422,-5.54864 0.75,-2.67556 -1.48939,1.2033 -3.35767,4.83644 -2.5,1.25 2.04318,-4.37429 -0.30506,-1.28889 -1.75,1.25 -2.08635,2.33251 2.15314,-6.06044 -0.5,-2.25 -0.85111,1.22296 -2.82854,3.54998 -3,2.75 0.5048,-1.02119 1.98173,-2.74669 2.27115,-4.15376 -0.002,0.91518 -2.18119,3.17381 -2.52115,4.40376 -0.89657,0.71059 1.76713,-5.8213 -1.03174,-1.51025 -0.49403,0.21438 -1.73345,3.82627 -1.46826,0.76025 0.16468,-2.66468 -0.77332,0.74176 -2,0.75 -0.66187,2.23135 -0.64431,-2.39083 0,-2 l 0,0.32444 0,0.17556"
           id="path4737"
           inkscape:connector-curvature="0" />
        <path
           style="fill:none;stroke:#20360c;stroke-width:3;stroke-linecap:round;stroke-linejoin:round;stroke-miterlimit:4;stroke-opacity:1;stroke-dasharray:none"
           d="m 126.5,156.86218 c 2.94171,0.68152 -6.91523,-2.91173 -6.30976,1.08008 0.0936,-0.93453 1.1424,-3.98667 1.61884,-4.15049 -1.20936,0.95701 -2.72554,4.3764 -3.29992,4.08224 0.40351,-0.7803 2.26049,-5.30327 1.74084,-3.51183 -1.25827,1.64031 -3.30483,4.00106 -0.48498,1.73063 2.6758,-2.23819 3.11962,-1.06784 1.98498,1.26937 -1.85283,2.6831 3.11291,-0.43413 3.25,-1.75 -0.40406,1.47229 -1.90018,3.80985 -1.51248,4.94289 0.28788,-0.54452 2.64441,-3.59429 1.26248,-1.44289 -0.57827,1.60891 -1.05135,2.04616 -1.75,3.25 -0.66568,0.43408 -1.86583,2.06707 -3.25,2.25 -0.98248,-1.61228 -0.47748,-4.6783 0.25,-6.25 1.27106,-3.3916 0.009,-0.3548 -1.25,1.5 -2.06299,2.20673 -2.89608,2.77006 -1.5,-0.5 0.23096,-1.07754 2.97029,-4.48375 1.75,-2.75 -1.81888,1.53824 -2.7434,3.82921 -4.375,4.25 -1.2748,1.04552 -2.64118,1.48861 -1.375,-0.75 0.73297,-0.31019 2.09187,-2.5125 1,-0.5 -0.82352,0.28078 -2.36276,4.13578 -2.5,1.25 1.41113,-2.42167 0.28218,-3.10412 -1.5,-0.75 -0.61417,0.80785 -2.49983,1.72508 -0.5,-0.25 1.33751,-1.66558 0.60164,0.0645 -0.75,1.5 1.60181,-1.76196 2.93274,-2.30497 4.5,-3.25 2.69401,-1.65581 0.36791,1.7533 0.91408,1.42967 0.43868,-0.43094 2.84958,-2.27894 2.58592,-1.42967"
           id="path4739"
           inkscape:connector-curvature="0" />
        <path
           style="fill:none;stroke:#20360c;stroke-width:3;stroke-linecap:round;stroke-linejoin:round;stroke-miterlimit:4;stroke-opacity:1;stroke-dasharray:none"
           d="m 128.75,178.11218 c 1.19994,-1.60972 0.82329,-5.47496 1.75,-6 0.63236,0.70677 -0.16253,5.89143 0.5,3.5 0.28676,-3.18748 1.36642,-6.31237 1.5,-1.42556 -0.22314,4.09465 1.06063,1.78146 1.75,-0.57444 0.17803,-3.08599 1.09288,2.60654 1.625,3.5 0.62261,0.89697 0.29452,-3.01663 0.375,-4.19663 0.1752,-3.73582 0.9245,0.36481 1,2.59551 0.11768,3.642 -0.20982,1.90813 -0.75,-0.64888 -0.0845,-2.8536 -0.93338,-5.02636 0.25,-1.25 0.80654,2.68103 1.42956,5.39377 1.75,0.75 -0.0731,-3.35179 0.78169,-5.72864 1.75,-1.5 -0.11591,2.5376 1.4022,6.67772 0.25,1.75 -0.31164,-3.78272 0.95076,1.41524 1.75,2 0.20927,-0.69421 -0.81174,-5.19008 1,-1.75 1.76855,1.7989 -0.0309,-3.71594 0.50109,-1.42881 0.44265,0.51397 2.53305,1.92339 0.76517,-0.8329 -1.26083,-2.18415 1.36445,0.20766 2.10874,0.76171 0.66435,-0.18605 0.10614,0.48172 0.875,0.25"
           id="path4741"
           inkscape:connector-curvature="0" />
        <path
           style="fill:none;stroke:#20360c;stroke-width:3;stroke-linecap:round;stroke-linejoin:round;stroke-miterlimit:4;stroke-opacity:1;stroke-dasharray:none"
           d="m 126,179.86218 c -1.35588,-1.44293 -3.1976,-2.67594 -4.25,-4.25 -1.44905,1.00962 -2.66923,2.3608 -3.25,3 0.0514,0.14947 1.72547,-1.94296 2,-3 -2.04041,0.32315 -3.3502,2.5996 -4.25,3.25 -0.70755,1.15946 0.93374,-1.56174 1.25,-2.25 1.46322,-1.78715 -0.13489,0.0869 -1.22941,0.97941 -0.93545,1.1542 -1.77936,1.48024 -3.2823,2.00433 -1.73804,1.24622 0.80743,-4.50391 -0.48829,-1.98374 -1.41968,0.73566 -1.76406,1.65816 -2.75,2.75 0.65994,-0.9621 1.94842,-3.79302 0,-1.25 -0.86962,1.78758 -3.02879,4.10454 -1,1.5 1.48697,-2.2817 -0.73758,0.34732 -1.75,1.25 -1.84349,0.92464 -3.34147,1.84999 -1.25,-0.5 1.15134,-1.54584 3.82901,-4.34274 1,-1.25 -1.08259,1.87492 -2.19064,3.46193 -0.25,1.75 1.90851,-1.45755 5.79194,-3.64633 7.25,-3.25 -0.53348,0.78618 -2.19742,2.9094 -3,4 -0.30434,1.09938 1.93867,-2.17869 2.97941,-2.97941 0.23284,-0.76447 2.54702,-2.24288 2.02059,-2.02059 -1.34801,2.64899 3.81581,-2.06753 4.25,-2 0.56739,1.63107 -1.53314,4.78034 1,3.5 1.6279,-0.54357 4.52873,-4.01052 3,-0.5 -0.59907,2.3556 1.68092,-0.37516 1.75,-1.5 1.2989,-3.06773 -3.81654,0.44543 -1.75,-2.75 1.8338,-2.50876 -0.68214,-1.98155 -2,-0.75 -0.99694,0.97447 -4.68295,3.1681 -2.25,1 2.0375,-2.10777 -0.47965,-1.411 -2.25,-0.25 -0.64953,0.18909 -3.77925,2.57835 -2.5,1.5 1.18938,-0.7636 2.81932,-2.89771 0.5,0 -0.64676,0.52154 -1.7463,2.42639 -2.27679,2.88903 -2.30005,1.78282 6.26893,0.74055 3.01508,1.84471 -1.15256,0.58717 -1.70197,1.63575 -2.98829,2.26626 2.08939,-2.41594 0.21171,-3.46266 -2,-1.75"
           id="path4743"
           inkscape:connector-curvature="0" />
      </g>
      <path
         inkscape:connector-curvature="0"
         id="path4745"
         d="m 136,189.36218 c 2.49607,1.20214 3.36339,-0.41271 4.5,-1.75 0.51955,-0.87177 1.2273,-1.64722 1.91408,-2.57033 0.94605,-0.32259 -1.12879,2.7911 -1.16408,4.07033 -1.98534,2.70974 1.47947,-0.98299 1.5,-2.75 1.04091,-2.33813 0.70365,0.16128 0.75,1.87219 -0.37565,3.8634 -0.26559,4.65682 1.25,0.87781 0.8293,-1.02706 1.29905,-4.66273 2.25,-3 0.67333,2.03198 -1.23094,9.7183 1.75,4.75 0.77155,-0.95153 2.19527,-6.3415 2,-3.02668 -0.0227,1.96948 -0.0481,3.94009 0.25,5.77668 0.32112,-1.38137 1.24666,-9.68172 2.00916,-5.76184 0.94091,2.39078 1.46853,7.00855 2.49084,2.01184 0.92425,-2.58281 2.30209,-6.41701 2,-1 0.57898,2.3536 1.23657,3.93489 0,1.75 -1.66485,-0.72829 -3.38258,-1.40378 -5.25,-1.75 -1.97722,-0.93944 -4.57401,-1.25932 -7,-1.75 -0.98504,-0.42313 -2.84787,-2.09927 -3.75,-0.5 -1.45348,0.49937 -3.0519,2.04516 -4,2 0.37586,-3.071 -0.5502,-1.90846 -1.02679,-0.86097 -0.41564,3.30158 -2.45725,1.8609 -3.22321,1.86097 -2.74531,3.46337 -1.54842,-0.924 -2,-1.25 -2.36319,2.6313 -1.52833,-1.15142 -4,2 -0.72549,0.3334 0.0169,-1.70654 0.25,-1.5"
         style="fill:none;stroke:#20360c;stroke-width:3;stroke-linecap:round;stroke-linejoin:round;stroke-miterlimit:4;stroke-opacity:1;stroke-dasharray:none" />
    </g>
    <g
       id="g4947"
       transform="matrix(1.6385013,0,0,1.6385013,-159.25331,534.45523)"
       style="stroke:#20360c;stroke-width:3;stroke-miterlimit:4;stroke-opacity:1;stroke-dasharray:none">
      <path
         inkscape:connector-curvature="0"
         id="path4839"
         d="m 175.25,142.11218 c 0.86926,2.53723 1.15269,4.50702 -0.5,2.25 1.02978,-1.04222 0.26731,2.59654 2.25,2 3.64177,0.86163 2.86422,1.08264 -0.58207,1 -3.58419,0.38077 -4.40907,-0.75387 -0.91793,-1.25 3.80991,-1.51449 4.86968,1.251 0.27862,1 -1.21234,0.32223 -5.91815,0.44641 -2.77862,-0.5 2.34005,-0.24052 2.93193,2.39614 2.07119,3.4989 -2.28731,1.14674 -2.76607,1.72505 0.65019,1.7511 -1.06854,0.56827 -4.19222,0.47609 -0.11069,0 1.463,0.0603 7.00589,-0.60987 3.63931,0 -1.40028,0.92181 -5.01005,0.60907 -0.91793,0.75 4.87238,-0.63604 1.97674,-1.39373 -1.08207,-0.25 -2.97995,1.29129 5.02039,0.69854 0,1.5 -2.63229,1.47652 0.48561,-0.18243 -1.75,0.75 -5.43807,0.9458 0.46547,0.41789 2.75,1.25 3.00655,0.29089 -1.39359,1.38078 -2.5,1.5 -3.60612,1.02461 -1.03937,0.70728 1.5,0.75 -0.55898,-0.58614 -4.36953,0.15139 -5.5,-0.5 -2.56697,0.0292 -4.885,0.0209 -6.75,-0.25 3.46235,-0.1567 7.07728,-0.48347 10.5,0 -4.58768,1.04886 0.064,1.62301 2.72138,1.75 1.16537,0.10624 7.64435,0.97415 4.80724,0.75 -1.92544,0.121 -3.70197,0.3909 -5.38931,0.75 -2.64137,0.13518 -3.79964,-0.41044 -6.38931,-0.25 2.71804,-0.11943 4.99623,1.08504 7.75,0.75 0.24736,1.37499 -4.34611,2.01271 -2.51752,1.94425 1.88318,-0.10824 6.61176,-1.42435 2.51752,0.30575 -1.17235,0.3934 -5.87419,1.57937 -2.80724,1.25 3.31126,0.12648 4.75788,-0.42117 0.56103,-0.25 -1.89137,0.10989 -4.25086,-0.24833 -5.75379,0.25 2.60171,-1.42313 -1.84108,0.81377 -3,1 -0.5792,0.0944 4.52591,-2.41234 0.75,-1.5 -1.7522,0.7779 -6.07386,1.9933 -1,2 1.80788,-0.003 7.9498,-2.54447 6.75,-1.75 -0.22282,0.60007 -3.98482,1.79733 -1.77862,2 3.80041,-0.1438 2.66918,-0.32707 -0.22138,0.75 -1.8578,0.59149 -4.21605,0.91153 -5.5,2 2.70354,1.25589 6.79533,0.82258 8.5,-0.5 2.0263,-1.50086 -7.1844,1.46627 -0.5,0.25 1.05667,-1.05444 -1.31304,1.04417 -2,1.25 -0.4378,1.57276 -8.17086,0.30734 -3.25,0.5 1.73527,-1.84926 -3.62348,0.76254 -0.75,1 4.55931,0.29209 3.36955,-0.0238 1,1.5 -2.07165,0.83771 -2.88421,2.17261 -0.84927,0.74632 -2.07147,0.53229 -5.18693,1.56392 -6.15073,1.75368 2.72799,-1.95793 1.0131,-1.82648 -0.5,-0.5 -1.78151,0.81786 4.13447,0.30112 0,1.5 -2.09201,1.79916 5.29795,-0.20547 7,0 3.84106,-1.16286 -2.39755,0.22951 -2.5,1.5 1.57247,-0.39886 3.60917,-1.1736 5.25,-2 -0.24291,-0.50223 -5.06055,2.03506 -1,-0.75 1.22674,-0.30552 3.91144,-3.73561 0.75,-3.25 -1.8368,0.84622 3.41193,0.81999 4.76183,0.25915 0.86103,0.37986 -2.23882,1.82462 -2.51183,2.74085 -0.29416,1.38597 -3.21804,2.78976 0.0228,1.96094 1.5533,-1.15782 -1.89669,1.18223 -2.77283,1.28906 -0.90996,1.0528 -3.7722,2.27069 -0.38931,2 1.48926,-0.5001 6.04355,-1.88064 5.13931,-2 -1.94242,0.54727 -2.69035,1.82228 -4.625,2.25 -1.4255,1.05159 -3.22697,0.9073 -5.625,0.75 -4.04377,-0.23902 0.87653,0.58947 2.5,0.25 4.14535,-0.30809 3.09401,-1.72145 0,-0.25 -5.56554,2.28226 2.32912,1.51709 4.5,0.25 3.88725,0.0639 2.51545,-2.07014 0.25,0 -1.50352,0.33847 -2.70523,1.27148 -3.5,2.5 2.43346,0.51044 6.27247,-1.28379 2.53504,-0.29799 -2.03769,1.18715 -3.15785,1.43659 -5.28504,2.54799 -2.79036,0.48563 2.88529,0.97806 3,0 3.62443,-1.16617 -1.13454,-0.24154 0.98639,0.76253 3.31148,-0.34823 4.47824,-2.0174 1.26361,0.23747 -0.7272,0.23479 -4.51229,2.38003 -3.75,2 1.34432,-0.49558 5.61029,-1.90216 5,-2.5 -2.15703,-0.35812 -2.2484,1.28901 -4,1.25 -1.21675,1.14931 2.53109,-2.37938 3.5,-2.75 1.85674,0.0218 -3.10784,5.5579 1.75,3 1.67941,-1.19461 -1.56753,0.46559 -1.75,1.5 0.69216,0.20715 2.56405,-0.34193 1.75,0"
         style="fill:none;stroke:#20360c;stroke-width:3;stroke-linecap:round;stroke-linejoin:round;stroke-miterlimit:4;stroke-opacity:1;stroke-dasharray:none" />
      <path
         inkscape:connector-curvature="0"
         id="path4841"
         d="m 176.5,168.86218 c -0.89009,3.8412 6.34624,0.4723 4.88931,1.25 -3.88653,1.10974 -2.36691,-0.9352 -3.79244,-1.19375 -3.75537,-0.0743 6.60081,-0.90693 0.35307,-0.54743 -4.15418,1.00929 4.09683,0.80299 1.80006,2.74118 -0.86754,1.32012 -3.75665,2.8468 -1.27862,2.75 4.2917,0.31265 3.38319,0.67826 0.27862,1.75 -0.54669,0.49141 4.92797,-1.09349 0.5,-0.25 -4.30294,1.61 2.49398,-0.43222 0.5,1 -2.97023,1.11813 -4.93132,2.01469 -0.5,1.25 4.80772,-1.46013 -0.79185,0.54095 -2,1.5 2.61123,0.56572 6.03062,-0.21426 1,1.5 -1.58171,0.89916 -4.87891,1.77094 -1.08586,1.5 3.57702,-0.21003 3.76757,-1.08256 0.0859,-0.75 -0.58348,-0.42205 4.80056,-0.39568 5.33276,-1.52818 3.65286,-0.83798 2.64203,-0.81587 -0.33276,0.27818 -4.86756,1.47314 4.25651,1.78335 3.5,2.5 -1.55012,0.86964 -4.40176,1.67376 -5.25,2 2.64334,0.19119 7.32839,-0.59383 8.13931,-1 -0.98466,0.30276 -5.66989,1.76097 -3.77862,1.75 3.93273,0.22917 3.37499,-0.74887 0.13931,0.5 -1.34099,0.35251 -3.72063,0.88446 -5.25,0.25 1.77135,-2.99746 -1.76264,-2.18763 -3.5,-2.75 -2.4676,0.82455 8.9527,-1.86985 2.85938,-0.96874 -4.50329,0.93425 -2.21078,0.84046 1.14062,1.21874 2.17114,1.09307 -2.21263,2.76176 -3.25,3 0.40913,0.68249 5.50266,-0.78568 1.5,1.5 -3.15308,0.8259 -0.0489,1.52914 2.11069,1.25 0.12013,0.83118 -4.74249,1.47744 -5.36069,2.25 -0.81174,0.3568 6.96207,-1.88086 7.25,-1.75 -3.46349,1.13195 -0.50705,1.73708 1.25,1 -0.72317,0.40695 -5.0085,2.00293 -2.5,0.25 2.15575,-1.71494 -1.77871,-0.81355 -2.75,0 -1.31267,0.54045 -6.66092,2.22831 -2,1.5 0.83942,-0.98154 6.85935,-1.20898 4.25,0.5 -0.36639,0.55406 -3.10775,2.2409 -2.25,1.75 1.66221,-1.46678 3.34457,-1.58861 4.75,-2.75 -5.37894,1.53884 -0.19576,1.24472 2.25,0 0.25298,-0.91404 -2.22425,1.63851 -3.5,2 -3.465,1.31227 -2.10913,2.58304 -1.25,1.5 -1.73201,0.45009 -4.76004,3.12149 -2.13903,1.27681 2.71579,-2.53109 0.73534,-2.34609 -1.61097,-1.27681 -4.08132,1.25541 0.76248,0.21606 1.75,-1 2.80004,-1.29101 -3.95505,0.95663 -0.75,-1.25 -0.52686,-0.85623 0.51835,-0.26913 0.25,-0.75"
         style="fill:none;stroke:#20360c;stroke-width:3;stroke-linecap:round;stroke-linejoin:round;stroke-miterlimit:4;stroke-opacity:1;stroke-dasharray:none" />
      <path
         inkscape:connector-curvature="0"
         id="path4843"
         d="m 175.25,193.61218 c -2.98631,1.34618 2.05529,-1.03389 -1.75,0 -0.086,0.82878 3.63712,-0.73904 -1,0.25 -4.36669,-0.18051 -0.63562,0.32637 -0.25,-0.25 -0.98861,-0.1375 -6.08274,0.29283 -3.75,-0.25 0.22415,0.11003 -6.47225,0.66277 -3.38931,0.75 5.16719,-0.888 1.75233,-0.54782 -0.61069,0.5 -2.57725,1.27173 10.09779,0.51121 3.5,1.75 -2.4598,1.55946 -2.63026,0.22213 -4.5,1.75 -1.32014,0.96611 -3.97786,1.34228 -0.17881,-0.001 1.50908,-1.52172 -4.21267,1.19868 0.2895,0.75109 1.63857,0.2545 5.83211,-1.06976 5.40115,-1.49084 -1.04524,0.37681 -5.40145,1.61174 -3.29046,1.74084 3.14251,0.98212 2.59332,-5.6051 5.27862,-3.5 3.25054,-0.31225 4.14644,0.83393 1.93906,2.31911 -0.98213,0.10169 -3.77582,2.40309 -2.43906,1.68089 1.25226,-0.0861 6.14903,-2.12364 3.78504,-1.54799 -2.04971,1.34875 -3.49033,2.14936 -5.53504,2.54799 -0.94396,0.70626 -4.20014,-0.29709 -5.25,1 0.0375,-0.18524 6.49279,-2.05421 2.75,-0.75 -1.57775,1.02179 -2.42997,1.69307 -4.25001,2.00001 -3.25087,1.54898 3.94059,-1.35052 -0.74999,0.24999 -2.67513,0.15115 -3.34043,1.23937 -5.5,2 -1.37521,0.50861 -3.59135,1.08799 -4.5,2 1.37336,-0.0553 4.33459,-0.75057 5.25,-1.75 -0.47959,-0.77702 -3.59878,1.04392 -1.25,1 2.48469,-0.35675 3.99146,-2.22114 2.27681,0.36097 -1.15837,0.9628 -0.87178,2.56115 0.22319,0.38903 2.15869,-2.81729 -1.99762,2.71702 -0.5,1 0.63019,-1.16102 1.50533,-1.97243 2.5,-3.25 1.33517,-3.28213 1.11572,0.29189 0,1.75 1.3633,-0.29692 5.94279,-4.08925 4.5,-4 -0.25147,1.208 -3.02578,3.64046 -0.47789,2.11225 0.42479,-0.77524 3.77347,-2.05683 1.47789,-1.11225 -1.95836,2.25563 0.85068,0.6029 1.75,-0.25 1.73715,-1.94175 1.06869,0.1685 0,1 2.15748,-0.9697 7.30442,-5.74782 3.5,-1.75 -2.41735,2.4155 1.73546,0.31966 2.00109,-0.82119 1.61847,-1.3434 -0.26107,-0.17081 -1.25109,0.82119 1.90433,0.2961 3.42041,-1.03258 3.67881,-1.7489 2.56967,-1.57721 -0.0665,-0.67068 -0.67881,0.7489 0.7048,1.61927 1.71588,-0.0854 1.75,0 -1.55247,1.28961 -0.62002,2.37119 -0.91408,3.57033 -1.6282,1.72001 -0.061,-0.34878 0.66408,-1.32033 0.31532,-1.14419 -1.38182,1.65897 -1.75,2.25 -1.95251,1.75171 -0.6647,0.45388 0.5,-1.5 0.85272,-1.08923 -0.86687,0.95061 -1.5,1.25 -1.06245,0.95194 -2.72163,1.57442 -3.75,2.25 -0.52394,0.0566 1.13736,-2.09301 2,-3.25 1.28573,-2.31786 0.23558,-0.7419 -0.75,0.5 -0.3608,0.61123 -1.93343,3.18315 -1.5,2.25 1.12762,-0.15008 2.49116,-3.34963 1.11097,-1.72321 -0.93911,0.82595 -1.41304,1.58199 -2.36097,2.22321 -1.25783,2.14407 -1.54322,1.46867 0,0.25 0.38788,-1.42069 2.45236,-3.06395 0.74999,-0.99999 -0.87754,0.65917 -1.55237,2.01285 -2.49999,2.49999 1.18049,-1.05686 1.61176,-2.37995 2.5,-3.5 -0.79692,-0.0658 -1.31993,1.75417 -2.47319,2.11097 -1.51444,1.71154 0.18244,-1.61007 1.22319,-2.36097 -0.52505,0.49371 -4.14893,3.69318 -1,3.25 1.34047,-0.6566 -0.97858,1.12612 -1,1.5"
         style="fill:none;stroke:#20360c;stroke-width:3;stroke-linecap:round;stroke-linejoin:round;stroke-miterlimit:4;stroke-opacity:1;stroke-dasharray:none" />
      <path
         inkscape:connector-curvature="0"
         id="path4845"
         d="m 149.5,217.36218 c -0.7953,-1.4174 2.62858,-4.2574 1.5,-1.25 1.08994,4.14217 -3.60298,0.20529 0.5,-0.25 4.52126,-1.5415 -3.72311,2.3618 1.5,-0.5 3.00039,-2.27216 1.83312,-0.77919 1.27746,-0.45738 1.22541,-3.03287 3.35568,-1.99783 0.72254,-1.79262 0.57742,-1.90791 6.49763,-3.64332 4.25,-2 -0.90079,1.31272 -2.80037,1.65474 -0.25,0.5 1.88294,-1.02089 4.04927,-1.94872 1.75,1 -0.80411,0.97192 -3.35937,2.28285 -2.5,2 3.02538,-0.87933 1.44533,-0.87882 0,0.25 -3.01826,1.55378 -0.95876,1.38932 1.25,-0.25 -0.13246,1.10972 -4.05649,3.26797 -5,4 -0.24968,0.0713 6.02078,-3.06506 3.25,-1.5 -2.73463,1.49218 -2.48023,2.84646 -0.75,1 1.67003,-0.398 3.4712,-2.87244 4.25,-2 -0.75363,1.86061 -2.98654,2.79812 -2.75,3.75 1.6614,-0.57519 4.59415,-3.20914 0.75,-0.75 -0.79199,1.14385 -4.09484,2.77445 -3,2.75 0.27326,-0.89761 1.77202,-1.4081 2.5,-2.25 1.08813,-0.33683 1.94148,-1.19 3,-2 0.57745,-0.3241 3.79284,-2.25862 2.75,-1.75 -2.67653,2.59522 -1.80668,2.2151 0.50505,-0.25505 0.71132,-1.40156 4.89824,-3.25172 3.99495,-2.49495 -2.73854,2.48539 2.59391,-3.74286 4,-3.25 -0.9037,1.01531 -6.74992,2.92563 -3.5,3 1.6943,0.14137 6.00016,-3.11526 4,-1.5 -0.5231,1.86122 -1.50414,2.84388 -2.25,4.25 -0.29634,0.83845 3.91675,-2.46367 1.75,-1 -0.77434,1.64464 -2.55002,2.74723 -4.75,3.25 -3.53592,1.81762 1.98228,-1.08437 3.5,-1.5 2.16441,-2.54991 -3.69129,1.61026 -5.25,2 -2.79587,2.291 3.91011,-1.25854 4.75,-2.5 4.01914,-2.5359 0.0213,-2.13827 -1.75,0 -3.37997,1.79256 -2.38059,3.27485 1.49363,1.00427 3.43504,-1.81724 3.43294,-3.11654 0.21408,0.0495 -1.72853,1.55634 -3.55512,2.15389 -4.95771,3.44621 -2.39193,1.68639 -0.12695,1.02028 2,0 -2.18978,-0.68781 -4.42105,1.5863 -6.75,1.75 -3.75771,0.9537 -0.46879,0.97772 1.5,-0.5 1.83649,-0.67754 3.83922,-2.33217 0.75,-0.75 -1.31095,0.64861 -3.41981,1.50714 -4.75,2.25 -1.57101,1.61139 -0.10729,0.70174 1.55603,0.002 -0.21762,-0.11382 -3.38342,2.30858 -4.80603,2.49755 -1.009,0.36857 -5.05728,2.47315 -2.7719,1.57765 1.13945,-1.05485 5.56561,-1.25333 2.0219,-0.0777 -2.61468,1.50392 0.47191,1.3467 1.5,0.25 2.86511,-1.10247 0.12591,0.86056 -0.5,1.75 -2.0494,1.88447 1.62991,-0.13708 2,-0.75 1.93743,-1.64352 0.11811,0.82694 -1,1.5 -2.17965,1.89652 2.51855,-2.21082 3,-2.5 1.20202,-0.71281 3.1286,-5.03876 3.24999,-3.49999 -0.77144,1.01848 -1.97551,2.77015 -3,3.25 -1.10496,1.13277 -1.84837,1.05228 -0.24999,-1e-5 0.8063,-0.99655 3.0549,-3.07229 4.25,-3.5 2.34053,-1.47012 2.45853,-0.6748 0.75,1 -0.99303,0.78624 -2.36687,1.62174 -3.5,2.25 -1.96758,1.58919 2.62477,-3.10549 2.7489,-3.67881 1.90104,-2.36907 -1.40283,-0.61379 -1.7489,0.17881 -1.68874,0.69504 -2.31234,1.56476 -4.02567,2.23237 -1.7432,1.94608 1.82868,-0.0632 2.52567,-0.98237 1.46614,-1.27051 4.38498,0.003 6.5,-1.5 2.51151,-1.48647 -1.76361,2.81026 -2.02679,3.13903 -1.25212,1.46048 3.29529,-1.41685 3.52679,-2.38903 0.9511,-0.6875 1.6985,-1.83076 2.75,-2.5 1.6829,-1.16481 -0.91461,1.74369 -1,2.75 0.12463,0.9486 3.50087,-3.84548 2.75,-2.5 -0.8076,0.51173 -3.38925,4.75345 -0.97433,2.26763 1.11629,-1.60671 2.16751,-1.88165 2.72433,-3.26763 0.0147,-0.65767 -1.30166,2.92326 -2.25,3 -0.62132,1.65007 1.69137,-2.60046 2.50548,-3.23194 0.58249,-1.78586 1.91558,-4.11621 -0.005,-2.01806 -0.70617,0.59396 -3.56066,2.01828 -1.5,0 0.55475,-1.29055 2.45412,-3.8142 1.75,-3.25 -0.88682,0.72648 -2.16864,2.15969 -2,3 0.61777,-0.56565 4.11467,-4.59321 2.75,-4.75 -1.93221,1.26658 -2.32439,2.42538 -1.12543,0.01 2.48446,-1.98065 -2.12718,-1.94975 -0.12457,-4.00998 1.34667,-2.68747 0.0856,-2.31285 -1.75,-1.25 -2.97164,1.98189 1.11589,-0.44774 1.25,-1.25"
         style="fill:none;stroke:#20360c;stroke-width:3;stroke-linecap:round;stroke-linejoin:round;stroke-miterlimit:4;stroke-opacity:1;stroke-dasharray:none" />
      <path
         inkscape:connector-curvature="0"
         id="path4847"
         d="m 160.5,211.86218 c 2.68739,1.0704 2.32699,-4.06626 5,-3.5 0.12841,-0.66139 0.61038,-0.46922 1,-0.5"
         style="fill:none;stroke:#20360c;stroke-width:3;stroke-linecap:round;stroke-linejoin:round;stroke-miterlimit:4;stroke-opacity:1;stroke-dasharray:none" />
      <path
         inkscape:connector-curvature="0"
         id="path4849"
         d="m 176.5,225.36218 c -1.23697,1.6776 -2.20543,3.39879 -3,4.25 -1.74655,0.80724 3.57879,-4.83304 -0.5,-1 -2.36338,3.40777 2.95049,-2.27599 1.42881,-1.49891 -0.35372,0.95706 -3.77762,3.38699 -4.67881,4.99891 0.52027,-1.76293 4.06494,-4.7765 0,-1.5 -3.37042,3.89323 1.9475,-4.2868 -0.25,-1.5 -1.70087,1.7534 -5.6736,4.27309 -2.25,0 2.32606,-4.23169 -2.06816,4.4108 -3,5.25 -0.4123,-0.17311 3.50439,-6.22511 0.29186,-1.56414 -3.71727,4.17793 -0.54805,0.10432 0.20814,-0.43586 -0.37978,1.85351 -2.78003,3.26248 -4,5.25 -1.94817,1.9869 1.63502,-3.23233 2.25,-4 2.78057,-3.46884 2.3915,-0.24544 0.53489,2.10527 -2.38853,1.56935 0.6467,-0.34466 1.21511,-1.85527 0.67113,-0.69046 -3.92586,3.07127 -5.25,3.25 0.5139,-1.85219 1.68808,-4.11797 2.75,-4.75 -1.39653,1.0593 -2.93236,5.24973 -4.25,6 1.94901,-1.1412 4.99271,-4.53096 0.5,-0.75 -3.74177,3.68613 -3.00916,1.61819 -1.5,-1 -0.40316,0.19047 -2.86673,3.73156 -4,4.5 -2.50305,2.81753 -0.56462,-1.02236 1.5,-2 1.61588,-1.32952 1.0525,-1.19659 -0.5,0.75 -1.07813,0.83834 -1.62074,2.43046 -3,3.25 -1.98967,3.15291 -0.83576,-0.83119 0.25,-2.5 0.48812,-1.93974 -1.9486,2.49413 -2.75,2.75 -0.71296,1.63731 1.88569,-1.49249 2.75,-1.5 1.4289,-0.14181 -0.97477,3.00922 -0.5502,3.78462 1.52447,-1.29665 3.31969,-2.82822 4.0502,-3.78462 0.32325,-0.79425 -1.8265,3.58439 -2.5,4.75 -0.61926,1.84896 2.82623,-3.13403 4,-4 1.58537,-1.17424 2.02597,-2.37182 3.5,-3 1.93179,-2.44801 0.32139,0.56876 -1,2.25 -1.99079,2.27435 -0.44576,0.36178 0.2489,0.0712 1.39898,-1.39437 2.16569,-2.06428 3.11207,-3.29438 0.52177,-0.34249 2.98213,-2.7011 1.13903,-0.0268 -2.01895,3.19231 1.60337,-2.79989 2.52679,-3.13903 1.65967,-0.53031 -0.37947,3.23095 -1.02679,3.88903 -0.12701,1.91428 3.23142,-1.27708 3.5,-2 0.2591,0.46248 -0.95384,4.28269 2.13052,0.87106 3.44861,-3.57529 1.4339,0.0993 0.36948,1.87894 -1.60222,2.34762 0.33158,-0.64338 1.25,-2.25 0.90543,-1.87564 4.64025,-8.28433 0.75,-4.25 -0.98157,1.23719 -6.48318,6.02497 -3.75,3.25 1.29737,-1.42509 5.25276,-4.82842 2.25,-1.75 -2.65307,3.35452 -1.87898,2.53835 0.5,-0.25 3.03791,-4.0899 1.85913,0.91724 1.6998,2.78462 1.29951,-0.82436 2.19086,-3.30223 2.26505,-2.83932 -0.27019,0.43307 -1.25448,3.21726 -0.21485,1.5547"
         style="fill:none;stroke:#20360c;stroke-width:3;stroke-linecap:round;stroke-linejoin:round;stroke-miterlimit:4;stroke-opacity:1;stroke-dasharray:none" />
      <path
         inkscape:connector-curvature="0"
         id="path4851"
         d="m 176.75,203.11218 c 2.30756,-0.91026 4.64423,-3.1348 2.25,0.25 0.97724,-1.44015 3.10175,-2.57059 1,0 1.96943,-1.6204 5.82328,-3.52137 2.75,-0.25 3.00808,-2.51282 2.50921,-0.59453 2,0.25 1.60762,-1.35917 3.28459,-2.14035 1.75,0.5 3.01188,-2.39361 0.94779,2.54875 1.75,2.25 1.69694,-2.17611 1.12968,0.74313 0,1.75 -1.42746,1.77614 2.05129,-3.51355 0.75,-1.5 -0.99052,0.87917 -1.3978,1.75804 -2.75,2.5 1.0707,-3.07127 1.71906,-3.01117 -1.5,-1.25 -2.21997,1.67327 -1.42419,0.31457 -0.25,-1 1.34452,-1.37497 1.56824,-2.70215 -1,-1 -2.93307,1.64263 -0.46163,-2.70066 0.25,-3.25 -1.30529,0.73665 -5.2131,2.55148 -1.5,-1 1.1991,-1.79605 -5.57874,4.56614 -2.5,-0.25 -1.6008,2.45725 -4.18505,2.21851 -1.5,0 1.62147,-2.72508 -0.76993,-0.26803 -1.61418,1.75607 2.79359,-1.05877 5.14875,0.24824 3.11418,2.99393 -2.11541,2.45266 1.23353,-6.21588 -1.25,-0.5 -0.98966,-0.033 1.22403,-0.6217 0.75,-1"
         style="fill:none;stroke:#20360c;stroke-width:3;stroke-linecap:round;stroke-linejoin:round;stroke-miterlimit:4;stroke-opacity:1;stroke-dasharray:none" />
      <path
         inkscape:connector-curvature="0"
         id="path4853"
         d="m 178.5,210.11218 c 1.48135,2.47758 -2.57958,-2.69823 -0.0587,0.48164 -0.15973,1.39588 1.55946,4.48822 0.0587,2.01836 -0.85587,-2.12215 -3.4426,-3.17239 -0.26693,-2.56612 -0.87074,1.29329 1.16716,2.80033 2.82525,2.88565 -3.1398,-1.11894 -2.88589,-5.53047 0.44796,-2.52126 1.73278,0.70682 1.43844,2.76014 -0.75628,-0.0483 0.97909,2.1127 5.66566,3.12764 2.25,2.5 -1.73029,-1.28102 6.02359,1.57885 0.5,0 -2.12239,-2.29593 3.07253,2.69425 1.75,1.25 -1.65592,-1.57056 -0.80704,-2.24962 0.68006,-0.68217 1.80915,2.01556 -1.17196,-0.36477 0.0699,0.68217 2.41866,1.20352 0.11131,4.92859 -1.75,2.75 -1.20563,-0.64786 -2.23072,-3.51124 -3.25,-4.75 -0.58322,-2.96851 4.59829,8.31441 0.75,2.75 -1.36704,-2.94195 -2.48692,-5.15458 -1.25,-1.25 2.18954,3.86164 -2.48983,0.95736 -2.75,-0.75 -1.99179,-2.35332 1.1058,2.32662 0.75,3.5 -0.92699,-0.47235 4.36309,1.43796 5.25,2.25 2.92841,1.0035 0.78674,1.68343 -0.75,0 -0.30539,-1.39275 0.70661,3.0286 -1.25,0.5 -1.90716,-2.73944 2.67514,2.36077 3.25,2.75 0.56549,0.76988 2.36392,2.87196 1.25,0.25 -2.13525,-2.13297 0.23436,-2.40249 2.5,-1.75 3.83575,0.55994 1.8068,1.23 1.5,2 1.95716,2.03644 0.0217,-1.50715 -1,-2 -1.83661,-3.2881 -0.23718,0.9972 0.75,1.75 0.4215,1.12259 2.04625,4.44949 0.75,1.75 -2.71981,-3.03161 2.71536,0.15145 -0.75,0.5 -3.36942,-0.005 -0.68285,-1.20738 0,1.5 -0.53009,0.80146 1.05232,-0.409 1.5,0.5 -2.56706,0.59525 -5.60252,-0.48525 -6.25,-2.75 1.09258,-1.90769 -4.8106,-4.23156 -2.5,-1.5 3.9268,4.76746 -4.53899,-5.76479 -4.75,-2.5 0.6662,1.77544 1.64349,5.87483 0,1.75 -1.76015,-5.23565 1.95597,-0.0409 2,2.5 -0.56369,0.39121 -4.64335,-4.17081 -2.25,-3 1.15343,0.63936 1.85192,1.3249 2.75,2 -3.98957,-3.39912 5.96943,2.59279 0.75,0.5 -1.35262,-2.81448 -5.30491,0.35503 -4.25,1.5 2.1281,-3.82657 0.98211,1.2505 0,2.75 -0.65351,-1.28079 0.33345,-3.40415 1,-0.5 0.92104,0.4871 1.66334,2.66756 2,1.75 -2.8636,-2.95642 1.33663,-1.08735 3,0 1.9432,1.29815 -3.43042,-2.27872 0.89522,0.32261 1.07944,1.26401 7.44665,3.26932 3.60478,1.67739 -0.7789,-1.15546 -1.85064,-1.68072 -2.75,-2.5 -3.67927,-3.14272 -1.22347,-0.44658 1,1.5 2.31788,1.93401 -0.55937,-0.40038 -1.5,-1.25 -0.19353,-0.56275 6.37291,2.22912 1.75,2 -1.37042,-0.74243 -1.15229,-5.69746 0.5,-2.75 2.58895,2.69773 -0.071,3.77913 -0.91408,1.42967 0.85609,0.79335 -3.94152,0.15447 -5.58592,-1.17967 0.59046,1.60238 -0.85128,1.30113 -2.27679,-0.63903 -2.06727,-2.57992 -0.26732,1.21086 -0.22321,3.13903 0.21009,-1.11888 1.86676,4.2273 0.5,0.75 0.68784,-1.66714 6.63205,2.609 9.5,2.75 4.89115,1.31404 -0.29926,0.006 -3,-0.25 -2.55945,-0.253 -4.42174,-1.06918 -0.42881,10e-4 2.84596,1.49326 -2.02681,0.0549 0.26088,-10e-4 1.18252,0.13943 5.45741,1.79075 3.91793,2 -1.89635,-2.13854 0.7801,1.83898 1,2.75 1.08292,1.81424 -2.21472,-4.07973 -3.5,-4.5 -2.17735,-1.19652 3.00373,3.05757 3.25,3.5 2.57299,1.84261 0.15323,-1.11938 2.5,0.25 3.35986,1.95245 -2.62261,-0.29873 -1.5,1 1.64152,0.74821 1.23842,3.01754 -0.75,1.75 -2.43345,-2.20698 0.15609,-0.24554 -0.66408,0.67967 -1.71043,-0.80917 -2.87288,-2.64355 -4.33592,-3.67967 -2.50419,-2.23986 1.75925,1.11299 2.25,1.75 -2.30923,0.35633 -5.09349,-2.46344 -5.5,-3.25 2.18681,0.008 4.10472,1.52913 5.75,2 0.0379,1.31585 -5.82547,-3.21383 -7.75,-4.5 -1.92931,-0.1048 -3.98349,-3.54557 -4.24999,-0.74999 0.73823,1.34465 1.61665,3.03911 2.49999,4.24999 0.83323,-0.0659 2.2097,4.06985 2,1.27862 0.26334,-1.90373 -1.38432,-7.05111 -2.25,-6.16793 0.5025,2.94413 0.93982,6.30376 2.75,8.38931 -0.023,-0.53735 -0.0924,-4.82774 3.25,-1.5 2.59558,0.95818 5.40953,4.20728 2.72321,1.61097 -0.92073,-1.25494 -3.70515,-5.32839 -1.47321,-1.86097 2.84406,2.2583 -1.64258,1.23372 -3.25,-1 -4.41695,-2.62701 -3.57816,-3.02304 0.5,0 2.98222,1.72394 1.03528,-4.4245 -0.75,-5.5 -0.66622,-0.35701 3.56247,4.86519 4.66408,5.32033 -0.17671,0.007 -3.63829,-3.50963 -4.41408,-5.07033 1.51723,0.17383 4.20611,3.3941 5.5,5 -2.33375,-0.60887 -6.71304,0.53906 -7.5,-1.5 -0.12532,0.41769 5.33447,5.39127 1.25,3 -3.49157,-4.57733 3.37243,3.48107 -1.25,-0.25 -2.05974,-1.31606 2.69018,2.19727 1.09388,0.99907 l -0.34388,9.3e-4 0,-0.25"
         style="fill:none;stroke:#20360c;stroke-width:3;stroke-linecap:round;stroke-linejoin:round;stroke-miterlimit:4;stroke-opacity:1;stroke-dasharray:none" />
      <path
         inkscape:connector-curvature="0"
         id="path4855"
         d="m 175.45711,246.61218 c -0.12259,3.83676 -1.42646,3.23312 0,1.75 -1.27564,0.5229 -3.56001,2.88305 -1.5,1 1.9269,-1.31694 -3.669,2.92229 -1.75,1.25 2.8911,-1.45563 -3.43449,1.55332 -1.5,1 3.07159,-1.27184 4.09264,-2.54706 0.66406,-0.82031 -1.23784,0.70427 -3.76575,-0.41665 -1.60803,-0.91564 -2.99664,2.08974 -0.11625,-0.69892 -2.55603,1.98595 -1.56494,1.14549 2.06362,-2.03769 1.25,-1.5 -0.66373,0.82119 -1.2313,0.98259 -1.75,1.25"
         style="fill:none;stroke:#20360c;stroke-width:3;stroke-linecap:round;stroke-linejoin:round;stroke-miterlimit:4;stroke-opacity:1;stroke-dasharray:none" />
      <path
         inkscape:connector-curvature="0"
         id="path4857"
         d="m 175.71604,231.05765 c -3.10086,1.75517 -2.10119,0.0657 -2.12132,0.53033 -1.40661,2.11874 -4.42009,6.59045 -1.23744,1.59099 0.82712,-1.90534 2.46901,-5.31265 0.7071,-1.41421 -1.61755,1.60588 -2.59086,4.94823 -1.41421,0.70711 -1.49649,1.18065 -4.64784,3.68548 -2.65165,-0.17678 -1.45766,1.85119 -4.23137,4.045 -2.2981,0.35355 -1.35857,1.46752 -2.19072,2.63523 -0.88388,0.35356 -0.91202,0.96591 -2.07652,3.24794 -3.71231,4.06586 0.48788,0.0428 -1.1296,-0.45577 -2.82843,1.76777 0.14246,-1.27993 -3.04023,3.08385 -1.76776,0.35355 -1.12196,1.66622 -2.92162,2.18464 -4.5962,2.47487"
         style="fill:none;stroke:#20360c;stroke-width:3;stroke-linecap:round;stroke-linejoin:round;stroke-miterlimit:4;stroke-opacity:1;stroke-dasharray:none" />
      <path
         inkscape:connector-curvature="0"
         id="path4859"
         d="m 173.77149,216.56196 c -1.82266,2.33768 -6.24819,6.02447 -3.18198,0.88389 0.0415,1.42949 -2.76641,4.83848 -1.23744,2.29809 -0.70552,1.66579 -3.46201,5.81482 -1.94454,2.12132 -0.59106,0.75043 -1.35528,1.05731 -1.76777,1.41422"
         style="fill:none;stroke:#20360c;stroke-width:3;stroke-linecap:round;stroke-linejoin:round;stroke-miterlimit:4;stroke-opacity:1;stroke-dasharray:none" />
      <path
         inkscape:connector-curvature="0"
         id="path4861"
         d="m 174.12505,208.78379 c -2.32562,-1.53898 -2.83927,2.34708 -2.47488,-0.53033 -1.35886,2.99024 -1.79421,0.69745 -2.74818,2.34178 2.61431,-5.56874 -0.58901,1.16962 -2.02479,1.90086 1.05177,-4.60218 -0.13327,-0.69463 -1.76777,0.70711 -2.65629,4.07923 -0.0788,-4.13636 -1.23743,-0.88389 -1.2525,2.44543 -1.43454,2.14296 -0.35356,0 0.65212,-0.39248 -0.86431,2.14399 -1.23743,2.2981 -0.91875,0.14544 0.34417,-4.04699 -0.70711,-1.94454 -2.02244,2.8022 -1.66406,-0.0161 -0.70711,-1.23744 1.47852,-2.54663 -0.28153,0.76071 -0.7071,1.94454 0.71358,0.1092 2.88277,-2.33135 4.41941,-1.41421 -0.79581,1.39238 -1.6847,2.7022 -2.29809,3.88909 -0.17449,1.08413 4.33737,-6.20023 0.88388,-1.59099 -1.85584,2.98747 3.53101,-5.32788 3.18198,-2.65165 -1.32948,4.39587 5.6551,-4.80066 3.53553,-0.53033 -0.5493,1.27559 3.13651,-2.15016 3.35876,-2.2981"
         style="fill:none;stroke:#20360c;stroke-width:3;stroke-linecap:round;stroke-linejoin:round;stroke-miterlimit:4;stroke-opacity:1;stroke-dasharray:none" />
      <path
         inkscape:connector-curvature="0"
         id="path4837"
         d="m 176.42893,277.86218 0,-133.5"
         style="fill:none;stroke:#20360c;stroke-width:3;stroke-linecap:butt;stroke-linejoin:miter;stroke-miterlimit:4;stroke-opacity:1;stroke-dasharray:none" />
    </g>
  </g>
</svg>
