<?xml version="1.0" encoding="UTF-8" standalone="no"?>
<!-- Created with Inkscape (http://www.inkscape.org/) -->

<svg
   xmlns:dc="http://purl.org/dc/elements/1.1/"
   xmlns:cc="http://creativecommons.org/ns#"
   xmlns:rdf="http://www.w3.org/1999/02/22-rdf-syntax-ns#"
   xmlns:svg="http://www.w3.org/2000/svg"
   xmlns="http://www.w3.org/2000/svg"
   xmlns:sodipodi="http://sodipodi.sourceforge.net/DTD/sodipodi-0.dtd"
   xmlns:inkscape="http://www.inkscape.org/namespaces/inkscape"
   width="512"
   height="512"
   id="svg2"
   version="1.1"
   inkscape:version="0.48.4 r9939"
   sodipodi:docname="videodude.svg"
   inkscape:export-filename="C:\Users\Mark\Documents\GitHub\FoundBigfootage\Assets\videodude.png"
   inkscape:export-xdpi="90"
   inkscape:export-ydpi="90">
  <defs
     id="defs4" />
  <sodipodi:namedview
     id="base"
     pagecolor="#ffffff"
     bordercolor="#666666"
     borderopacity="1.0"
     inkscape:pageopacity="0.0"
     inkscape:pageshadow="2"
     inkscape:zoom="0.64"
     inkscape:cx="315.37731"
     inkscape:cy="164.18304"
     inkscape:document-units="px"
     inkscape:current-layer="layer1"
     showgrid="false"
     borderlayer="true"
     showguides="true"
     inkscape:guide-bbox="true"
     inkscape:window-width="770"
     inkscape:window-height="716"
     inkscape:window-x="3"
     inkscape:window-y="51"
     inkscape:window-maximized="0" />
  <metadata
     id="metadata7">
    <rdf:RDF>
      <cc:Work
         rdf:about="">
        <dc:format>image/svg+xml</dc:format>
        <dc:type
           rdf:resource="http://purl.org/dc/dcmitype/StillImage" />
        <dc:title></dc:title>
      </cc:Work>
    </rdf:RDF>
  </metadata>
  <g
     inkscape:label="Layer 1"
     inkscape:groupmode="layer"
     id="layer1"
     transform="translate(0,-540.36218)">
    <g
       id="g4065"
       transform="matrix(2.9995013,0,0,2.9995013,-558.92103,-1297.1387)">
      <path
         sodipodi:nodetypes="aaaaaassaaaa"
         transform="translate(0,540.36218)"
         inkscape:connector-curvature="0"
         id="path3953"
         d="m 237.89063,129.96875 c 4.93867,-0.43944 9.46272,3.83954 12.89062,7.42187 2.73789,2.86123 3.96089,6.88505 5.46875,10.54688 3.32433,8.0731 5.85222,16.49215 7.8125,25 2.54278,11.03598 4.12403,22.30888 5.07813,33.59375 0.37381,4.42133 1.01608,8.9388 0.24845,13.30901 -1.13937,6.48656 0.35401,17.82759 -7.07864,18.44603 l -30.91827,2.57257 c -4.92404,0.40971 -5.71614,-8.43247 -7.17342,-13.23386 -6.95017,-22.89922 -10.0733,-47.80113 -6.64063,-71.48438 0.70406,-4.85759 2.59409,-9.6934 5.46876,-13.67187 3.78847,-5.24314 8.40059,-11.9267 14.84375,-12.5 z"
         style="fill:#b4746c;fill-opacity:1;stroke:none" />
      <path
         sodipodi:nodetypes="ccaccc"
         transform="translate(0,540.36218)"
         inkscape:connector-curvature="0"
         id="path4061"
         d="m 232.61719,124.10938 -1.24871,9.77543 c 0,0 4.89101,3.98138 7.86564,4.38879 2.76598,0.37882 8.14185,-1.96413 8.14185,-1.96413 l 3.79591,-10.05166 z"
         style="fill:#e5baa1;fill-opacity:1;stroke:none" />
      <path
         sodipodi:nodetypes="caacaaacaac"
         transform="translate(0,540.36218)"
         inkscape:connector-curvature="0"
         id="path3955"
         d="m 225.19532,142.66406 c 0,0 -7.01834,6.2353 -11.13282,8.39844 -5.46684,2.87413 -12.24476,2.74452 -17.57812,5.85937 -3.18417,1.85966 -8.20313,7.42188 -8.20313,7.42188 0,0 3.40224,22.64816 6.64063,33.59375 2.12686,7.1887 3.19442,15.43759 8.34529,20.88455 3.71461,3.92813 9.32431,7.40968 14.70158,6.84982 4.53279,-0.47193 10.9375,-8.20312 10.9375,-8.20312 0,0 -4.75383,-26.71849 -5.46875,-40.23438 -0.46789,-8.84563 0.11418,-17.72966 0.78125,-26.5625 0.2025,-2.68141 0.97657,-8.00781 0.97657,-8.00781 z"
         style="fill:#366a9c;fill-opacity:1;stroke:none" />
      <path
         sodipodi:nodetypes="cac"
         transform="translate(0,540.36218)"
         inkscape:connector-curvature="0"
         id="path3959"
         d="m 224.60937,211.60937 c 0,0 11.406,2.43297 17.18751,2.34376 8.64704,-0.13343 25.58593,-4.29688 25.58593,-4.29688"
         style="fill:none;stroke:#366a9c;stroke-width:6;stroke-linecap:round;stroke-linejoin:miter;stroke-miterlimit:4;stroke-opacity:1;stroke-dasharray:none" />
      <path
         sodipodi:nodetypes="caac"
         transform="translate(0,540.36218)"
         inkscape:connector-curvature="0"
         id="path3957"
         d="m 219.14062,153.60156 c 0,0 6.37838,-10.38231 11.52345,-13.08594 3.88875,-2.04346 8.76669,-2.36392 13.08593,-1.5625 3.32093,0.61619 8.96068,4.73083 8.96068,4.73083"
         style="fill:none;stroke:#366a9c;stroke-width:6;stroke-linecap:round;stroke-linejoin:miter;stroke-miterlimit:4;stroke-opacity:1;stroke-dasharray:none" />
    </g>
    <path
       style="fill:#2d382b;fill-opacity:1;stroke:none"
       d="m 492.84717,569.26967 c -2.56911,50.97208 1.90381,88.9147 -8.28502,135.8745 -2.4622,11.34816 -19.87448,15.20006 -31.48312,14.91307 -17.53944,-0.43361 -44.9229,-7.37227 -46.39617,-24.8551 -3.08894,-36.65564 -4.60567,-79.94127 -13.25605,-119.30444 -3.32156,-15.11458 22.80301,-24.24401 38.11115,-26.51208 21.25237,-3.14876 62.39068,-1.57306 61.30921,19.88405 z"
       id="path3961"
       inkscape:connector-curvature="0"
       sodipodi:nodetypes="ssassas" />
    <path
       style="fill:#2d382b;fill-opacity:1;stroke:none"
       d="m 408.33988,752.12914 c -2.01186,50.43919 -10.39163,93.68762 -8.28505,145.81652 0.46409,11.48398 16.77963,18.34228 28.1691,19.88409 14.54326,1.96875 36.63156,-1.04206 41.42515,-14.91304 16.40179,-47.46096 18.76968,-87.0003 14.91307,-139.18853 -1.04256,-14.10822 -19.19917,-24.10828 -33.14014,-26.51208 -14.97576,-2.58222 -42.47647,-0.27176 -43.08213,14.91304 z"
       id="path3963"
       inkscape:connector-curvature="0"
       sodipodi:nodetypes="ssassas" />
    <path
       style="fill:#8f570d;fill-opacity:1;stroke:none"
       d="m 393.62993,962.30482 c 12.72794,-0.11518 36.86837,9.94203 36.86837,9.94203 l 9.94206,21.54107 c 0,0 20.81522,-4.84495 30.19364,-1.1717 4.36394,1.70924 7.73061,5.80992 9.94206,9.94208 2.65785,4.9662 5.46956,11.3661 3.31399,16.57 -2.28631,5.5197 -9.34362,7.7798 -14.91304,9.9421 -13.54469,5.2585 -28.55708,6.2616 -43.08216,6.628 -21.64719,0.5461 -64.62324,-6.628 -64.62324,-6.628 0,0 -2.29321,-8.9563 -2.71092,-13.5404 -1.30943,-14.37 0.68638,-43.28315 0.68638,-43.28315 0,0 22.45289,-9.83417 34.38286,-9.94203 z"
       id="path3965"
       inkscape:connector-curvature="0"
       sodipodi:nodetypes="accaaaaacaca" />
    <path
       style="fill:#c3908a;fill-opacity:1;stroke:none"
       d="m 328.57225,698.09318 c 10.07133,1.51442 18.09173,11.07212 23.19808,19.88405 5.92012,10.21622 5.64221,23.03078 6.62803,34.79713 2.19087,26.15013 4.31763,53.15524 -1.65704,78.70778 -2.22216,9.50377 -4.9733,20.21178 -12.42751,26.51211 -11.821,9.99116 -30.08746,17.41625 -44.73918,12.42754 -6.53573,-2.22533 -10.20664,-10.03282 -12.42753,-16.57003 -7.72927,-22.75109 -1.58521,-48.06353 -0.8285,-72.07981 0.58434,-18.54547 -3.41163,-38.56237 4.1425,-55.50967 3.73752,-8.38499 11.52261,-14.63709 19.05559,-19.88409 5.68342,-3.95871 12.20632,-9.31492 19.05556,-8.28501 z"
       id="path3967"
       inkscape:connector-curvature="0"
       sodipodi:nodetypes="aaaaaaaaaaa" />
    <path
       style="fill:#c3908a;fill-opacity:1;stroke:none"
       d="m 328.15751,951.8955 c 0.42086,22.79126 9.61754,45.60481 6.04279,68.1179 -1.09649,6.9055 -2.20118,15.7584 -8.2345,19.2921 -6.97621,4.086 -17.02886,1.2877 -24.11353,-2.6071 -10.35839,-5.6945 -17.69706,-16.7591 -22.10947,-27.7252 -8.73767,-21.71556 -9.37014,-46.70215 -6.44503,-69.92624 1.76848,-14.04115 3.78525,-30.47218 14.25828,-39.9904 6.49188,-5.90002 17.1758,-9.14839 25.5182,-6.43555 8.45736,2.75018 14.27255,12.05529 17.08441,20.49235 4.09278,12.28053 -2.24012,25.83977 -2.00115,38.78214 z"
       id="path3969"
       inkscape:connector-curvature="0"
       sodipodi:nodetypes="aaaaaaaaaa" />
    <g
       id="g3931"
       transform="matrix(-2.0091838,0,0,2.0091838,1067.1836,-1389.179)">
      <rect
         ry="11.111678"
         transform="translate(0,540.36218)"
         y="440.27917"
         x="370.72598"
         height="46.467018"
         width="80.812202"
         id="rect3912"
         style="fill:#141414;fill-opacity:1;stroke:none" />
      <rect
         ry="6.0755553"
         y="983.67181"
         x="345.99191"
         height="41.921329"
         width="12.151111"
         id="rect3914"
         style="fill:#141414;fill-opacity:1;stroke:none" />
      <rect
         ry="0"
         y="990.96246"
         x="351.4599"
         height="27.339998"
         width="30.377775"
         id="rect3916"
         style="fill:#141414;fill-opacity:1;stroke:none" />
      <rect
         ry="0"
         transform="translate(0,540.36218)"
         y="429.67258"
         x="398.00009"
         height="25.75889"
         width="8.586297"
         id="rect3918"
         style="fill:#141414;fill-opacity:1;stroke:none" />
      <rect
         ry="7.0710678"
         transform="translate(0,540.36218)"
         y="422.6015"
         x="373.75644"
         height="14.142136"
         width="28.789347"
         id="rect3920"
         style="fill:#141414;fill-opacity:1;stroke:none" />
      <rect
         ry="2.5253813"
         transform="translate(0,540.36218)"
         y="424.6218"
         x="395.9798"
         height="7.5761442"
         width="29.294424"
         id="rect3922"
         style="fill:#141414;fill-opacity:1;stroke:none" />
      <path
         sodipodi:nodetypes="sssss"
         inkscape:connector-curvature="0"
         id="path3924"
         d="m 464.16511,968.01445 c 0,5.85786 -9.29443,15.65736 -15.15229,15.65736 -5.85787,0 -10.6066,-4.74874 -10.6066,-10.6066 0,-5.85787 4.74873,-10.60661 10.6066,-10.60661 5.85786,0 15.15229,-0.30202 15.15229,5.55585 z"
         style="fill:#141414;fill-opacity:1;stroke:none" />
      <rect
         ry="2.5253813"
         transform="translate(0,540.36218)"
         y="433.71317"
         x="433.8605"
         height="16.667517"
         width="20.203051"
         id="rect3927"
         style="fill:#141414;fill-opacity:1;stroke:none" />
      <path
         transform="translate(-3.5355339,537.8368)"
         d="m 389.91887,451.13831 c 0,2.92893 -2.37437,5.3033 -5.3033,5.3033 -2.92893,0 -5.3033,-2.37437 -5.3033,-5.3033 0,-2.92894 2.37437,-5.30331 5.3033,-5.30331 2.92893,0 5.3033,2.37437 5.3033,5.30331 z"
         sodipodi:ry="5.3033009"
         sodipodi:rx="5.3033009"
         sodipodi:cy="451.13831"
         sodipodi:cx="384.61557"
         id="path3929"
         style="fill:#ff0000;fill-opacity:1;stroke:none"
         sodipodi:type="arc" />
    </g>
    <g
       id="g4072"
       transform="matrix(2.9995013,0,0,2.9995013,-674.05509,-1341.2772)">
      <path
         sodipodi:nodetypes="aaaaaaaaaaaaa"
         inkscape:connector-curvature="0"
         id="path4059"
         d="m 228.43498,661.47768 c -0.79374,-3.8743 -1.46596,-7.82867 -1.38932,-11.7827 0.0572,-2.95147 0.20509,-6.03898 1.37719,-8.74835 1.42992,-3.30533 3.65752,-6.49607 6.62806,-8.5322 1.51601,-1.03914 3.44344,-1.57504 5.2814,-1.58429 3.70175,-0.0186 7.37159,1.40059 10.66868,3.08356 2.96867,1.51535 6.27895,3.22952 7.88346,6.15094 2.34702,4.27334 1.48772,9.68384 1.40584,14.55857 -0.0642,3.82291 -0.14589,7.7926 -1.48525,11.37379 -1.2626,3.37594 -2.80064,7.31017 -5.97933,9.00933 -3.13903,1.67794 -7.26612,0.98113 -10.67803,-0.0327 -4.57918,-1.36068 -9.17114,-3.96169 -12.02968,-7.78912 -1.18675,-1.58901 -1.28497,-3.76389 -1.68302,-5.70682 z"
         style="fill:#e5baa1;fill-opacity:1;stroke:none" />
      <path
         sodipodi:nodetypes="caaaaccaaaacac"
         transform="translate(0,540.36218)"
         inkscape:connector-curvature="0"
         id="path4063"
         d="m 251.5625,109.65625 c 0,0 0.14703,7.41541 -1.75781,10.35156 -1.14981,1.77233 -3.24214,2.93508 -5.27344,3.51563 -2.00411,0.57278 -4.31948,0.59056 -6.25,-0.19532 -0.9816,-0.39959 -1.81717,-1.22869 -2.34375,-2.14844 -1.85257,-3.2358 -2.34375,-10.93749 -2.34375,-10.93749 l -6.44531,-0.19532 c 0,0 -0.99785,-9.63026 1.36718,-13.476559 2.02434,-3.29222 5.99474,-5.403187 9.76563,-6.250001 4.99528,-1.121773 10.84062,-0.674825 15.23438,1.953125 3.36446,2.012314 5.63954,5.837 6.83593,9.570315 0.69539,2.16994 0,6.83594 0,6.83594 0,0 -2.2218,1.55129 -3.51562,1.75781 -1.75478,0.2801 -5.27344,-0.78125 -5.27344,-0.78125 z"
         style="fill:#366a9c;fill-opacity:1;stroke:none" />
    </g>
  </g>
</svg>
